<svg xmlns="http://www.w3.org/2000/svg" width="72" height="72"><g fill="none" fill-rule="evenodd"><path d="M-8-8h88v88H-8z"/><g fill="#DA251C" fill-rule="nonzero"><path d="M66.54 0H28.252a5.753 5.753 0 0 0-5.454 6v49.2c0 .018.01.033.01.05.005.136.032.27.08.397l.008.025.002.007 2.84 6.526a2.267 2.267 0 0 0 2.059 1.395h1.001v4.8c.004.41.079.816.221 1.2H14.4V48a3.604 3.604 0 0 0-3.6-3.6V23.917a9.6 9.6 0 0 0 8.38-10.126A9.6 9.6 0 1 0 8.4 23.917V44.4A3.604 3.604 0 0 0 4.8 48v21.6H1.2a1.2 1.2 0 1 0 0 2.4h69.594a1.2 1.2 0 0 0 0-2.4h-5.02c.142-.384.217-.79.22-1.2v-4.8h1.001a2.269 2.269 0 0 0 2.06-1.394l2.84-6.527.002-.006.007-.027c.05-.127.077-.261.08-.397.001-.017.01-.032.01-.049V6a5.754 5.754 0 0 0-5.454-6ZM2.4 14.4a7.2 7.2 0 1 1 7.2 7.2 7.208 7.208 0 0 1-7.2-7.2ZM12 69.6H7.2V48c0-.662.537-1.199 1.2-1.2h2.4c.662.001 1.198.538 1.2 1.2v21.6Zm23.997-1.2c0 .662-.537 1.2-1.2 1.2h-2.4a1.201 1.201 0 0 1-1.2-1.2v-4.8h4.8v4.8Zm2.179 1.2c.142-.384.217-.79.221-1.2v-4.8h17.998v4.8c.005.41.08.816.222 1.2H38.176Zm25.419-1.2c0 .663-.537 1.2-1.2 1.2h-2.4c-.662 0-1.199-.537-1.2-1.2v-4.8h4.8v4.8Zm3.28-7.2H27.918l-2.089-4.8h43.135l-2.09 4.8ZM41.997 54v-2.4c0-.662.537-1.2 1.2-1.2h8.399c.662 0 1.199.538 1.2 1.2V54h-10.8ZM69.594 6v48H55.196v-2.4a3.604 3.604 0 0 0-3.6-3.6h-8.4a3.604 3.604 0 0 0-3.599 3.6V54H25.198V6a3.365 3.365 0 0 1 3.054-3.6H66.54A3.365 3.365 0 0 1 69.594 6Z"/><path d="M63.364 5H30.636C28.63 5.002 27.002 6.536 27 8.429V9.57c.002 1.893 1.629 3.427 3.636 3.429h32.728c2.007-.002 3.634-1.536 3.636-3.429V8.43C66.998 6.536 65.371 5.002 63.364 5Zm1.212 4.571c-.001.631-.543 1.143-1.212 1.143H30.636c-.669 0-1.21-.512-1.212-1.143V8.43c.001-.631.543-1.142 1.212-1.143h32.728c.669 0 1.211.512 1.212 1.143V9.57ZM32 42a5 5 0 1 0 0 10 5 5 0 0 0 0-10Zm0 7.5a2.5 2.5 0 1 1 0-5 2.5 2.5 0 0 1 0 5ZM62 42a5 5 0 1 0 0 10 5 5 0 0 0 0-10Zm0 7.5a2.5 2.5 0 1 1 0-5 2.5 2.5 0 0 1 0 5ZM63.364 16H30.636c-2.007.002-3.634 1.613-3.636 3.6v16.8c.002 1.987 1.629 3.598 3.636 3.6h32.728c2.007-.002 3.634-1.613 3.636-3.6V19.6c-.002-1.987-1.629-3.598-3.636-3.6Zm1.212 20.4c-.001.662-.543 1.2-1.212 1.2H30.636a1.208 1.208 0 0 1-1.212-1.2V19.6c.001-.662.543-1.2 1.212-1.2h32.728c.669 0 1.211.538 1.212 1.2v16.8Z"/></g></g></svg>