<svg xmlns="http://www.w3.org/2000/svg" width="57" height="53"><g fill="none" fill-rule="nonzero"><path fill="#A81E36" d="M11.233 16.292c.223-.194.376-.309.376-.309-.134.092-.26.195-.376.309ZM48.427 3.742c.723-.083 1.283.54 1.705 1.678-.125-.544-.885-3.337-3.48-4.056a18.36 18.36 0 0 0-4.17 3.687c-2.675 3.023-7.879 12.904-10.511 16.992l1.478 2.033c2.512-3.908 10.645-19.827 14.978-20.334Z"/><path fill="#CC2036" d="M56.824 25.071c0-14.406-2.317-22.366-5.181-24.034-1.603-.922-3.281-.687-4.991.327 2.595.724 3.36 3.517 3.48 4.056 2.294 6.157.14 26.73-2.164 31.625-2.702 5.742-8.054-3.936-13.36-11.388l-1.14-1.595-1.483-2.032c-4.17-5.59-7.925-9.563-13.597-10.37-6.835-.972-8.666 3.125-8.666 3.125a7.413 7.413 0 0 0-.199 3.687c.423-.823 1-1.556 1.7-2.162.117-.113.242-.217.376-.309 4.208-2.903 6.307.706 12.461 10.941l1.803 2.982.927 1.549C37.75 49.396 43.71 52.64 47.24 52.57c3.532-.069 9.598-11.378 9.584-27.5Z"/><path fill="#A81E36" d="M11.233 16.292a7.214 7.214 0 0 0-1.7 2.161c.829 4.383 5.18 8.333 8.53 10.49 2.406 1.548 5.45 1.438 7.81.963l-1.803-2.982c-5.084-1.115-15.983-7.54-12.837-10.632Z"/><ellipse cx="5.186" cy="8.978" fill="#A81E36" rx="5.186" ry="3.258"/></g></svg>