<svg xmlns="http://www.w3.org/2000/svg" width="72" height="72"><g fill="none" fill-rule="evenodd"><path d="M-8-8h88v88H-8z"/><g fill="#DA251C" fill-rule="nonzero"><path d="M27.922 39c.595 0 1.078-.457 1.078-1.02V27.02c0-.563-.483-1.02-1.078-1.02h-5.844c-.595 0-1.078.457-1.078 1.02v10.96c0 .563.483 1.02 1.078 1.02h5.844Zm-4.766-10.962h3.688v8.924h-3.688v-8.924ZM33.078 39h5.844c.595 0 1.078-.457 1.078-1.02V27.02c0-.563-.483-1.02-1.078-1.02h-5.844c-.596 0-1.078.457-1.078 1.02v10.96c0 .563.482 1.02 1.078 1.02Zm1.078-10.962h3.688v8.924h-3.688v-8.924ZM13.922 55c.595 0 1.078-.456 1.078-1.02V43.02c0-.564-.483-1.02-1.078-1.02H8.078C7.483 42 7 42.456 7 43.02v10.96c0 .564.483 1.02 1.078 1.02h5.844ZM9.156 44.038h3.688v8.924H9.156v-8.924ZM59.078 55h5.844c.595 0 1.078-.456 1.078-1.02V43.02c0-.564-.483-1.02-1.078-1.02h-5.844c-.595 0-1.078.456-1.078 1.02v10.96c0 .564.483 1.02 1.078 1.02Zm1.078-10.962h3.688v8.924h-3.688v-8.924ZM44.078 39h5.844c.595 0 1.078-.457 1.078-1.02V27.02c0-.563-.483-1.02-1.078-1.02h-5.844c-.595 0-1.078.457-1.078 1.02v10.96c0 .563.483 1.02 1.078 1.02Zm1.078-10.962h3.688v8.924h-3.688v-8.924ZM35.393 11.893a1.107 1.107 0 0 0 2.214 0V9.607h2.286a1.107 1.107 0 0 0 0-2.214h-2.286V5.107a1.107 1.107 0 0 0-2.214 0v2.286h-2.286a1.107 1.107 0 0 0 0 2.214h2.286v2.286Z"/><path d="M70.945 30.702c.583 0 1.055-.473 1.055-1.055V25.85c0-.582-.472-1.054-1.055-1.054h-6.398a1.055 1.055 0 0 0 0 2.109h5.344v1.687H54.66v-1.687h4.636a1.054 1.054 0 1 0 0-2.11H54.66v-4.944h1.618c.583 0 1.055-.471 1.055-1.055V15c0-.582-.472-1.054-1.055-1.054H46.87V1.055C46.87.472 46.398 0 45.816 0H26.184c-.582 0-1.054.472-1.054 1.055v12.89H15.72c-.582 0-1.054.472-1.054 1.055v3.796c0 .584.472 1.055 1.054 1.055h1.62v4.945H1.054C.472 24.796 0 25.268 0 25.85v3.797c0 .582.472 1.055 1.055 1.055h.468v6.94a1.055 1.055 0 0 0 2.11 0v-6.94H17.34v35.202H3.633V42.877a1.055 1.055 0 1 0-2.11 0v23.026h-.468c-.583 0-1.055.472-1.055 1.055v3.987C0 71.528.472 72 1.055 72h69.89c.583 0 1.055-.472 1.055-1.055v-3.987c0-.583-.472-1.055-1.055-1.055h-.468V30.702h.468ZM16.776 16.055h16.391a1.055 1.055 0 0 0 0-2.11H27.24V2.11h17.522v11.837h-5.62a1.054 1.054 0 1 0 0 2.11h16.083v1.686H16.776v-1.687ZM2.109 26.905H17.34v1.687H2.11v-1.687Zm17.34-7.054H52.55v46.052h-6.073V49.22c0-.582-.473-1.055-1.055-1.055H26.578c-.582 0-1.055.473-1.055 1.055v16.684H19.45V19.851Zm8.184 46.052v-15.63h7.312v15.63h-7.312Zm9.422-15.63h7.312v15.63h-7.312v-15.63ZM69.89 69.891H2.109v-1.879h67.782v1.879Zm-1.523-3.988H54.66V30.702h13.707v35.201Z"/></g></g></svg>