<?xml version="1.0" encoding="UTF-8"?>
<svg width="84px" height="99px" viewBox="0 0 84 99" version="1.1" xmlns="http://www.w3.org/2000/svg" xmlns:xlink="http://www.w3.org/1999/xlink">
    <!-- Generator: Sketch 54.1 (76490) - https://sketchapp.com -->
    <title>6-Ljudski resursi</title>
    <desc>Created with Sketch.</desc>
    <g id="1-UI" stroke="none" stroke-width="1" fill="none" fill-rule="evenodd">
        <g id="1.1.1-Homepage" transform="translate(-465.000000, -1315.000000)">
            <g id="2-Servisi" transform="translate(120.000000, 840.000000)">
                <g id="HR" transform="translate(311.000000, 449.000000)">
                    <g id="6-Ljudski-resursi" transform="translate(24.000000, 24.000000)">
                        <rect id="Background" x="0" y="0" width="104" height="104"></rect>
                        <g id="6-Ljudski-resursi-IVIS" transform="translate(10.000000, 2.000000)">
                            <path d="M11.0826923,63.7629319 L9.75865385,63.7629319 L9.75865385,62.4363351 C9.75865385,62.27104 9.62326303,62.1370419 9.45625,62.1370419 C9.28923697,62.1370419 9.15384615,62.27104 9.15384615,62.4363351 L9.15384615,63.7467539 L7.82980769,63.7467539 C7.66279466,63.7467539 7.52740385,63.8807521 7.52740385,64.0460471 C7.52740385,64.2113422 7.66279466,64.3453403 7.82980769,64.3453403 L9.15384615,64.3453403 L9.15384615,65.6719372 C9.15384615,65.8372322 9.28923697,65.9712304 9.45625,65.9712304 C9.62326303,65.9712304 9.75865385,65.8372322 9.75865385,65.6719372 L9.75865385,64.3615183 L11.0826923,64.3615183 C11.2497053,64.3615183 11.3850962,64.2275202 11.3850962,64.0622251 C11.3850962,63.8969301 11.2497053,63.7629319 11.0826923,63.7629319 Z" id="_Path_" fill="#A81E37" fill-rule="nonzero"></path>
                            <path d="M59.6907051,22.5305759 L57.3423077,22.5305759 L57.3423077,20.2063351 C57.3423077,19.9085061 57.0983603,19.6670681 56.7974359,19.6670681 C56.4965115,19.6670681 56.2525641,19.9085061 56.2525641,20.2063351 L56.2525641,22.5305759 L53.9041667,22.5305759 C53.6032423,22.5305759 53.3592949,22.772014 53.3592949,23.0698429 C53.3592949,23.3676719 53.6032423,23.6091099 53.9041667,23.6091099 L56.2525641,23.6091099 L56.2525641,25.9333508 C56.2525641,26.2311797 56.4965115,26.4726178 56.7974359,26.4726178 C57.0983603,26.4726178 57.3423077,26.2311797 57.3423077,25.9333508 L57.3423077,23.6091099 L59.6907051,23.6091099 C59.9916295,23.6091099 60.2355769,23.3676719 60.2355769,23.0698429 C60.2355769,22.772014 59.9916295,22.5305759 59.6907051,22.5305759 Z" id="_Path_2" fill="#A81E37" fill-rule="nonzero"></path>
                            <path d="M22.1490385,63.3746597 L20.0294872,63.3746597 L20.0294872,61.276911 C20.0294872,60.8301676 19.6635661,60.4680105 19.2121795,60.4680105 C18.7607929,60.4680105 18.3948718,60.8301676 18.3948718,61.276911 L18.3948718,63.3746597 L16.2753205,63.3746597 C15.8239339,63.3746597 15.4580128,63.7368168 15.4580128,64.1835602 C15.4580128,64.6303036 15.8239339,64.9924607 16.2753205,64.9924607 L18.3948718,64.9924607 L18.3948718,67.0902094 C18.3948718,67.5369528 18.7607929,67.8991099 19.2121795,67.8991099 C19.6635661,67.8991099 20.0294872,67.5369528 20.0294872,67.0902094 L20.0294872,64.9924607 L22.1490385,64.9924607 C22.6004249,64.9924606 22.9663459,64.6303035 22.9663459,64.1835602 C22.9663459,63.7368169 22.6004249,63.3746598 22.1490385,63.3746597 Z" id="_Path_3" fill="#A81E37" fill-rule="nonzero"></path>
                            <g id="_Group_2" opacity="0.06" transform="translate(10.897436, -2.000000)" fill="#CD2037" fill-rule="nonzero">
                                <path d="M-1.37462784,23.6534653 L60.6350035,23.9740175 C63.3201929,23.9878983 65.4935373,26.1612416 65.5074193,28.8464311 L65.5089823,29.1487549 C65.5229664,31.8536988 63.3415125,34.0578254 60.6365686,34.0718095 C60.6196891,34.0718968 60.6028093,34.0718968 60.5859298,34.0718096 L-1.4237015,33.7512574 C-4.10889097,33.7373766 -6.28223532,31.5640332 -6.29611732,28.8788438 L-6.29768028,28.57652 C-6.31166441,25.8715761 -4.13021053,23.6674494 -1.42526666,23.6534653 C-1.40838717,23.6533781 -1.39150734,23.653378 -1.37462784,23.6534653 Z" id="_Rectangle_" transform="translate(29.605651, 28.862637) rotate(-44.760000) translate(-29.605651, -28.862637) "></path>
                                <g id="_Group_3" transform="translate(11.442308, 34.513089)">
                                    <path d="M19.2939103,7.19382199 L19.2939103,7.19382199 C18.3455749,6.2486288 17.8156307,4.96918985 17.8207403,3.63716214 C17.82585,2.30513443 18.3655944,1.02971479 19.3211538,0.0916753927 L0.365064103,18.6856021 C1.320081,17.7470217 2.61281758,17.2225288 3.95868949,17.2275858 C5.3045614,17.2326429 6.5932369,17.7668353 7.54102564,18.7125654 L7.54102564,18.7125654 C8.48936104,19.6577586 9.01930516,20.9371976 9.01419555,22.2692253 C9.00908594,23.601253 8.46934147,24.8766726 7.51378205,25.814712 L26.4698718,7.22078534 C25.5148549,8.15936577 24.2221183,8.68385866 22.8762464,8.67880161 C21.5303745,8.67374455 20.241699,8.13955212 19.2939103,7.19382199 Z" id="_Path_4"></path>
                                </g>
                                <g id="_Group_4" transform="translate(21.794872, 42.602094)">
                                    <path d="M28.8455128,7.52816754 L28.8455128,7.52816754 C27.8971774,6.58297435 27.3672333,5.3035354 27.3723429,3.97150769 C27.3774525,2.63947998 27.917197,1.36406033 28.8727564,0.426020942 L0.108974359,28.6566492 C1.06399125,27.7180688 2.35672783,27.1935759 3.70259974,27.1986329 C5.04847165,27.20369 6.33714715,27.7378824 7.2849359,28.6836126 L7.2849359,28.6836126 C8.2332713,29.6288058 8.76321542,30.9082447 8.7581058,32.2402724 C8.75299619,33.5723001 8.21325173,34.8477198 7.25769231,35.7857592 L36.0214744,7.55513089 C35.0664575,8.49371132 33.7737209,9.01820421 32.427849,9.01314716 C31.0819771,9.0080901 29.7933016,8.47389767 28.8455128,7.52816754 L28.8455128,7.52816754 Z" id="_Path_5"></path>
                                </g>
                                <path d="M6.0502438,49.0097689 L58.8985054,49.2829624 C61.5836949,49.2968432 63.7570392,51.4701865 63.7709212,54.155376 L63.7724842,54.4576998 C63.7864683,57.1626437 61.6050144,59.3667703 58.9000706,59.3807544 C58.8831911,59.3808417 58.8663112,59.3808417 58.8494318,59.3807544 L6.00117013,59.107561 C3.31598067,59.0936802 1.14263632,56.9203368 1.12875432,54.2351474 L1.12719136,53.9328236 C1.11320723,51.2278797 3.29466111,49.0237531 5.99960498,49.0097689 C6.01648447,49.0096817 6.0333643,49.0096817 6.0502438,49.0097689 Z" id="_Rectangle_2" transform="translate(32.449838, 54.195262) rotate(-44.760000) translate(-32.449838, -54.195262) "></path>
                                <path d="M9.54304491,68.3078524 L72.3224481,68.6323838 C75.0076376,68.6462646 77.1809819,70.819608 77.1948639,73.5047974 L77.1964269,73.8071213 C77.210411,76.5120651 75.0289572,78.7161918 72.3240133,78.7301759 C72.3071338,78.7302632 72.290254,78.7302632 72.2733745,78.7301759 L9.49397125,78.4056445 C6.80878178,78.3917637 4.63543744,76.2184203 4.62155543,73.5332308 L4.61999247,73.230907 C4.60600834,70.5259632 6.78746222,68.3218365 9.49240609,68.3078524 C9.50928558,68.3077651 9.52616542,68.3077651 9.54304491,68.3078524 Z" id="_Rectangle_3" transform="translate(40.908210, 73.519014) rotate(-44.760000) translate(-40.908210, -73.519014) "></path>
                            </g>
                            <g id="_Group_5" transform="translate(0.000000, 22.649215)">
                                <g id="_Group_6" transform="translate(0.000000, 9.167539)">
                                    <polygon id="_Path_6" fill="#E07778" fill-rule="nonzero" points="6.80544872 14.1072251 6.56570513 16.3290052 8.1349359 16.9761257 7.03974359 18.2056545 9.70416667 21.1284817 10.4996795 17.3859686 9.81858974 15.8328796 12.6301282 15.7465969 11.861859 17.2942932 12.7772436 21.2740838 15.3217949 18.4105759 14.3737179 17.0300524 16.0301282 16.447644 15.8230769 14.2528272 19.2230769 15.1318325 21.0592949 16.9437696 21.9474359 19.1385864 21.9474359 23.6198953 0.479487179 23.5282199 0.653846154 19.0523037 1.74903846 16.7118848 3.63974359 15.0401571"></polygon>
                                    <polygon id="_Path_7" fill="#E07778" fill-rule="nonzero" points="6.32596154 0.388272251 6.93076923 2.38356021 6.02628205 3.29492147 5.95 5.2578534 7.15416667 7.38256545 7.32307692 5.08528796 10.5650641 4.7347644 13.6762821 3.67240838 15.5233974 7.11832461 16.4278846 4.00675393 15.6759615 2.64240838 15.0875 2.29188482 13.5836538 0.479947644"></polygon>
                                    <g id="_Group_7" transform="translate(0.544872, 0.000000)" stroke="#A81E38" stroke-linecap="round" stroke-linejoin="round" stroke-width="1.07999991">
                                        <g id="_Group_8" transform="translate(4.903846, 0.000000)">
                                            <path d="M9.79134615,7.73848168 C9.79134615,7.73848168 12.1996795,3.05764398 9.70416667,2.57769634 C9.70416667,2.57769634 9.15929487,0.496125654 7.09967949,0.452984293 C5.0400641,0.409842932 0.724679487,0.452984293 0.724679487,0.452984293 L1.4275641,2.42670157 C1.4275641,2.42670157 -0.937179487,3.5052356 1.66730769,7.65219895" id="_Path_8"></path>
                                            <path d="M9.63878205,5.95890052 L9.63878205,9.69602094 C9.63924662,10.2097561 9.4623885,10.7082363 9.1375,11.1089005 L7.91698718,12.6188482 C7.4843034,13.1511965 6.83101753,13.4605961 6.14070513,13.4601047 L5.30705128,13.4601047 C4.61490309,13.4579748 3.96129077,13.1444519 3.53076923,12.6080628 L2.28301282,11.0603665 C1.96124957,10.6604279 1.78640752,10.1641162 1.78717949,9.65287958 L1.78717949,5.02596859 C3.97460068,5.01157322 6.13485477,4.54502654 8.12948718,3.65623037 C8.46587029,4.51903431 8.97984687,5.3031876 9.63878205,5.95890052 L9.63878205,5.95890052 Z" id="_Path_9"></path>
                                        </g>
                                        <path d="M13.2185897,12.3222513 L13.2185897,13.977801 C13.2185897,14.8712879 12.4867475,15.5956021 11.5839744,15.5956021 L9.81858974,15.5956021 C8.91581659,15.5956021 8.18397436,14.8712879 8.18397436,13.977801 L8.18397436,12.2305759" id="_Path_10"></path>
                                        <polyline id="_Path_11" points="15.0548077 14.2366492 15.5724359 16.447644 13.6762821 16.9060209 14.7878205 18.3728272 10.7176282 23.3987958 6.53846154 18.2218325 7.61185897 16.9437696 5.90096154 16.4260733 6.42403846 14.1287958"></polyline>
                                        <path d="M13.3384615,13.5841361 L17.3323718,14.6626702 C19.7392421,15.3102418 21.4092706,17.4735307 21.4080128,19.9420942 L21.4080135,23.6091099 L-7.09977785e-07,23.6091099 L3.17637355e-22,19.9367016 C-0.00125777206,17.468138 1.66877077,15.3048492 4.07564103,14.6572775 L8.06955128,13.5787435" id="_Path_12"></path>
                                        <path d="M10.7503205,23.5713613 L10.7503205,23.5713613" id="_Path_13"></path>
                                        <path d="M4.57692308,23.5983246 L4.57692308,20.5784293" id="_Path_14"></path>
                                        <path d="M16.9019231,23.5983246 L16.9019231,20.5784293" id="_Path_15"></path>
                                        <g id="_Group_9" transform="translate(8.717949, 15.099476)">
                                            <path d="M3.16570513,0.506910995 C3.27323167,0.513659145 3.3684322,0.578034242 3.41387053,0.674721736 C3.45930885,0.771409231 3.44771721,0.88494417 3.38365385,0.970680628 L2.44102564,2.19481675 C2.32700124,2.31214425 2.16961206,2.37844777 2.00512821,2.37844777 C1.84064435,2.37844777 1.68325518,2.31214425 1.56923077,2.19481675 L0.533974359,0.949109948 C0.463157771,0.866577454 0.447860314,0.750601031 0.494896164,0.65284179 C0.541932014,0.555082549 0.642547154,0.493734826 0.751923077,0.496125654 L3.18205128,0.496125654 L3.16570513,0.506910995 Z" id="_Path_16"></path>
                                            <polyline id="_Path_17" points="1.31858974 1.87125654 0.441346154 6.35795812 1.99967949 8.2939267 3.56891026 6.35795812 2.58269231 1.92518325"></polyline>
                                        </g>
                                    </g>
                                </g>
                                <g id="_Group_10" transform="translate(53.942308, 9.167539)">
                                    <polygon id="_Path_18" fill="#E07778" fill-rule="nonzero" points="6.62564103 14.1072251 6.38589744 16.3290052 7.95512821 16.9761257 6.8599359 18.2056545 9.51891026 21.1284817 10.3198718 17.3859686 9.63878205 15.8328796 12.4503205 15.7465969 11.6820513 17.2942932 12.5974359 21.2740838 15.1419872 18.4105759 14.1939103 17.0300524 15.8503205 16.447644 15.6432692 14.2528272 19.0432692 15.1318325 20.8740385 16.9437696 21.7621795 19.1385864 21.7621795 23.6198953 0.294230769 23.5282199 0.474038462 19.0523037 1.56923077 16.7118848 3.4599359 15.0401571"></polygon>
                                    <polygon id="_Path_19" fill="#E07778" fill-rule="nonzero" points="6.14615385 0.388272251 6.74551282 2.38356021 5.84102564 3.29492147 5.77019231 5.2578534 6.97435897 7.38256545 7.14326923 5.08528796 10.3852564 4.7347644 13.4964744 3.67240838 15.3435897 7.11832461 16.2480769 4.00675393 15.4907051 2.64240838 14.9076923 2.29188482 13.3983974 0.479947644"></polygon>
                                    <g id="_Group_11" stroke="#A81E38" stroke-linecap="round" stroke-linejoin="round" stroke-width="1.07999991">
                                        <g id="_Group_12" transform="translate(5.448718, 0.000000)">
                                            <path d="M9.61153846,7.73848168 C9.61153846,7.73848168 12.0198718,3.05764398 9.52435897,2.57769634 C9.52435897,2.57769634 8.97948718,0.496125654 6.91987179,0.452984293 C4.86025641,0.409842932 0.544871795,0.452984293 0.544871795,0.452984293 L1.24775641,2.42670157 C1.24775641,2.42670157 -1.11698718,3.5052356 1.4875,7.65219895" id="_Path_20"></path>
                                            <path d="M9.45897436,5.95890052 L9.45897436,9.69602094 C9.45943892,10.2097561 9.28258081,10.7082363 8.95769231,11.1089005 L7.73717949,12.6188482 C7.3044957,13.1511965 6.65120984,13.4605961 5.96089744,13.4601047 L5.12724359,13.4601047 C4.43410399,13.460923 3.77831033,13.1493006 3.34551282,12.6134555 L2.09775641,11.0657592 C1.77599316,10.6658206 1.60115111,10.1695089 1.60192308,9.65827225 L1.60192308,5.03136126 C3.78973305,5.0152699 5.95000405,4.54688276 7.94423077,3.65623037 C8.28222208,4.51950365 8.79807808,5.30369327 9.45897436,5.95890052 Z" id="_Path_21"></path>
                                        </g>
                                        <path d="M13.5836538,12.3222513 L13.5836538,13.977801 C13.5836538,14.8712879 12.8518116,15.5956021 11.9490385,15.5956021 L10.1836538,15.5956021 C9.2808807,15.5956021 8.54903846,14.8712879 8.54903846,13.977801 L8.54903846,12.2305759" id="_Path_22"></path>
                                        <polyline id="_Path_23" points="15.4144231 14.2366492 15.9375 16.447644 14.0413462 16.9060209 15.1528846 18.3728272 11.0826923 23.3987958 6.89807692 18.2218325 7.97692308 16.9437696 6.26602564 16.4260733 6.78365385 14.1287958"></polyline>
                                        <path d="M13.6926282,13.5841361 L17.6865385,14.6626702 C20.0934087,15.3102418 21.7634373,17.4735307 21.7621795,19.9420942 L21.7621802,23.6091099 L0.359614675,23.6091099 L0.359615385,19.9367016 C0.358357613,17.468138 2.02838615,15.3048492 4.43525641,14.6572775 L8.42916667,13.5787435" id="_Path_24"></path>
                                        <path d="M11.1153846,23.5713613 L11.1153846,23.5713613" id="_Path_25"></path>
                                        <path d="M4.93653846,23.5983246 L4.93653846,20.5784293" id="_Path_26"></path>
                                        <path d="M17.2669872,23.5983246 L17.2669872,20.5784293" id="_Path_27"></path>
                                        <g id="_Group_13" transform="translate(9.262821, 15.099476)">
                                            <path d="M2.98589744,0.506910995 C3.09342398,0.513659145 3.18862451,0.578034242 3.23406283,0.674721736 C3.27950116,0.771409231 3.26790952,0.88494417 3.20384615,0.970680628 L2.25032051,2.19481675 C2.13629611,2.31214425 1.97890693,2.37844777 1.81442308,2.37844777 C1.64993923,2.37844777 1.49255005,2.31214425 1.37852564,2.19481675 L0.343269231,0.949109948 C0.272452642,0.866577454 0.257155186,0.750601031 0.304191036,0.65284179 C0.351226886,0.555082549 0.451842025,0.493734826 0.561217949,0.496125654 L2.98589744,0.496125654 L2.98589744,0.506910995 Z" id="_Path_28"></path>
                                            <polyline id="_Path_29" points="1.13878205 1.87125654 0.261538462 6.35795812 1.81442308 8.2939267 3.38365385 6.35795812 2.3974359 1.92518325"></polyline>
                                        </g>
                                    </g>
                                </g>
                                <g id="_Group_14" transform="translate(17.435897, 0.000000)">
                                    <g id="_Group_15" transform="translate(5.993590, 5.931937)">
                                        <polygon id="_Path_30" fill="#E07778" fill-rule="nonzero" points="9.01762821 18.8851309 8.69070513 21.9319895 10.8375 22.8109948 9.33910256 24.4935079 12.9842949 28.5002618 14.0740385 23.3718325 13.1477564 21.2525131 16.9945513 21.1284817 15.9375 23.2531937 17.1961538 28.7051832 20.6778846 24.7739267 19.3810897 22.8918848 21.6477564 22.0937696 21.3644231 19.0846597 26.0176282 20.2872251 28.5294872 22.7732461 29.7445513 25.7769634 27.2217949 28.7429319 22.9990385 31.7358639 6.41314103 31.7358639 1.52019231 28.3924084 0.45224359 26.1005236 1.65096154 22.7139267 4.68589744 20.1685864"></polygon>
                                        <polygon id="_Path_31" fill="#E07778" fill-rule="nonzero" points="8.35833333 0.102460733 9.18653846 2.8365445 7.94967949 4.08764398 7.84615385 6.76780105 9.49711538 9.67984293 9.72596154 6.5413089 14.1666667 6.05596859 18.4221154 4.59994764 20.9503205 9.3239267 22.1926282 5.05832461 21.1573718 3.19246073 20.3564103 2.70712042 18.2967949 0.231884817"></polygon>
                                        <g id="_Group_16" transform="translate(0.544872, 0.000000)" stroke="#A81E38" stroke-linecap="round" stroke-linejoin="round" stroke-width="1.07999991">
                                            <g id="_Group_17" transform="translate(7.083333, 0.000000)">
                                                <path d="M12.9407051,10.1651832 C12.9407051,10.1651832 16.2371795,3.75329843 12.8208333,3.10078534 C12.8208333,3.10078534 12.0689103,0.253455497 9.25192308,0.194136126 C6.4349359,0.134816754 0.533974359,0.194136126 0.533974359,0.194136126 L1.49294872,2.8904712 C1.49294872,2.8904712 -1.74358974,4.3734555 1.82532051,10.0411518" id="_Path_32"></path>
                                                <path d="M12.7282051,7.73308901 L12.7282051,12.8237696 C12.728025,13.5258705 12.4858407,14.2069033 12.0416667,14.7543455 L10.3689103,16.8197382 C9.77750994,17.5491226 8.883701,17.973579 7.93878205,17.9737696 L6.8,17.9737696 C5.85225288,17.9739054 4.95593657,17.5472259 4.36442308,16.8143455 L2.65352564,14.6950262 C2.21247598,14.1483094 1.97230781,13.4694447 1.9724359,12.7698429 L1.9724359,6.45502618 C4.97865998,6.44149938 7.94858906,5.80402152 10.6903846,4.58376963 C10.6903846,4.58376963 11.5294872,6.77858639 12.7282051,7.73308901 Z" id="_Path_33"></path>
                                            </g>
                                            <path d="M18.0025641,16.4422513 L18.0025641,18.7125654 C18.0025641,19.9545122 16.9853034,20.9613089 15.7304487,20.9613089 L13.3112179,20.9613089 C12.0563633,20.9613089 11.0391026,19.9545122 11.0391026,18.7125654 L11.0391026,16.3182199" id="_Path_34"></path>
                                            <polyline id="_Path_35" points="20.5089744 19.063089 21.2227564 22.088377 18.6237179 22.7193194 20.149359 24.7307853 14.5753205 31.6118325 8.84871795 24.5204712 10.3253205 22.7678534 7.98237179 22.0668063 8.69070513 18.9120942"></polyline>
                                            <path d="M0.0272435897,25.4857592 C0.561975508,22.6650094 2.67817765,20.394643 5.47596154,19.6401047 L10.9246795,18.1679058" id="_Path_36"></path>
                                            <path d="M18.1496795,18.1679058 L23.5983974,19.6401047 C26.1749114,20.3334634 28.1916326,22.3191935 28.9054487,24.8656021" id="_Path_37"></path>
                                            <path d="M14.6189103,31.8437173 L14.6189103,31.8491099" id="_Path_38"></path>
                                            <path d="M6.1625,30.9431414 L6.1625,27.745288" id="_Path_39"></path>
                                            <path d="M23.0426282,30.9 L23.0426282,27.745288" id="_Path_40"></path>
                                            <g id="_Group_18" transform="translate(11.987179, 20.492147)">
                                                <path d="M4.18461538,0.420628272 C4.3333409,0.427527164 4.4657203,0.516055018 4.52767649,0.650048121 C4.58963267,0.784041224 4.57079017,0.941060473 4.47884615,1.05696335 L3.17115385,2.73408377 C3.01502978,2.8945794 2.79962319,2.98526479 2.57451923,2.98526479 C2.34941527,2.98526479 2.13400869,2.8945794 1.97788462,2.73408377 L0.561217949,1.03 C0.465000686,0.916592691 0.444669658,0.757979892 0.509226288,0.624386331 C0.573782917,0.490792769 0.711301815,0.406896857 0.860897436,0.409842932 L4.18461538,0.409842932 L4.18461538,0.420628272 Z" id="_Path_41"></path>
                                                <polyline id="_Path_42" points="1.65641026 2.3134555 0.457692308 8.45570681 2.58814103 11.1035079 4.7349359 8.45570681 3.38365385 2.38895288"></polyline>
                                            </g>
                                        </g>
                                    </g>
                                    <g id="_Group_19">
                                        <polygon id="_Rectangle_4" stroke="#A81E38" stroke-width="1.07999991" stroke-linecap="round" stroke-linejoin="round" transform="translate(37.492358, 36.909247) rotate(45.000000) translate(-37.492358, -36.909247) " points="32.783102 35.1041576 42.2205303 35.055368 42.2016142 38.7143364 32.7641858 38.763126"></polygon>
                                        <g id="_Group_20">
                                            <g id="_Group_21" fill="#E07779" fill-rule="nonzero">
                                                <path d="M20.7432692,0.0539267016 C9.57897462,0.0539267016 0.528525641,9.01127898 0.528525641,20.060733 C0.528525641,31.110187 9.57897462,40.0675393 20.7432692,40.0675393 C31.9075638,40.0675393 40.9580128,31.110187 40.9580128,20.060733 C40.9580128,9.01127898 31.9075638,0.0539267016 20.7432692,0.0539267016 L20.7432692,0.0539267016 Z M20.7432692,37.9212565 C10.7766537,37.9212565 2.69711538,29.9248278 2.69711538,20.060733 C2.69711538,10.1966382 10.7766537,2.20020942 20.7432692,2.20020942 C30.7098848,2.20020942 38.7894231,10.1966382 38.7894231,20.060733 C38.7894231,24.7976383 36.8881373,29.3405324 33.503827,32.6900303 C30.1195167,36.0395282 25.5294068,37.9212565 20.7432692,37.9212565 L20.7432692,37.9212565 Z" id="_Compound_Path_"></path>
                                            </g>
                                            <ellipse id="_Path_43" stroke="#A81E38" stroke-width="1.07999991" stroke-linecap="round" stroke-linejoin="round" cx="20.7432692" cy="20.060733" rx="20.2147436" ry="20.0068063"></ellipse>
                                            <ellipse id="_Path_44" stroke="#A81E38" stroke-width="1.07999991" stroke-linecap="round" stroke-linejoin="round" cx="20.7432692" cy="20.060733" rx="18.0461538" ry="17.8605236"></ellipse>
                                            <path d="M7.72083333,11.6265969 C7.92061966,11.3174171 8.13130342,11.0154276 8.35288462,10.7206283" id="_Path_45" stroke="#A81E38" stroke-width="1.07999991" stroke-linecap="round" stroke-linejoin="round"></path>
                                            <path d="M5.75929487,16.1941885 C5.99013822,15.2682526 6.30753191,14.3655835 6.70737179,13.4978534" id="_Path_46" stroke="#A81E38" stroke-width="1.07999991" stroke-linecap="round" stroke-linejoin="round"></path>
                                            <path d="M6.89807692,26.5966492 C5.66168738,24.1107972 5.13239925,21.3387135 5.36698718,18.5777487" id="_Path_47" stroke="#A81E38" stroke-width="1.07999991" stroke-linecap="round" stroke-linejoin="round"></path>
                                            <path d="M35.7762821,23.7654974 C35.5582944,24.6362486 35.2629126,25.4862099 34.8935897,26.305445" id="_Path_48" stroke="#A81E38" stroke-width="1.07999991" stroke-linecap="round" stroke-linejoin="round"></path>
                                            <path d="M32.6596154,10.267644 C34.9698636,13.0180843 36.2310318,16.4840209 36.2230769,20.060733 C36.2230769,20.3699127 36.2230769,20.6754974 36.2230769,20.9774869" id="_Path_49" stroke="#A81E38" stroke-width="1.07999991" stroke-linecap="round" stroke-linejoin="round"></path>
                                        </g>
                                        <path d="M35.1276876,47.8948679 L66.8062236,47.7310963 C68.5246457,47.7222124 69.9105002,49.1080669 69.9016163,50.826489 L69.8963758,51.8401588 C69.8874919,53.5585808 68.4872338,54.958839 66.7688117,54.9677229 L35.0902757,55.1314945 C34.5783416,55.1341411 34.1654825,54.721282 34.1681291,54.2093479 L34.1959848,48.821178 C34.1986314,48.3092439 34.6157815,47.8920938 35.1277156,47.8894472 L35.1276876,47.8948679 Z" id="_Rectangle_5" stroke="#A81E38" stroke-width="1.07999991" fill="#E07779" fill-rule="nonzero" stroke-linecap="round" stroke-linejoin="round" transform="translate(52.034888, 51.431280) rotate(45.000000) translate(-52.034888, -51.431280) "></path>
                                        <path d="M58.2195513,59.9988482 L59.0477564,60.818534" id="_Path_50" stroke="#A81E38" stroke-width="1.07999991" fill="#E07779" fill-rule="nonzero" stroke-linecap="round" stroke-linejoin="round"></path>
                                        <path d="M55.0048077,56.8117801 L56.7538462,58.5482199" id="_Path_51" stroke="#A81E38" stroke-width="1.07999991" fill="#E07779" fill-rule="nonzero" stroke-linecap="round" stroke-linejoin="round"></path>
                                        <path d="M39.5467949,41.5181675 L53.4246795,55.2532984" id="_Path_52" stroke="#A81E38" stroke-width="1.07999991" fill="#E07779" fill-rule="nonzero" stroke-linecap="round" stroke-linejoin="round"></path>
                                    </g>
                                </g>
                            </g>
                            <path d="M50.7275641,67.947644 L49.4035256,67.947644 L49.4035256,66.6372251 C49.4035256,66.4719301 49.2681348,66.3379319 49.1011218,66.3379319 C48.9341088,66.3379319 48.7987179,66.4719301 48.7987179,66.6372251 L48.7987179,67.947644 L47.4746795,67.947644 C47.3076665,67.947644 47.1722756,68.0816421 47.1722756,68.2469372 C47.1722756,68.4122322 47.3076665,68.5462304 47.4746795,68.5462304 L48.7987179,68.5462304 L48.7987179,69.8566492 C48.7987179,70.0219443 48.9341088,70.1559424 49.1011218,70.1559424 C49.2681348,70.1559424 49.4035256,70.0219443 49.4035256,69.8566492 L49.4035256,68.5462304 L50.7275641,68.5462304 C50.8945771,68.5462304 51.0299679,68.4122322 51.0299679,68.2469372 C51.0299679,68.0816421 50.8945771,67.947644 50.7275641,67.947644 Z" id="_Path_53" fill="#A81E37" fill-rule="nonzero"></path>
                            <path d="M38.8166667,81.3969634 L36.8387821,81.3969634 L36.8387821,79.4394241 C36.838782,79.0224636 36.4972556,78.6844504 36.0759615,78.6844504 C35.6546675,78.6844504 35.3131411,79.0224636 35.313141,79.4394241 L35.313141,81.3969634 L33.3352564,81.3969634 C32.9139623,81.3969634 32.5724359,81.7349766 32.5724359,82.1519372 C32.5724359,82.5688977 32.9139623,82.906911 33.3352564,82.906911 L35.313141,82.906911 L35.313141,84.8644503 C35.3131411,85.2814107 35.6546675,85.6194239 36.0759615,85.6194239 C36.4972556,85.6194239 36.838782,85.2814107 36.8387821,84.8644503 L36.8387821,82.9284817 L38.8166667,82.9284817 C39.2439793,82.9284817 39.5903846,82.5856396 39.5903846,82.1627225 C39.5903846,81.7398054 39.2439793,81.3969634 38.8166667,81.3969634 L38.8166667,81.3969634 Z" id="_Path_54" fill="#A81E37" fill-rule="nonzero"></path>
                        </g>
                    </g>
                </g>
            </g>
        </g>
    </g>
</svg>