<?xml version="1.0" encoding="UTF-8"?>
<svg width="74px" height="93px" viewBox="0 0 74 93" version="1.1" xmlns="http://www.w3.org/2000/svg" xmlns:xlink="http://www.w3.org/1999/xlink">
    <!-- Generator: Sketch 54.1 (76490) - https://sketchapp.com -->
    <title>8-Logistika</title>
    <desc>Created with Sketch.</desc>
    <g id="1-UI" stroke="none" stroke-width="1" fill="none" fill-rule="evenodd">
        <g id="1.1.1-Homepage" transform="translate(-1092.000000, -1319.000000)">
            <g id="2-Servisi" transform="translate(120.000000, 840.000000)">
                <g id="Logistika" transform="translate(933.000000, 449.000000)">
                    <g id="8-Logistika" transform="translate(24.000000, 24.000000)">
                        <rect id="Background" x="0" y="0" width="104" height="104"></rect>
                        <g id="8-Logistika-IVIS" transform="translate(16.000000, 4.000000)">
                            <g id="_Group_2" opacity="0.06" transform="translate(5.500000, 0.000000)" fill="#CD2037" fill-rule="nonzero">
                                <path d="M-1.64750894,22.3069547 L55.6825431,22.1588171 C58.1871461,22.1523453 60.2227744,24.1774808 60.2292461,26.6820838 C60.2292663,26.6898957 60.2292663,26.6977076 60.2292461,26.7055196 L60.2285505,26.974763 C60.2221026,29.4702187 58.2007394,31.4915821 55.7052837,31.4980302 L-1.62476833,31.6461679 C-4.1293713,31.6526397 -6.16499958,29.6275042 -6.17147134,27.1229012 C-6.17149152,27.1150893 -6.17149152,27.1072773 -6.17147134,27.0994654 L-6.17077566,26.830222 C-6.16432782,24.3347663 -4.14296459,22.3134029 -1.64750894,22.3069547 Z" id="_Rectangle_" transform="translate(27.028887, 26.902492) rotate(-44.760000) translate(-27.028887, -26.902492) "></path>
                                <g id="_Group_3" transform="translate(10.500000, 32.165803)">
                                    <path d="M17.565,6.70455959 L17.565,6.70455959 C16.6947628,5.82365037 16.2084611,4.63122794 16.21315,3.3897934 C16.2178388,2.14835885 16.7131337,0.959682369 17.59,0.0854404145 L0.205,17.4197927 C1.08136844,16.5450466 2.26764437,16.0562252 3.50267976,16.0609383 C4.73771516,16.0656514 5.92026445,16.5635126 6.79,17.4449223 L6.79,17.4449223 C7.66023719,18.3258315 8.14653885,19.5182539 8.14185003,20.7596885 C8.13716121,22.001123 7.64186629,23.1897995 6.765,24.0640415 L24.16,6.73471503 C23.2825601,7.61188292 22.0937606,8.10175745 20.8562709,8.09609907 C19.6187812,8.09044068 18.4344645,7.58971515 17.565,6.70455959 L17.565,6.70455959 Z" id="_Path_"></path>
                                </g>
                                <g id="_Group_4" transform="translate(19.500000, 39.704663)">
                                    <path d="M26.835,7.0161658 L26.835,7.0161658 C25.9647628,6.13525659 25.4784611,4.94283416 25.48315,3.70139961 C25.4878388,2.45996507 25.9831337,1.27128859 26.86,0.397046632 L0.465,26.7076684 C1.34136844,25.8329222 2.52764437,25.3441008 3.76267976,25.348814 C4.99771516,25.3535271 6.18026445,25.8513883 7.05,26.7327979 L7.05,26.7327979 C7.92023719,27.6137071 8.40653885,28.8061296 8.40185003,30.0475641 C8.39716121,31.2889987 7.90186629,32.4776751 7.025,33.3519171 L33.42,7.04129534 C32.5436316,7.91604153 31.3573556,8.40486289 30.1223202,8.40014977 C28.8872848,8.39543666 27.7047356,7.89757544 26.835,7.0161658 L26.835,7.0161658 Z" id="_Path_2"></path>
                                </g>
                                <path d="M5.19830459,45.9057248 L54.0566489,45.7794775 C56.5612518,45.7730058 58.5968801,47.7981413 58.6033519,50.3027442 C58.6033721,50.3105561 58.6033721,50.3183681 58.6033519,50.32618 L58.6026562,50.5954235 C58.5962084,53.0908791 56.5748451,55.1122426 54.0793895,55.1186907 L5.22104521,55.244938 C2.71644223,55.2514097 0.680813956,53.2262742 0.674342201,50.7216712 C0.674322015,50.7138593 0.674322015,50.7060474 0.674342199,50.6982354 L0.675037879,50.428992 C0.681485719,47.9335363 2.70284895,45.9121729 5.19830459,45.9057248 Z" id="_Rectangle_2" transform="translate(29.638847, 50.512208) rotate(-44.760000) translate(-29.638847, -50.512208) "></path>
                                <path d="M7.50949533,65.4547314 L65.3520943,65.3052769 C67.8566972,65.2988055 69.8923252,67.3239412 69.8987967,69.8285442 C69.8988169,69.8363556 69.8988169,69.8441671 69.8987967,69.8519785 L69.898172,70.0937698 C69.8917247,72.5892261 67.8703609,74.6105902 65.3749047,74.617038 L7.53230575,74.7664925 C5.02770277,74.772964 2.99207475,72.7478282 2.98560333,70.2432252 C2.98558314,70.2354138 2.98558314,70.2276024 2.98560332,70.219791 L2.98622802,69.9779996 C2.99267534,67.4825433 5.01403909,65.4611792 7.50949533,65.4547314 Z" id="_Rectangle_3" transform="translate(36.442200, 70.035885) rotate(-44.593654) translate(-36.442200, -70.035885) "></path>
                            </g>
                            <g id="_Group_5" transform="translate(0.000000, 8.544041)">
                                <path d="M42.66,16.057772 L41.625,16.057772 L41.625,15.0174093 C41.625,14.8869499 41.5197869,14.7811917 41.39,14.7811917 C41.2602131,14.7811917 41.155,14.8869499 41.155,15.0174093 L41.155,16.057772 L40.12,16.057772 C39.9902131,16.0577721 39.8850001,16.1635303 39.8850001,16.2939896 C39.8850001,16.424449 39.9902131,16.5302072 40.12,16.5302073 L41.155,16.5302073 L41.155,17.5705699 C41.155,17.7010293 41.2602131,17.8067876 41.39,17.8067876 C41.5197869,17.8067876 41.625,17.7010293 41.625,17.5705699 L41.625,16.5302073 L42.66,16.5302073 C42.7897869,16.5302073 42.895,16.424449 42.895,16.2939896 C42.895,16.1635303 42.7897869,16.057772 42.66,16.057772 Z" id="_Path_3" fill="#A81E37" fill-rule="nonzero"></path>
                                <path d="M26.205,53.7520725 L25.155,53.7520725 L25.155,52.7117098 C25.155,52.5812505 25.0497869,52.4754922 24.92,52.4754922 C24.7902131,52.4754922 24.685,52.5812505 24.685,52.7117098 L24.685,53.7520725 L23.655,53.7520725 C23.5252131,53.7520725 23.42,53.8578308 23.42,53.9882902 C23.42,54.1187495 23.5252131,54.2245078 23.655,54.2245078 L24.705,54.2245078 L24.705,55.2648705 C24.705,55.3953299 24.8102131,55.5010881 24.94,55.5010881 C25.0697869,55.5010881 25.175,55.3953299 25.175,55.2648705 L25.175,54.2245078 L26.205,54.2245078 C26.3347869,54.2245078 26.44,54.1187495 26.44,53.9882902 C26.44,53.8578308 26.3347869,53.7520725 26.205,53.7520725 Z" id="_Path_4" fill="#A81E37" fill-rule="nonzero"></path>
                                <path d="M29.545,58.4814508 L27.705,58.4814508 L27.705,56.6419689 C27.705,56.4101953 27.5180789,56.2223057 27.2875,56.2223057 C27.0569211,56.2223057 26.87,56.4101953 26.87,56.6419689 L26.87,58.4814508 L25.04,58.4814508 C24.8094211,58.4814508 24.6225,58.6693404 24.6225,58.901114 C24.6225,59.1328876 24.8094211,59.3207772 25.04,59.3207772 L26.87,59.3207772 L26.87,61.1602591 C26.87,61.3920327 27.0569211,61.5799223 27.2875,61.5799223 C27.5180789,61.5799223 27.705,61.3920327 27.705,61.1602591 L27.705,59.3207772 L29.535,59.3207772 C29.7655789,59.3235529 29.9547386,59.1379135 29.9575,58.9061399 C29.9602614,58.6743663 29.7755789,58.4842265 29.545,58.4814508 L29.545,58.4814508 Z" id="_Path_5" fill="#A81E37" fill-rule="nonzero"></path>
                                <path d="M47.205,20.4001554 L45.55,20.4001554 L45.55,18.7365803 C45.55,18.3826745 45.2645815,18.0957772 44.9125,18.0957772 C44.5604185,18.0957772 44.275,18.3826745 44.275,18.7365803 L44.275,20.4001554 L42.62,20.4001554 C42.2679185,20.4001554 41.9825,20.6870528 41.9825,21.0409585 C41.9825,21.3948643 42.2679185,21.6817617 42.62,21.6817617 L44.275,21.6817617 L44.275,23.3453368 C44.275,23.6992426 44.5604185,23.9861399 44.9125,23.9861399 C45.2645815,23.9861399 45.55,23.6992426 45.55,23.3453368 L45.55,21.6817617 L47.205,21.6817617 C47.5570815,21.6817617 47.8425,21.3948643 47.8425,21.0409585 C47.8425,20.6870528 47.5570815,20.4001554 47.205,20.4001554 Z" id="_Path_6" fill="#A81E37" fill-rule="nonzero"></path>
                                <path d="M63.85,46.7258549 L62.305,46.7258549 L62.305,45.1778756 C62.2768413,44.8700829 62.0199982,44.6345613 61.7125,44.6345613 C61.4050018,44.6345613 61.1481587,44.8700829 61.12,45.1778756 L61.12,46.7258549 L59.58,46.7258549 C59.3553249,46.7050868 59.1382923,46.8138428 59.0195617,47.0066931 C58.9008311,47.1995434 58.9008311,47.4433064 59.0195617,47.6361567 C59.1382923,47.8290069 59.3553249,47.937763 59.58,47.9169948 L61.12,47.9169948 L61.12,49.4649741 C61.1481587,49.7727668 61.4050018,50.0082884 61.7125,50.0082884 C62.0199982,50.0082884 62.2768413,49.7727668 62.305,49.4649741 L62.305,47.9169948 L63.845,47.9169948 C64.0695742,47.9386925 64.2870394,47.8308513 64.406565,47.6385142 C64.5260905,47.4461771 64.5271137,47.2024332 64.4092071,47.0090891 C64.2913005,46.8157449 64.0747484,46.706063 63.85,46.7258549 L63.85,46.7258549 Z" id="_Path_7" fill="#A81E37" fill-rule="nonzero"></path>
                                <g id="_Group_6" transform="translate(14.000000, 16.585492)">
                                    <g id="_Group_7">
                                        <polyline id="_Path_8" fill="#E07778" fill-rule="nonzero" points="23.505 27.16 19.11 29.0045078 13.95 25.9839378 13.965 16.2135751 13.9 16.2537824 0.585 8.17212435 14.125 0.316632124 27.375 8.17212435 27.39 15.7461658 23.535 15.0023316 23.505 27.16"></polyline>
                                        <polyline id="_Path_9" stroke="#A81E38" stroke-linecap="round" stroke-linejoin="round" points="11.745 31.5124352 0.395 24.9284974 0.395 8.26761658 13.95 16.1381865 13.95 25.8482383"></polyline>
                                        <polyline id="_Path_10" stroke="#A81E38" stroke-linecap="round" stroke-linejoin="round" points="27.47 15.7461658 27.49 8.26761658 13.94 16.1381865"></polyline>
                                        <polyline id="_Path_12" stroke="#A81E38" stroke-linecap="round" stroke-linejoin="round" points="0.435 8.23243523 13.99 0.366891192 13.995 0.376943005 27.545 8.24248705"></polyline>
                                        <polygon id="_Path_13" fill="#A81E38" fill-rule="nonzero" points="22.01 11.2982383 22.17 11.1876684 8.71 3.40253886 7.39 4.35746114 20.795 12.1476166 20.835 12.1174611 20.825 17.299171 22.305 16.4648705 22.35 11.4640933"></polygon>
                                    </g>
                                    <g id="_Group_8" transform="translate(23.000000, 9.549223)">
                                        <polygon id="_Path_14" fill="#E07778" fill-rule="nonzero" points="20.455 18.5556477 20.43 5.9707772 10.555 0.115595855 0.46 5.9707772 10.385 11.9968394 10.435 11.9666839 10.515 24.2952332"></polygon>
                                        <polygon id="_Path_15" stroke="#A81E38" stroke-linecap="round" stroke-linejoin="round" points="0.32 18.4601554 0.32 6.0461658 10.42 11.9063731 10.42 24.3253886"></polygon>
                                        <polyline id="_Path_16" stroke="#A81E38" stroke-linecap="round" stroke-linejoin="round" points="10.415 24.3253886 20.515 18.4601554 20.515 6.0461658 10.415 11.9063731"></polyline>
                                        <polyline id="_Path_17" stroke="#A81E38" stroke-linecap="round" stroke-linejoin="round" points="0.345 6.01601036 10.45 0.155803109 10.455 0.160829016 20.56 6.02606218"></polyline>
                                    </g>
                                    <g id="_Group_9" transform="translate(11.500000, 20.103627)">
                                        <polygon id="_Path_18" fill="#E07778" fill-rule="nonzero" points="14.855 13.6654404 14.835 4.56352332 7.695 0.331709845 0.395 4.56352332 7.575 8.92098446 7.61 8.90088083 7.67 17.8168394"></polygon>
                                        <polygon id="_Path_19" stroke="#A81E38" stroke-linecap="round" stroke-linejoin="round" points="0.295 13.6001036 0.295 4.61880829 7.6 8.86067358 7.6 17.836943"></polygon>
                                        <polyline id="_Path_20" stroke="#A81E38" stroke-linecap="round" stroke-linejoin="round" points="7.595 17.836943 14.9 13.6001036 14.9 4.61880829 7.595 8.86067358"></polyline>
                                        <polyline id="_Path_21" stroke="#A81E38" stroke-linecap="round" stroke-linejoin="round" points="0.315 4.59870466 7.62 0.361865285 7.625 0.366891192 14.93 4.60373057"></polyline>
                                        <polygon id="_Path_22" fill="#A81E38" fill-rule="nonzero" points="12.35 6.13663212 12.5 6.02606218 5.08 1.73393782 3.64 2.56321244 11.17 6.95082902 11.215 6.92569948 11.2 10.2327461 12.635 9.42357513 12.68 6.29243523"></polygon>
                                    </g>
                                    <polygon id="_Path_23" fill="#A81E38" fill-rule="nonzero" points="39.3 17.8419689 39.455 17.7364249 29.47 11.9415544 28.08 12.7306218 38.125 18.6611917 38.165 18.6310363 38.155 23.2196891 39.59 22.4105181 39.63 17.997772"></polygon>
                                </g>
                                <g id="_Group_10" transform="translate(33.500000, 0.000000)" stroke="#A81E38" stroke-linecap="round" stroke-linejoin="round" stroke-width="1.5">
                                    <polyline id="_Path_24" points="0 2.87984456 2.475 0.386994819 4.955 2.87984456"></polyline>
                                    <path d="M2.475,10.2779793 L2.475,11.2982383" id="_Path_25"></path>
                                    <path d="M2.475,0.386994819 L2.475,7.77507772" id="_Path_26"></path>
                                </g>
                                <g id="_Group_11" transform="translate(33.500000, 60.813472)" stroke="#A81E38" stroke-linecap="round" stroke-linejoin="round" stroke-width="1.5">
                                    <polyline id="_Path_27" points="4.955 8.90590674 2.475 11.3987565 0 8.90590674"></polyline>
                                    <path d="M2.475,1.50777202 L2.475,0.487512953" id="_Path_28"></path>
                                    <path d="M2.475,11.3987565 L2.475,4.01067358" id="_Path_29"></path>
                                </g>
                                <g id="_Group_12" transform="translate(60.500000, 33.673575)" stroke="#A81E38" stroke-linecap="round" stroke-linejoin="round" stroke-width="1.5">
                                    <polyline id="_Path_30" points="8.725 0.135699482 11.205 2.62854922 8.725 5.11637306"></polyline>
                                    <path d="M1.365,2.62854922 L0.35,2.62854922" id="_Path_31"></path>
                                    <path d="M11.205,2.62854922 L3.855,2.62854922" id="_Path_32"></path>
                                </g>
                                <g id="_Group_13" transform="translate(0.000000, 33.673575)" stroke="#A81E38" stroke-linecap="round" stroke-linejoin="round" stroke-width="1.5">
                                    <polyline id="_Path_33" points="2.73 5.11637306 0.25 2.62854922 2.73 0.135699482"></polyline>
                                    <path d="M10.09,2.62854922 L11.105,2.62854922" id="_Path_34"></path>
                                    <path d="M0.25,2.62854922 L7.6,2.62854922" id="_Path_35"></path>
                                </g>
                                <g id="_Group_14" transform="translate(53.500000, 10.554404)" stroke="#A81E38" stroke-linecap="round" stroke-linejoin="round" stroke-width="1.5">
                                    <polyline id="_Path_36" points="4.235 0.351813472 7.74 0.351813472 7.74 3.87497409"></polyline>
                                    <path d="M0.85,7.25238342 L0.065,8.06658031" id="_Path_37"></path>
                                    <path d="M7.74,0.351813472 L2.54,5.57875648" id="_Path_38"></path>
                                </g>
                                <g id="_Group_15" transform="translate(10.500000, 53.777202)" stroke="#A81E38" stroke-linecap="round" stroke-linejoin="round" stroke-width="1.5">
                                    <polyline id="_Path_39" points="3.72 7.91580311 0.215 7.91580311 0.215 4.39264249"></polyline>
                                    <path d="M7.11,0.959948187 L7.89,0.201036269" id="_Path_40"></path>
                                    <path d="M0.215,7.91580311 L5.41,2.69388601" id="_Path_41"></path>
                                </g>
                                <g id="_Group_16" transform="translate(53.500000, 53.777202)" stroke="#A81E38" stroke-linecap="round" stroke-linejoin="round" stroke-width="1.5">
                                    <polyline id="_Path_42" points="7.74 4.39264249 7.74 7.91580311 4.235 7.91580311"></polyline>
                                    <path d="M0.905,0.959948187 L0.065,0.201036269" id="_Path_43"></path>
                                    <path d="M7.74,7.91580311 L2.54,2.69388601" id="_Path_44"></path>
                                </g>
                                <g id="_Group_17" transform="translate(10.500000, 10.554404)" stroke="#A81E38" stroke-linecap="round" stroke-linejoin="round" stroke-width="1.5">
                                    <polyline id="_Path_45" points="0.215 3.87497409 0.215 0.351813472 3.72 0.351813472"></polyline>
                                    <path d="M7.055,7.30766839 L7.89,8.06658031" id="_Path_46"></path>
                                    <path d="M0.215,0.351813472 L5.41,5.57875648" id="_Path_47"></path>
                                </g>
                            </g>
                        </g>
                    </g>
                </g>
            </g>
        </g>
    </g>
</svg>