<svg xmlns="http://www.w3.org/2000/svg" width="130" height="64"><g fill="none" fill-rule="evenodd"><path fill="#262629" d="M0 0h130v64H0z"/><g fill-rule="nonzero"><g transform="translate(0 3)"><path fill="#A81E36" d="M12.219 17.829c.241-.212.408-.338.408-.338-.146.1-.283.213-.408.338ZM52.675 4.095c.786-.09 1.396.59 1.855 1.836-.136-.595-.963-3.651-3.786-4.438a20.01 20.01 0 0 0-4.536 4.035c-2.909 3.308-8.57 14.121-11.433 18.595l1.608 2.224C39.115 22.07 47.962 4.65 52.675 4.095Z"/><path fill="#CC2036" d="M61.808 27.437c0-15.766-2.52-24.476-5.635-26.302-1.744-1.009-3.569-.752-5.429.358 2.823.792 3.655 3.848 3.786 4.438 2.495 6.738.151 29.252-2.354 34.608-2.939 6.285-8.76-4.307-14.532-12.462l-1.24-1.745-1.613-2.224C30.254 17.99 26.17 13.643 20 12.76c-7.435-1.064-9.426 3.42-9.426 3.42a8.16 8.16 0 0 0-.216 4.034 7.887 7.887 0 0 1 1.85-2.365c.125-.125.262-.238.408-.338 4.577-3.177 6.86.772 13.554 11.973l1.96 3.263 1.009 1.695C41.061 54.056 47.543 57.607 51.384 57.53c3.841-.076 10.44-12.452 10.424-30.094Z"/><path fill="#A81E36" d="M12.219 17.829a7.887 7.887 0 0 0-1.85 2.365c.902 4.796 5.635 9.119 9.28 11.479 2.616 1.695 5.927 1.574 8.493 1.054l-1.96-3.263c-5.53-1.22-17.386-8.251-13.963-11.635Z"/><ellipse cx="5.64" cy="9.825" fill="#A81E36" rx="5.64" ry="3.566"/></g><g fill="#FFF"><path d="M76.171 15.845v17.1h-3.657v-17.1zM98.02 15.845l-6.295 17.1H88.86l-6.294-17.1h3.888l3.828 10.405 3.848-10.405h3.89zM108.055 15.845v17.1H104.4v-17.1zM118.884 27.7c1.116 1.423 2.384 2.135 3.803 2.135a3.962 3.962 0 0 0 2.017-.465c.517-.274.828-.82.797-1.4a1.462 1.462 0 0 0-.943-1.245l-4.035-.975a6.382 6.382 0 0 1-2.99-1.875 4.245 4.245 0 0 1-1.13-2.85 5.165 5.165 0 0 1 1.83-4.145 6.372 6.372 0 0 1 4.257-1.555A7.914 7.914 0 0 1 128.648 18l-2.844 2.26a4.051 4.051 0 0 0-3.117-1.325 3.138 3.138 0 0 0-1.932.5c-.418.28-.673.745-.68 1.245 0 .69.474 1.237 1.422 1.64l4.034.955c2.411.897 3.617 2.452 3.617 4.665a5.234 5.234 0 0 1-1.675 3.845c-1.116 1.1-2.72 1.65-4.811 1.65-2.845 0-5.116-1.243-6.814-3.73l3.036-2.005ZM76.983 38.32a2.522 2.522 0 0 0-.847-.585 2.749 2.749 0 0 0-1.145-.245 2.03 2.03 0 0 0-1.322.405 1.19 1.19 0 0 0-.136 1.815c.25.25.559.435.898.54l1.916.525c.438.122.829.369 1.125.71a1.953 1.953 0 0 1-.297 2.76 2.998 2.998 0 0 1-2.018.625 3.504 3.504 0 0 1-1.81-.455 3.356 3.356 0 0 1-1.206-1.165l.605-.38c.255.414.62.75 1.055.97a2.9 2.9 0 0 0 1.336.34c.55.04 1.096-.119 1.538-.445.311-.241.496-.609.505-1a1.234 1.234 0 0 0-.303-.825 1.591 1.591 0 0 0-.842-.5l-1.796-.5a2.955 2.955 0 0 1-1.286-.785 1.806 1.806 0 0 1-.504-1.285 1.849 1.849 0 0 1 .69-1.435 2.663 2.663 0 0 1 1.827-.605 3.455 3.455 0 0 1 2.602 1.125l-.585.395ZM87.085 40.83a4.039 4.039 0 0 1-3.273 3.952 4.072 4.072 0 0 1-4.548-2.411 4.01 4.01 0 0 1 1.498-4.893 4.092 4.092 0 0 1 5.133.502 3.878 3.878 0 0 1 1.19 2.85Zm-4.065-3.34a3.362 3.362 0 0 0-3.323 2.664 3.334 3.334 0 0 0 1.985 3.751c1.48.622 3.195.121 4.1-1.196a3.318 3.318 0 0 0-.381-4.219 3.272 3.272 0 0 0-2.381-.99v-.01ZM89.158 44.64h-.696v-7.61h4.655v.69h-3.959v2.78h3.026v.69h-3.026v3.46zM95.583 37.725h-2.214v-.69h5.119v.69h-2.204v6.92h-.696v-6.92zM104.016 38.275l1.871 5.075 2.325-6.32h.747l-2.8 7.61h-.539l-1.836-5.045-1.861 5.045h-.54l-2.799-7.61h.747l2.325 6.32 1.871-5.075h.504zM115.47 43.5h-5.13l-.54 1.155h-.77l3.58-7.61h.595l3.591 7.61h-.782l-.544-1.155Zm-.328-.69-2.244-4.75-2.245 4.75h4.489ZM121.36 42.67a2.99 2.99 0 0 1-.882.13h-1.982v1.845h-.696V37.03h2.678a2.91 2.91 0 0 1 2.678 1.779 2.867 2.867 0 0 1-.62 3.136c-.163.164-.344.31-.54.435l1.165 2.26h-.782l-1.018-1.97Zm-.882-4.945h-1.982v4.38h1.982a2.2 2.2 0 0 0 2.209-2.19 2.2 2.2 0 0 0-2.21-2.19ZM129.662 37.03v.69h-3.954v2.78h3.026v.69h-3.026v2.77h3.954v.69h-4.655v-7.62z"/></g></g></g></svg>