<?xml version="1.0" encoding="UTF-8"?>
<svg width="87px" height="92px" viewBox="0 0 87 92" version="1.1" xmlns="http://www.w3.org/2000/svg" xmlns:xlink="http://www.w3.org/1999/xlink">
    <!-- Generator: Sketch 54.1 (76490) - https://sketchapp.com -->
    <title>2=Nabava-Ivis</title>
    <desc>Created with Sketch.</desc>
    <g id="1-UI" stroke="none" stroke-width="1" fill="none" fill-rule="evenodd">
        <g id="1.1.1-Homepage" transform="translate(-462.000000, -981.000000)">
            <g id="2-Servisi" transform="translate(120.000000, 840.000000)">
                <g id="Nabava" transform="translate(311.000000, 111.000000)">
                    <g id="2=Nabava-Ivis" transform="translate(24.000000, 24.000000)">
                        <rect id="Background" x="0" y="0" width="104" height="104"></rect>
                        <g id="Icon" transform="translate(7.000000, 4.000000)">
                            <g id="_Group_2" opacity="0.06" transform="translate(22.961373, 0.000000)" fill="#CD2037" fill-rule="nonzero">
                                <path d="M-1.27605137,22.1946807 L55.9787293,22.2360161 C58.5674091,22.237885 60.6654821,24.335958 60.6673511,26.9246378 L60.6673511,26.9246378 C60.6692165,29.5084903 58.5761024,31.6046289 55.9922498,31.6064944 C55.989998,31.606496 55.9877462,31.606496 55.9854945,31.6064944 L-1.26928622,31.565159 C-3.85796597,31.5632901 -5.95603903,29.4652171 -5.95790796,26.8765373 L-5.95790796,26.8765373 C-5.95977341,24.2926848 -3.86665928,22.1965461 -1.28280671,22.1946807 C-1.28055493,22.1946791 -1.27830315,22.1946791 -1.27605137,22.1946807 Z" id="_Rectangle_" transform="translate(27.354722, 26.900588) rotate(-44.760000) translate(-27.354722, -26.900588) "></path>
                                <g id="_Group_3" transform="translate(10.570226, 32.167539)">
                                    <path d="M17.8234142,6.70492147 L17.8234142,6.70492147 C16.9473567,5.82396471 16.4578026,4.63147792 16.4625228,3.38997636 C16.467243,2.14847481 16.9658505,0.959734169 17.8485814,0.0854450262 L0.33724054,17.4157068 C1.21947029,16.5409134 2.41368024,16.0520657 3.65697578,16.056779 C4.90027132,16.0614924 6.0907297,16.5593805 6.96628221,17.4408377 L6.96628221,17.4408377 C7.8423397,18.3217945 8.33189383,19.5142812 8.32717365,20.7557828 C8.32245347,21.9972844 7.82384593,23.186025 6.941115,24.0603141 L24.4524559,6.73005236 C23.5702261,7.60484577 22.3760162,8.09369351 21.1327207,8.08898014 C19.8894251,8.08426677 18.6989667,7.58637868 17.8234142,6.70492147 Z" id="_Path_"></path>
                                </g>
                                <g id="_Group_4" transform="translate(20.133764, 39.706806)">
                                    <path d="M26.6722033,7.01151832 L26.6722033,7.01151832 C25.7961458,6.13056156 25.3065917,4.93807477 25.3113119,3.69657322 C25.3160321,2.45507167 25.8146396,1.26633103 26.6973705,0.392041885 L0.125836023,26.7040838 C1.00806578,25.8292904 2.20227572,25.3404426 3.44557126,25.345156 C4.6888668,25.3498694 5.87932519,25.8477574 6.75487769,26.7292147 L6.75487769,26.7292147 C7.63093518,27.6101714 8.12048932,28.8026582 8.11576914,30.0441598 C8.11104896,31.2856613 7.61244141,32.474402 6.72971048,33.3486911 L33.301245,7.03664921 C32.4190152,7.91144262 31.2248053,8.40029037 29.9815098,8.395577 C28.7382142,8.39086363 27.5477558,7.89297554 26.6722033,7.01151832 L26.6722033,7.01151832 Z" id="_Path_2"></path>
                                </g>
                                <path d="M5.60157885,45.8087387 L54.3559301,45.8439372 C56.9446099,45.8458061 59.0426829,47.9438791 59.0445519,50.5325589 L59.0445519,50.5325589 C59.0464173,53.1164115 56.9533032,55.2125501 54.3694506,55.2144155 C54.3671988,55.2144172 54.3649471,55.2144172 54.3626953,55.2144155 L5.60834399,55.1792171 C3.01966425,55.1773482 0.921591183,53.0792751 0.919722251,50.4905954 L0.919722251,50.4905954 C0.917856803,47.9067428 3.01097093,45.8106042 5.59482351,45.8087387 C5.59707529,45.8087371 5.59932707,45.8087371 5.60157885,45.8087387 Z" id="_Rectangle_2" transform="translate(29.982137, 50.511577) rotate(-44.760000) translate(-29.982137, -50.511577) "></path>
                                <path d="M8.80795795,63.8209264 L66.7769759,63.8627774 C69.3656556,63.8646463 71.4637287,65.9627193 71.4655976,68.5513991 L71.4655976,68.5513991 C71.4674631,71.1352517 69.374349,73.2313903 66.7904964,73.2332557 C66.7882446,73.2332573 66.7859928,73.2332573 66.783741,73.2332557 L8.81472309,73.1914047 C6.22604334,73.1895358 4.12797028,71.0914628 4.12610135,68.502783 L4.12610135,68.502783 C4.1242359,65.9189304 6.21735003,63.8227918 8.8012026,63.8209264 C8.80345438,63.8209247 8.80570617,63.8209247 8.80795795,63.8209264 Z" id="_Rectangle_3" transform="translate(37.795849, 68.527091) rotate(-44.760000) translate(-37.795849, -68.527091) "></path>
                            </g>
                            <g id="_Group_5" transform="translate(-0.000000, 8.000000)">
                                <path d="M33.6183518,55.3532984 C30.9746739,55.3532984 28.8315495,57.4933304 28.8315495,60.1331937 C28.8315495,62.773057 30.9746739,64.913089 33.6183518,64.913089 C36.2620297,64.913089 38.4051541,62.773057 38.4051541,60.1331937 C38.4051541,57.4933304 36.2620297,55.3532984 33.6183518,55.3532984 Z M33.6183518,63.7369634 C31.6223889,63.7369634 30.0043412,62.1212504 30.0043412,60.1281675 C30.0043412,58.1350846 31.6223889,56.5193717 33.6183518,56.5193717 C35.6143147,56.5193717 37.2323623,58.1350846 37.2323623,60.1281675 C37.2323623,62.1212504 35.6143147,63.7369634 33.6183518,63.7369634 Z" id="_Compound_Path_" fill="#E07778" fill-rule="nonzero"></path>
                                <path d="M60.8240998,55.3532984 C58.888019,55.3532984 57.1425772,56.5178825 56.4016712,58.304007 C55.6607651,60.0901314 56.0703036,62.1460496 57.4393195,63.5130901 C58.8083353,64.8801306 60.8672243,65.2890781 62.6559298,64.5492411 C64.4446352,63.8094042 65.6109021,62.0664809 65.6109021,60.1331937 C65.6109021,57.4933304 63.4677777,55.3532984 60.8240998,55.3532984 Z M60.8240998,63.7369634 C59.362369,63.7369634 58.0445696,62.8577085 57.4851894,61.5091939 C56.9258093,60.1606793 57.2350087,58.6084719 58.2686085,57.5763635 C59.3022082,56.5442552 60.8566586,56.2355019 62.2071218,56.794075 C63.557585,57.352648 64.4381104,58.6685459 64.4381104,60.1281675 C64.4381104,62.1212504 62.8200628,63.7369634 60.8240998,63.7369634 Z" id="_Compound_Path_2" fill="#E07778" fill-rule="nonzero"></path>
                                <ellipse id="_Path_3" fill="#E07778" fill-rule="nonzero" cx="33.6183518" cy="60.1331937" rx="1.35902904" ry="1.35706806"></ellipse>
                                <ellipse id="_Path_4" fill="#E07778" fill-rule="nonzero" cx="60.8240998" cy="60.1331937" rx="1.35902904" ry="1.35706806"></ellipse>
                                <path d="M71.0067508,41.7926702 C71.7034463,41.8286314 72.3631984,41.4779386 72.7223597,40.8807341 C73.0815211,40.2835297 73.0815211,39.5372033 72.7223597,38.9399988 C72.3631984,38.3427943 71.7034463,37.9921016 71.0067508,38.0280628 L28.6251784,38.0280628 C26.2927985,38.0171163 24.2814094,36.3890089 23.7880417,34.1126702 L19.6757205,14.766911 C19.1440414,12.3105663 16.9727215,10.5542722 14.4560423,10.5449215 L3.81031476,10.5449215 C3.11361925,10.5089602 2.45386718,10.859653 2.09470579,11.4568575 C1.73554441,12.054062 1.73554441,12.8003883 2.09470579,13.3975928 C2.45386718,13.9947973 3.11361925,14.3454901 3.81031476,14.3095288 L14.4560423,14.3095288 C15.1860106,14.3210897 15.8117305,14.8334397 15.9660745,15.5459686 L20.0783958,34.8917277 C20.7448428,37.9282675 22.9754099,40.383326 25.937321,41.3403141 L23.8786436,46.0649215 C22.8512161,48.4527251 23.7289543,51.2317816 25.9423544,52.5989529 C27.3477373,53.4601453 28.9644793,53.9159375 30.6133876,53.9158115 L71.0067508,53.9158115 C71.7034463,53.9517728 72.3631984,53.60108 72.7223597,53.0038755 C73.0815211,52.406671 73.0815211,51.6603447 72.7223597,51.0631402 C72.3631984,50.4659357 71.7034463,50.1152429 71.0067508,50.1512042 L30.6133876,50.1512042 C29.6611722,50.1516776 28.727401,49.8889985 27.9154632,49.3922513 C27.299188,49.0090609 27.055417,48.2339628 27.341651,47.5677487 L29.8583714,41.7775916 L71.0067508,41.7775916 L71.0067508,41.7926702 Z" id="_Path_5" fill="#E07778" fill-rule="nonzero"></path>
                                <path d="M71.0067508,41.7926702 C71.7034463,41.8286314 72.3631984,41.4779386 72.7223597,40.8807341 C73.0815211,40.2835297 73.0815211,39.5372033 72.7223597,38.9399988 C72.3631984,38.3427943 71.7034463,37.9921016 71.0067508,38.0280628 L28.6251784,38.0280628 C26.2927985,38.0171163 24.2814094,36.3890089 23.7880417,34.1126702 L19.6757205,14.766911 C19.1440414,12.3105663 16.9727215,10.5542722 14.4560423,10.5449215 L3.81031476,10.5449215 C3.11361925,10.5089602 2.45386718,10.859653 2.09470579,11.4568575 C1.73554441,12.054062 1.73554441,12.8003883 2.09470579,13.3975928 C2.45386718,13.9947973 3.11361925,14.3454901 3.81031476,14.3095288 L14.4560423,14.3095288 C15.1860106,14.3210897 15.8117305,14.8334397 15.9660745,15.5459686 L20.0783958,34.8917277 C20.7448428,37.9282675 22.9754099,40.383326 25.937321,41.3403141 L23.8786436,46.0649215 C22.8512161,48.4527251 23.7289543,51.2317816 25.9423544,52.5989529 C27.3477373,53.4601453 28.9644793,53.9159375 30.6133876,53.9158115 L71.0067508,53.9158115 C71.7034463,53.9517728 72.3631984,53.60108 72.7223597,53.0038755 C73.0815211,52.406671 73.0815211,51.6603447 72.7223597,51.0631402 C72.3631984,50.4659357 71.7034463,50.1152429 71.0067508,50.1512042 L30.6133876,50.1512042 C29.6611722,50.1516776 28.727401,49.8889985 27.9154632,49.3922513 C27.299188,49.0090609 27.055417,48.2339628 27.341651,47.5677487 L29.8583714,41.7775916 L71.0067508,41.7775916 L71.0067508,41.7926702 Z" id="_Path_6" stroke="#A81E38" stroke-width="1.07999999" stroke-linecap="round"></path>
                                <polyline id="_Path_7" stroke="#A81E37" stroke-width="1.61999998" stroke-linecap="round" stroke-linejoin="round" points="70.7047443 6.19225131 70.7047443 12.8418848 75.1140386 12.8418848"></polyline>
                                <g id="_Group_6" transform="translate(47.817689, 16.586387)" stroke="#A81E37" stroke-width="1.07999999">
                                    <rect id="_Rectangle_4" x="0.256705486" y="0.0703664921" width="7.66593049" height="7.83078534" rx="2.15999997"></rect>
                                    <rect id="_Rectangle_5" x="0.256705486" y="10.8464921" width="7.66593049" height="7.83078534" rx="2.15999997"></rect>
                                </g>
                                <g id="_Group_7" transform="translate(36.240774, 16.586387)" stroke="#A81E37" stroke-width="1.07999999">
                                    <rect id="_Rectangle_6" x="0" y="0.0703664921" width="7.66593049" height="7.83078534" rx="2.15999997"></rect>
                                    <rect id="_Rectangle_7" x="0" y="10.8464921" width="7.66593049" height="7.83078534" rx="2.15999997"></rect>
                                </g>
                                <g id="_Group_8" transform="translate(23.657172, 16.586387)" stroke="#A81E37" stroke-width="1.07999999">
                                    <path d="M7.94780318,7.90115183 L2.56705486,7.90115183 C1.96899573,7.90127372 1.45347365,7.4810466 1.33386184,6.89591623 L0.266772368,1.57319372 C0.19118953,1.20344927 0.286024363,0.819361247 0.525068126,0.527076953 C0.764111888,0.234792659 1.12205125,0.0652632905 1.49996539,0.0653403141 L7.94780318,0.0653403141 C8.64277634,0.0653403141 9.20616341,0.62791445 9.20616341,1.32188482 L9.20616341,6.65968586 C9.19789399,7.34776055 8.63692176,7.90120138 7.94780318,7.90115183 Z" id="_Path_8"></path>
                                    <path d="M7.94780318,18.6772775 L4.77170197,18.6772775 C4.17364285,18.6773994 3.65812077,18.2571723 3.53850895,17.6720419 L2.47141948,12.3493194 C2.39583664,11.9795749 2.49067148,11.5954869 2.72971524,11.3032026 C2.968759,11.0109183 3.32669836,10.8413889 3.7046125,10.841466 L7.95283662,10.841466 C8.64780978,10.841466 9.21119685,11.4040401 9.21119685,12.0980105 L9.21119685,17.420733 C9.21119952,17.754862 9.07793194,18.0752331 8.84085386,18.3110259 C8.60377578,18.5468187 8.28241232,18.678614 7.94780318,18.6772775 L7.94780318,18.6772775 Z" id="_Path_9"></path>
                                </g>
                                <g id="_Group_9" transform="translate(58.891259, 16.586387)" stroke="#A81E37" stroke-width="1.07999999">
                                    <path d="M2.41605163,0.0703664921 L1.50499883,0.0703664921 C0.810025667,0.0703664921 0.246638604,0.632940628 0.246638604,1.32691099 L0.246638604,6.65968586 C0.246638604,7.35365623 0.810025667,7.91623037 1.50499883,7.91623037 L6.88071371,7.91623037 C7.47877284,7.91635225 7.99429492,7.49612514 8.11390673,6.91099476 L8.30014404,5.99120419" id="_Path_10" stroke-linecap="round"></path>
                                    <path d="M1.50499883,18.6772775 L4.68110004,18.6772775 C5.27915916,18.6773994 5.79468124,18.2571723 5.91429306,17.6720419 L6.98138253,12.3493194 C7.05696537,11.9795749 6.96213053,11.5954869 6.72308677,11.3032026 C6.48404301,11.0109183 6.12610365,10.8413889 5.74818951,10.841466 L1.50499883,10.841466 C0.810025667,10.841466 0.246638604,11.4040401 0.246638604,12.0980105 L0.246638604,17.420733 C0.246638604,18.1147034 0.810025667,18.6772775 1.50499883,18.6772775 L1.50499883,18.6772775 Z" id="_Path_11"></path>
                                </g>
                                <path d="M57.6681324,12.5956021 L58.2318778,12.5956021" id="_Path_12" stroke="#A81E37" stroke-width="1.07999999" stroke-linecap="round"></path>
                                <path d="M53.8678845,12.5956021 L55.7403245,12.5956021" id="_Path_13" stroke="#A81E37" stroke-width="1.07999999" stroke-linecap="round"></path>
                                <path d="M21.2260203,12.5956021 L51.3511641,12.5956021" id="_Path_14" stroke="#A81E37" stroke-width="1.07999999" stroke-linecap="round"></path>
                                <path d="M69.2802805,32.5243979 L71.2936569,23.5878534" id="_Path_15" stroke="#A81E37" stroke-width="1.07999999" stroke-linecap="round"></path>
                                <path d="M68.4547962,36.2035602 L68.8121705,34.6052356" id="_Path_16" stroke="#A81E37" stroke-width="1.07999999" stroke-linecap="round"></path>
                                <g id="_Group_10" transform="translate(28.690613, 55.287958)" stroke="#A81E38" stroke-width="1.07999999">
                                    <ellipse id="_Path_17" cx="4.92773864" cy="4.8452356" rx="4.7868023" ry="4.77989529"></ellipse>
                                    <ellipse id="_Path_18" cx="4.92773864" cy="4.8452356" rx="3.14590056" ry="3.14136126"></ellipse>
                                    <ellipse id="_Path_19" cx="4.92773864" cy="4.8452356" rx="1.35902904" ry="1.35706806"></ellipse>
                                </g>
                                <g id="_Group_11" transform="translate(55.871194, 55.287958)" stroke="#A81E38" stroke-width="1.07999999">
                                    <ellipse id="_Path_20" cx="4.95290585" cy="4.8452356" rx="4.7868023" ry="4.77989529"></ellipse>
                                    <ellipse id="_Path_21" cx="4.95290585" cy="4.8452356" rx="3.14590056" ry="3.14136126"></ellipse>
                                    <ellipse id="_Path_22" cx="4.95290585" cy="4.8452356" rx="1.35902904" ry="1.35706806"></ellipse>
                                </g>
                                <g id="_Group_12" transform="translate(61.407979, 2.010471)" stroke="#A81E37" stroke-width="1.07999999">
                                    <ellipse id="_Path_23" cx="9.84037696" cy="9.74575916" rx="9.60380524" ry="9.58994764"></ellipse>
                                    <path d="M14.9593864,15.8073298 C12.1121174,18.2078358 7.97642503,18.3090624 5.01479513,16.0507371 C2.05316523,13.7924118 1.06195065,9.78177577 2.63134324,6.40685353 C4.20073583,3.03193129 7.90874154,1.20020587 11.5475289,2.00232853 C15.1863162,2.80445119 17.7774514,6.02473912 17.7781133,9.74575916" id="_Path_24" stroke-linecap="round"></path>
                                    <path d="M17.2949029,12.4749738 C17.0287073,13.1947182 16.6590736,13.8719666 16.1976128,14.485445" id="_Path_25" stroke-linecap="round"></path>
                                </g>
                                <path d="M70.9262157,39.8374869 L61.7905205,39.8374869" id="_Path_26" stroke="#A81E37" stroke-width="1.07999999" stroke-linecap="round"></path>
                                <path d="M70.9262157,51.9907853 L61.7905205,51.9907853" id="_Path_27" stroke="#A81E37" stroke-width="1.07999999" stroke-linecap="round"></path>
                                <path d="M13.6053908,12.339267 L4.46969552,12.339267" id="_Path_28" stroke="#A81E37" stroke-width="1.07999999" stroke-linecap="round"></path>
                                <path d="M85.3570908,16.8477487 L84.1339646,16.8477487 L84.1339646,15.6263874 C84.1339646,15.472326 84.0088927,15.3474346 83.8546087,15.3474346 C83.7003246,15.3474346 83.5752527,15.472326 83.5752527,15.6263874 L83.5752527,16.8477487 L82.3521266,16.8477487 C82.1978425,16.8477487 82.0727706,16.9726401 82.0727706,17.1267016 C82.0727706,17.280763 82.1978425,17.4056545 82.3521266,17.4056545 L83.5500855,17.4056545 L83.5500855,18.6270157 C83.5500855,18.7810771 83.6751574,18.9059686 83.8294415,18.9059686 C83.9837255,18.9059686 84.1087974,18.7810771 84.1087974,18.6270157 L84.1087974,17.4056545 L85.3319236,17.4056545 C85.4317279,17.4101437 85.5263492,17.3611237 85.5801447,17.27706 C85.6339403,17.1929963 85.6387371,17.08666 85.5927284,16.9981071 C85.5467196,16.9095542 85.4568951,16.8522379 85.3570908,16.8477487 L85.3570908,16.8477487 Z" id="_Path_29" fill="#A81E37" fill-rule="nonzero"></path>
                                <path d="M11.4913456,18.466178 L10.2682194,18.466178 L10.2682194,17.2448168 C10.2682194,17.0907553 10.1431475,16.9658639 9.98886347,16.9658639 C9.83457942,16.9658639 9.7095075,17.0907553 9.7095075,17.2448168 L9.7095075,18.466178 L8.48638136,18.466178 C8.33209732,18.466178 8.20702539,18.5910695 8.20702539,18.7451309 C8.20702539,18.8991923 8.33209732,19.0240838 8.48638136,19.0240838 L9.7095075,19.0240838 L9.7095075,20.2303665 C9.7095075,20.3844279 9.83457942,20.5093194 9.98886347,20.5093194 C10.1431475,20.5093194 10.2682194,20.3844279 10.2682194,20.2303665 L10.2682194,19.0240838 L11.4913456,19.0240838 C11.6456296,19.0240838 11.7707015,18.8991923 11.7707015,18.7451309 C11.7707015,18.5910695 11.6456296,18.466178 11.4913456,18.466178 Z" id="_Path_30" fill="#A81E37" fill-rule="nonzero"></path>
                                <path d="M55.2822814,2.94031414 L53.1128684,2.94031414 L53.1128684,0.774031414 C53.1128684,0.496443267 52.8875136,0.271413613 52.6095243,0.271413613 C52.331535,0.271413613 52.1061802,0.496443267 52.1061802,0.774031414 L52.1061802,2.94031414 L49.9367672,2.94031414 C49.6587779,2.94031414 49.4334231,3.16534379 49.4334231,3.44293194 C49.4334231,3.72052008 49.6587779,3.94554974 49.9367672,3.94554974 L52.1061802,3.94554974 L52.1061802,6.11183246 C52.1061802,6.38942061 52.331535,6.61445026 52.6095243,6.61445026 C52.8875136,6.61445026 53.1128684,6.38942061 53.1128684,6.11183246 L53.1128684,3.94554974 L55.2822814,3.94554974 C55.5602707,3.94554974 55.7856255,3.72052008 55.7856255,3.44293194 C55.7856255,3.16534379 55.5602707,2.94031414 55.2822814,2.94031414 Z" id="_Path_31" fill="#A81E37" fill-rule="nonzero"></path>
                                <path d="M6.18609887,23.0098429 L4.22305692,23.0098429 L4.22305692,21.0546597 C4.22305692,20.6382775 3.88502468,20.300733 3.46804078,20.300733 C3.05105688,20.300733 2.71302465,20.6382775 2.71302465,21.0546597 L2.71302465,23.0098429 L0.755016135,23.0098429 C0.338032238,23.0098429 -1.13686838e-13,23.3473874 -1.13686838e-13,23.7637696 C-1.13686838e-13,24.1801519 0.338032238,24.5176963 0.755016135,24.5176963 L2.71302465,24.5176963 L2.71302465,26.4728796 C2.71302465,26.8892618 3.05105688,27.2268063 3.46804078,27.2268063 C3.88502468,27.2268063 4.22305692,26.8892618 4.22305692,26.4728796 L4.22305692,24.5176963 L6.18106543,24.5176963 C6.45080672,24.5185942 6.70053765,24.3757262 6.83618698,24.1429094 C6.9718363,23.9100926 6.97279567,23.6226973 6.8387037,23.3889827 C6.70461172,23.155268 6.45584016,23.0107408 6.18609887,23.0098429 L6.18609887,23.0098429 Z" id="_Path_32" fill="#A81E37" fill-rule="nonzero"></path>
                                <path d="M45.7690781,6.83057592 L43.9419391,6.83057592 L43.9419391,5.0060733 C43.9419391,4.754678 43.8076276,4.52237913 43.5895982,4.39668146 C43.3715689,4.27098379 43.1029457,4.27098379 42.8849164,4.39668146 C42.6668871,4.52237913 42.5325755,4.754678 42.5325756,5.0060733 L42.5325756,6.83057592 L40.7054366,6.83057592 C40.3162516,6.83057592 40.0007548,7.14561743 40.0007548,7.53424084 C40.0007548,7.92286424 40.3162516,8.23790576 40.7054366,8.23790576 L42.5325756,8.23790576 L42.5325756,10.0624084 C42.5325756,10.4510318 42.8480724,10.7660733 43.2372573,10.7660733 C43.6264423,10.7660733 43.9419391,10.4510318 43.9419391,10.0624084 L43.9419391,8.23790576 L45.7690781,8.23790576 C46.0208367,8.2379058 46.2534712,8.10378803 46.3793505,7.88607333 C46.5052298,7.66835863 46.5052298,7.40012304 46.3793505,7.18240834 C46.2534712,6.96469364 46.0208367,6.83057587 45.7690781,6.83057592 Z" id="_Path_33" fill="#A81E37" fill-rule="nonzero"></path>
                            </g>
                        </g>
                    </g>
                </g>
            </g>
        </g>
    </g>
</svg>