<?xml version="1.0" encoding="UTF-8"?>
<svg width="84px" height="92px" viewBox="0 0 84 92" version="1.1" xmlns="http://www.w3.org/2000/svg" xmlns:xlink="http://www.w3.org/1999/xlink">
    <!-- Generator: Sketch 54.1 (76490) - https://sketchapp.com -->
    <title>7-Odrzavanje-IVIS</title>
    <desc>Created with Sketch.</desc>
    <g id="1-UI" stroke="none" stroke-width="1" fill="none" fill-rule="evenodd">
        <g id="1.1.1-Homepage" transform="translate(-775.000000, -1319.000000)">
            <g id="2-Servisi" transform="translate(120.000000, 840.000000)">
                <g id="Odrzavanje" transform="translate(622.000000, 449.000000)">
                    <g id="7-Odrzavanje-IVIS" transform="translate(24.000000, 24.000000)">
                        <rect id="Rectangle" x="0" y="0" width="104" height="104"></rect>
                        <g transform="translate(9.000000, 4.000000)">
                            <g id="_Group_2" opacity="0.06" transform="translate(21.122807, 0.000000)" fill="#CD2037" fill-rule="nonzero">
                                <path d="M-1.63818605,22.2062261 L55.8890153,22.2265043 C58.3925482,22.2272665 60.4218721,24.2565904 60.4226343,26.7601233 L60.4282479,27.0567198 C60.4290105,29.561331 58.3992401,31.5923378 55.8946289,31.5931004 C55.8937083,31.5931006 55.8927878,31.5931006 55.8918673,31.5931004 L-1.63533328,31.5700614 C-4.1388661,31.5692992 -6.16819,29.5399753 -6.16895227,27.0364425 L-6.1745658,26.739846 C-6.1753284,24.2352347 -4.14555804,22.204228 -1.64094682,22.2034654 C-1.64002628,22.2034651 -1.63910574,22.2034651 -1.63818521,22.2034654 Z" id="_Rectangle_" transform="translate(27.126841, 26.898283) rotate(-44.760000) translate(-27.126841, -26.898283) "></path>
                                <g id="_Group_3" transform="translate(10.561404, 32.167539)">
                                    <path d="M17.6123977,6.70492147 L17.6123977,6.70492147 C16.7370714,5.82396471 16.2479258,4.63147792 16.2526421,3.38997636 C16.2573583,2.14847481 16.7555497,0.959734169 17.6375439,0.0854450262 L0.140818713,17.4157068 C1.02231212,16.5409134 2.21552533,16.0520657 3.45778316,16.056779 C4.70004098,16.0614924 5.88950576,16.5593805 6.76432749,17.4408377 L6.76432749,17.4408377 C7.63965379,18.3217945 8.12879931,19.5142812 8.12408307,20.7557828 C8.11936683,21.9972844 7.62117545,23.186025 6.73918129,24.0603141 L24.2359064,6.73005236 C23.354413,7.60484577 22.1611998,8.09369351 20.918942,8.08898014 C19.6766842,8.08426677 18.4872194,7.58637868 17.6123977,6.70492147 L17.6123977,6.70492147 Z" id="_Path_"></path>
                                </g>
                                <g id="_Group_4" transform="translate(19.614035, 39.706806)">
                                    <path d="M26.9315789,7.01151832 L26.9315789,7.01151832 C26.0562526,6.13056156 25.5671071,4.93807477 25.5718234,3.69657322 C25.5765396,2.45507167 26.074731,1.26633103 26.9567251,0.392041885 L0.407368421,26.7040838 C1.28886183,25.8292904 2.48207503,25.3404426 3.72433286,25.345156 C4.96659069,25.3498694 6.15605547,25.8477574 7.03087719,26.7292147 L7.03087719,26.7292147 C7.90620349,27.6101714 8.39534902,28.8026582 8.39063278,30.0441598 C8.38591654,31.2856613 7.88772516,32.474402 7.00573099,33.3486911 L33.5550877,7.03664921 C32.6735943,7.91144262 31.4803811,8.40029037 30.2381233,8.395577 C28.9958654,8.39086363 27.8064007,7.89297554 26.9315789,7.01151832 Z" id="_Path_2"></path>
                                </g>
                                <path d="M5.23546136,45.8185093 L54.2658131,45.8362003 C56.7693459,45.8369626 58.7986698,47.8662865 58.799432,50.3698193 L58.8050456,50.6664158 C58.8058082,53.171027 56.7760378,55.2020338 54.2714266,55.2027964 C54.2705061,55.2027967 54.2695855,55.2027967 54.268665,55.2027964 L5.23831413,55.1823446 C2.73478131,55.1815823 0.705457408,53.1522584 0.704695137,50.6487256 L0.699081608,50.3521291 C0.698319008,47.8475179 2.72808936,45.8165111 5.23270059,45.8157485 C5.23362113,45.8157482 5.23454166,45.8157482 5.2354622,45.8157485 Z" id="_Rectangle_2" transform="translate(29.752064, 50.509272) rotate(-44.760000) translate(-29.752064, -50.509272) "></path>
                                <path d="M8.43725902,63.8275948 L66.6783969,63.8480903 C69.1819297,63.8488526 71.2112536,65.8781765 71.2120159,68.3817093 L71.2176294,68.6783058 C71.218392,71.182917 69.1886217,73.2139238 66.6840104,73.2146864 C66.6830899,73.2146867 66.6821694,73.2146867 66.6812488,73.2146864 L8.44011179,73.1914301 C5.93657897,73.1906678 3.90725507,71.1613439 3.9064928,68.6578111 L3.90087927,68.3612146 C3.90011667,65.8566034 5.92988703,63.8255966 8.43449825,63.824834 C8.43541879,63.8248337 8.43633933,63.8248337 8.43725986,63.824834 Z" id="_Rectangle_3" transform="translate(37.559254, 68.519760) rotate(-44.760000) translate(-37.559254, -68.519760) "></path>
                            </g>
                            <g id="_Group_5" transform="translate(0.000000, 13.570681)">
                                <g id="_Group_6" transform="translate(6.538012, 0.000000)">
                                    <g id="_Group_7" transform="translate(10.058480, 0.000000)">
                                        <g id="_Group_8" fill="#E07778" fill-rule="nonzero">
                                            <path d="M46.6009357,14.6714136 L42.8843275,14.9981152 C42.1517861,15.0665154 41.4420849,14.7215703 41.0436257,14.1034555 C40.4387061,13.149789 39.7503571,12.2516116 38.9866667,11.4194764 C38.4919596,10.8742159 38.3426095,10.0988439 38.5994152,9.40900524 L39.8567251,5.89068063 C40.0278503,5.41656599 39.8325052,4.8881821 39.3940351,4.6391623 L34.6061988,1.88984293 C34.1705405,1.63806518 33.6168479,1.73559144 33.2935673,2.12104712 L30.9298246,4.93570681 C30.4609299,5.50064791 29.7166778,5.75826579 28.9985965,5.60418848 C27.8808892,5.35525782 26.7430564,5.20722776 25.5988304,5.16188482 C24.8631149,5.12535934 24.2083939,4.68398204 23.8989474,4.01591623 L22.3549708,0.743874346 C22.1405383,0.288011826 21.6289449,0.05252514 21.142924,0.185968586 L15.8169591,1.63350785 C15.3309812,1.76337423 15.0085795,2.2233648 15.0525146,2.72418848 L15.374386,6.37319372 C15.4435111,7.10557349 15.1007223,7.81589499 14.4842105,8.21780105 C13.5196372,8.83389294 12.6124032,9.53535167 11.7734503,10.3137173 C11.2299339,10.8116012 10.4538578,10.9647829 9.76175439,10.7107853 L6.26140351,9.46429319 C5.78700006,9.29327225 5.25829429,9.48849842 5.00912281,9.92670157 L2.28327485,14.7015707 C2.03134373,15.1369638 2.1289294,15.6903193 2.51461988,16.0134031 L5.36619883,18.4008377 C5.92785593,18.8675749 6.18525373,19.6064177 6.03508772,20.3208377 C5.79288377,21.4233554 5.64981887,22.5453106 5.60760234,23.6732984 C5.57446437,24.4055649 5.13629718,25.0585404 4.47099415,25.3671204 L1.09637427,26.9604188 C0.640234056,27.1747208 0.40460392,27.6860027 0.538128655,28.1717277 L1.98152047,33.4994764 C2.11146595,33.9851585 2.57173674,34.3073638 3.0728655,34.2634555 L6.79953216,33.9317277 C7.55280358,33.8694941 8.27741244,34.2344902 8.6754386,34.8766492 C9.24139649,35.7992193 9.90030382,36.6615088 10.6418713,37.4500524 C11.161081,37.9974674 11.3300232,38.7892656 11.0794152,39.500733 L9.82210526,43.0190576 C9.65098014,43.4931722 9.84632524,44.0215561 10.2847953,44.2705759 L15.0726316,47.0198953 C15.50829,47.271673 16.0619825,47.1741468 16.3852632,46.7886911 L18.7791813,43.9287958 C19.2718041,43.3478068 20.0506059,43.0948503 20.7908772,43.2753927 C21.8393522,43.5468476 22.9165589,43.6919626 23.9995322,43.707644 C24.7576304,43.7241245 25.4420488,44.1652278 25.7698246,44.8485864 L27.3540351,48.2060733 C27.5684676,48.6619358 28.0800609,48.8974225 28.5660819,48.7639791 L33.897076,47.321466 C34.3830539,47.1915996 34.7054556,46.731609 34.6615205,46.2307853 L34.3295906,42.5164398 C34.2684474,41.7587428 34.6401389,41.0313712 35.2901754,40.6366492 C36.2188907,40.0840544 37.0782672,39.4226192 37.8500585,38.6663874 C38.3943776,38.1410171 39.190575,37.971343 39.9019883,38.2291099 L43.4224561,39.4906806 C43.8956352,39.6625675 44.4239634,39.4696013 44.6747368,39.0332984 L47.425731,34.248377 C47.6776621,33.8129838 47.5800764,33.2596283 47.194386,32.9365445 L44.3277193,30.5390576 C43.7556535,30.0534697 43.5016518,29.2899906 43.6688889,28.5587435 C43.9193314,27.5003325 44.0608855,26.4191134 44.091345,25.3319372 C44.1134364,24.5797836 44.5539545,23.9029236 45.2329825,23.577801 L48.6176608,21.9845026 C49.073801,21.7702007 49.3094312,21.2589188 49.1759064,20.7731937 L47.7325146,15.4504712 C47.6047226,14.9435552 47.1204025,14.6101156 46.6009357,14.6714136 L46.6009357,14.6714136 Z M28.525848,38.088377 C22.9826035,39.5868826 17.0819587,37.6006449 13.5754452,33.0558671 C10.0689317,28.5110892 9.64711915,22.3028158 12.5067031,17.3260287 C15.366287,12.3492417 20.9441035,9.58406511 26.6391592,10.3199294 C32.3342148,11.0557937 37.0249303,15.1477783 38.5239766,20.6877487 C40.570765,28.2519892 36.0945589,36.0423269 28.525848,38.088377 Z" id="_Compound_Path_"></path>
                                        </g>
                                        <g id="_Group_9" transform="translate(0.502924, 0.000000)" stroke="#A81E37">
                                            <ellipse id="_Path_3" transform="translate(24.354994, 24.497810) rotate(-15.140000) translate(-24.354994, -24.497810) " cx="24.3549941" cy="24.4978096" rx="14.1969543" ry="14.1894901"></ellipse>
                                            <path d="M46.1281871,14.7819895 L42.4115789,15.1086911 C41.6790375,15.1770913 40.9693363,14.8321462 40.5708772,14.2140314 C39.9659576,13.2603649 39.2776086,12.3621875 38.5139181,11.5300524 C38.019211,10.9847918 37.869861,10.2094198 38.1266667,9.51958115 L39.3839766,6.00125654 C39.5551017,5.5271419 39.3597566,4.99875801 38.9212865,4.74973822 L34.1334503,2.00041885 C33.6977919,1.7486411 33.1440993,1.84616736 32.8208187,2.23162304 L30.457076,5.04628272 C29.9881814,5.61122382 29.2439293,5.8688417 28.525848,5.7147644 C27.4081406,5.46583373 26.2703079,5.31780367 25.1260819,5.27246073 C24.3903664,5.23593526 23.7356453,4.79455796 23.4261988,4.12649215 L21.8520468,0.854450262 C21.6376143,0.398587742 21.1260209,0.163101056 20.64,0.296544503 L15.3140351,1.73403141 C14.8280572,1.86389779 14.5056556,2.32388836 14.5495906,2.82471204 L14.871462,6.47371728 C14.9405871,7.20609705 14.5977983,7.91641855 13.9812865,8.31832461 C13.0167133,8.9344165 12.1094793,9.63587523 11.2705263,10.4142408 C10.7270099,10.9121248 9.95093387,11.0653065 9.25883041,10.8113089 L5.79368421,9.56984293 C5.31928076,9.39882198 4.790575,9.59404816 4.54140351,10.0322513 L1.79040936,14.8171728 C1.53847824,15.2525659 1.6360639,15.8059214 2.02175439,16.1290052 L4.87333333,18.5164398 C5.43499044,18.983177 5.69238824,19.7220198 5.54222222,20.4364398 C5.30001827,21.5389575 5.15695337,22.6609127 5.11473684,23.7889005 C5.08159887,24.521167 4.64343168,25.1741424 3.97812865,25.4827225 L0.603508772,27.0760209 C0.147368559,27.2903229 -0.0882615771,27.8016048 0.0452631579,28.2873298 L1.48865497,33.6150785 C1.61860046,34.1007606 2.07887124,34.4229659 2.58,34.3790576 L6.30666667,34.0473298 C7.05993808,33.9850962 7.78454694,34.3500923 8.1825731,34.9922513 C8.74853099,35.9148214 9.40743833,36.7771108 10.1490058,37.5656545 C10.6682155,38.1130695 10.8371577,38.9048677 10.5865497,39.6163351 L9.32923977,43.1346597 C9.15811464,43.6087743 9.35345974,44.1371582 9.79192982,44.386178 L14.5797661,47.1354974 C15.0154245,47.3872751 15.569117,47.2897489 15.8923977,46.9042932 L18.2863158,44.0443979 C18.7789386,43.4634089 19.5577404,43.2104524 20.2980117,43.3909948 C21.3464867,43.6624497 22.4236934,43.8075647 23.5066667,43.8232461 C24.2647649,43.8397266 24.9491833,44.2808299 25.2769591,44.9641885 L26.8611696,48.3216754 C27.0756021,48.7775379 27.5871955,49.0130246 28.0732164,48.8795812 L33.4192982,47.4219895 C33.9052761,47.2921232 34.2276778,46.8321326 34.1837427,46.3313089 L33.8518129,42.6169634 C33.7906697,41.8592664 34.1623611,41.1318948 34.8123977,40.7371728 C35.741113,40.1845779 36.6004894,39.5231428 37.3722807,38.766911 C37.9165998,38.2415406 38.7127972,38.0718666 39.4242105,38.3296335 L42.9446784,39.5912042 C43.4178574,39.7630911 43.9461856,39.5701248 44.1969591,39.133822 L46.9479532,34.3489005 C47.1998843,33.9135074 47.1022987,33.3601519 46.7166082,33.0370681 L43.8499415,30.6395812 C43.2778758,30.1539932 43.023874,29.3905141 43.1911111,28.659267 C43.4415536,27.6008561 43.5831077,26.519637 43.6135673,25.4324607 C43.6356586,24.6803072 44.0761768,24.0034472 44.7552047,23.6783246 L48.139883,22.0850262 C48.5960233,21.8707242 48.8316534,21.3594423 48.6981287,20.8737173 L47.2547368,15.5509948 C47.123014,15.0502133 46.6428614,14.7224515 46.1281871,14.7819895 L46.1281871,14.7819895 Z" id="_Path_4"></path>
                                        </g>
                                    </g>
                                    <g id="_Group_10" transform="translate(37.216374, 28.146597)">
                                        <path d="M13.3978947,15.4957068 L13.3978947,15.4655497 L6.85988304,6.78031414 C6.76971719,6.66105631 6.73071231,6.51085663 6.75146765,6.36282909 C6.772223,6.21480155 6.85103431,6.08110109 6.97052632,5.99120419 L6.97052632,5.99120419 C7.09001832,5.90130729 7.16882963,5.76760683 7.18958498,5.61957929 C7.21034033,5.47155175 7.17133544,5.32135206 7.08116959,5.20209424 L3.60596491,0.578010471 C3.51601325,0.45859121 3.38223134,0.379827883 3.23411363,0.35908517 C3.08599592,0.338342458 2.93570474,0.377323599 2.81637427,0.467434555 L0.553216374,2.13612565 C0.433724367,2.22602255 0.354913061,2.35972301 0.334157713,2.50775055 C0.313402364,2.65577809 0.352407251,2.80597778 0.442573099,2.9252356 L3.91777778,7.54931937 C4.00772944,7.66873863 4.14151135,7.74750196 4.28962906,7.76824467 C4.43774677,7.78898739 4.58803795,7.75000624 4.70736842,7.65989529 L4.70736842,7.65989529 C4.82669889,7.56978433 4.97699007,7.53080319 5.12510778,7.5515459 C5.2732255,7.57228862 5.4070074,7.65105194 5.49695906,7.7704712 L12.0349708,16.4557068" id="_Path_5" stroke="#A81E37" fill="#FFFFFF" fill-rule="nonzero"></path>
                                        <path d="M17.0642105,14.9579058 L16.5210526,14.2341361 C16.2630646,13.8931102 15.7782815,13.8235772 15.4347368,14.0783246 L10.1238596,18.0640838 C9.78262601,18.3219148 9.71305066,18.8064027 9.96795322,19.1497382 L10.5111111,19.8735079 C10.7690992,20.2145338 11.2538823,20.2840668 11.5974269,20.0293194 L11.5974269,20.0293194 C11.9409715,19.774572 12.4257546,19.844105 12.6837427,20.1851309 L13.4582456,21.2205236 C13.7131482,21.563859 13.6435728,22.048347 13.3023392,22.306178 L13.3023392,22.306178 C12.9611055,22.564009 12.8915302,23.048497 13.1464327,23.3918325 L22.8578947,36.3141361 C23.1158828,36.655162 23.6006659,36.724695 23.9442105,36.4699476 L29.2550877,32.4841885 C29.5963214,32.2263575 29.6658967,31.7418695 29.4109942,31.398534 L19.7045614,18.4762304 C19.4465734,18.1352045 18.9617902,18.0656715 18.6182456,18.3204188 L18.6182456,18.3204188 C18.274701,18.5751662 17.7899179,18.5056332 17.5319298,18.1646073 L16.7574269,17.1292147 C16.5025243,16.7858792 16.5720997,16.3013912 16.9133333,16.0435602 L16.9133333,16.0435602 C17.2529211,15.7842023 17.3202214,15.2999353 17.0642105,14.9579058 Z" id="_Path_6" fill="#E07778" fill-rule="nonzero"></path>
                                        <path d="M17.0642105,14.9579058 L16.5210526,14.2341361 C16.2630646,13.8931102 15.7782815,13.8235772 15.4347368,14.0783246 L10.1238596,18.0640838 C9.78262601,18.3219148 9.71305066,18.8064027 9.96795322,19.1497382 L10.5111111,19.8735079 C10.7690992,20.2145338 11.2538823,20.2840668 11.5974269,20.0293194 L11.5974269,20.0293194 C11.9409715,19.774572 12.4257546,19.844105 12.6837427,20.1851309 L13.4582456,21.2205236 C13.7131482,21.563859 13.6435728,22.048347 13.3023392,22.306178 L13.3023392,22.306178 C12.9611055,22.564009 12.8915302,23.048497 13.1464327,23.3918325 L22.8578947,36.3141361 C23.1158828,36.655162 23.6006659,36.724695 23.9442105,36.4699476 L29.2550877,32.4841885 C29.5963214,32.2263575 29.6658967,31.7418695 29.4109942,31.398534 L19.7045614,18.4762304 C19.4465734,18.1352045 18.9617902,18.0656715 18.6182456,18.3204188 L18.6182456,18.3204188 C18.274701,18.5751662 17.7899179,18.5056332 17.5319298,18.1646073 L16.7574269,17.1292147 C16.5025243,16.7858792 16.5720997,16.3013912 16.9133333,16.0435602 L16.9133333,16.0435602 C17.2529211,15.7842023 17.3202214,15.2999353 17.0642105,14.9579058 Z" id="_Path_7" stroke="#A81E37"></path>
                                        <path d="M20.0583827,21.3007806 L20.1399384,21.3011233 C20.4408091,21.3012112 20.684691,21.5450932 20.684779,21.8459639 L20.6892713,35.0284167 C20.6893593,35.3294119 20.4454259,35.5734881 20.1444307,35.5735761 C20.1443244,35.5735761 20.1442182,35.5735761 20.144112,35.5735761 L20.0625564,35.5729148 C19.7616857,35.5728268 19.5178038,35.3289449 19.5177158,35.0280742 L19.5132235,21.8456213 C19.5131355,21.5446262 19.7570689,21.30055 20.0580641,21.300462 C20.0581704,21.300462 20.0582766,21.300462 20.0583828,21.300462 Z" id="_Rectangle_4" fill="#A81E37" fill-rule="nonzero" transform="translate(20.101247, 28.437019) rotate(-36.900000) translate(-20.101247, -28.437019) "></path>
                                        <path d="M22.5654042,19.4627382 L22.6469599,19.4630808 C22.9478306,19.4631688 23.1917125,19.7070507 23.1918005,20.0079214 L23.1962928,33.1903743 C23.1963808,33.4913695 22.9524474,33.7354456 22.6514522,33.7355336 C22.6513459,33.7355337 22.6512397,33.7355337 22.6511335,33.7355336 L22.5695779,33.7348724 C22.2687072,33.7347844 22.0248253,33.4909025 22.0247373,33.1900318 L22.020245,20.0075789 C22.020157,19.7065837 22.2640904,19.4625076 22.5650856,19.4624196 C22.5651918,19.4624195 22.5652981,19.4624195 22.5654043,19.4624196 Z" id="_Rectangle_5" fill="#A81E37" fill-rule="nonzero" transform="translate(22.608269, 26.598977) rotate(-36.900000) translate(-22.608269, -26.598977) "></path>
                                    </g>
                                    <g id="_Group_11" transform="translate(0.000000, 19.099476)" fill-rule="nonzero">
                                        <g id="_Group_12" fill="#FFFFFF" stroke="#A81E37">
                                            <path d="M23.8335673,10.1780105 C24.1689403,9.80390909 24.139755,9.2295328 23.7681871,8.8913089 L23.4815205,8.57968586 C23.1477067,8.23450495 22.9983013,7.75109941 23.0791813,7.27790576 L24.3666667,1.52293194 C24.4543463,1.09997953 24.8025804,0.780284853 25.2316959,0.728795812 L29.6373099,0.130680628 C30.1141277,0.0995222914 30.5794207,0.285805556 30.9028368,0.6373431 C31.226253,0.988880644 31.373008,1.4678636 31.3019883,1.94010471 L31.3019883,1.94010471 C31.2143086,2.36305712 30.8660746,2.6827518 30.4369591,2.73424084 L27.4495906,3.14136126 C27.0204751,3.1928503 26.6722411,3.51254498 26.5845614,3.93549738 L25.9357895,6.8808377 C25.8549095,7.35403134 26.0043149,7.83743688 26.3381287,8.1826178 L28.6767251,10.7258639 C28.9939272,11.0840051 29.4623357,11.2705084 29.9390643,11.2284817 L32.9264327,10.8213613 C33.3555483,10.7698722 33.7037823,10.4501775 33.791462,10.0272251 L34.4402339,7.08188482 C34.5279136,6.65893241 34.8761476,6.33923773 35.3052632,6.28774869 L35.3052632,6.28774869 C35.782081,6.25659035 36.2473739,6.44287362 36.5707901,6.79441116 C36.8942062,7.14594871 37.0409612,7.62493166 36.9699415,8.09717277 L36.0093567,12.4448168 C35.9216771,12.8677692 35.573443,13.1874638 35.1443275,13.2389529 L29.3204678,14.0280628 C28.8437392,14.0700896 28.3753307,13.8835863 28.0581287,13.525445 L27.7865497,13.2339267 C27.4820708,12.8409227 26.9193027,12.7628081 26.5191813,13.0580105 L13.3777778,25.0353927 C13.0424048,25.4094941 13.0715901,25.9838703 13.4431579,26.3220942 L13.6242105,26.5181152 C13.9580243,26.8632961 14.1074297,27.3467016 14.0265497,27.8198953 L12.7591813,33.5648168 C12.6715016,33.9877692 12.3232676,34.3074638 11.894152,34.3589529 L7.48853801,34.9570681 C7.01172021,34.9882264 6.54642724,34.8019431 6.22301111,34.4504056 C5.89959497,34.098868 5.75284,33.6198851 5.82385965,33.147644 L5.82385965,33.147644 C5.91153932,32.7246916 6.25977338,32.4049969 6.68888889,32.3535079 L9.67625731,31.9463874 C10.1053728,31.8948984 10.4536069,31.5752037 10.5412865,31.1522513 L11.1900585,28.206911 C11.2709384,27.7337173 11.121533,27.2503118 10.7877193,26.9051309 L8.44912281,24.3618848 C8.13192074,24.0037436 7.6635123,23.8172403 7.18678363,23.859267 L4.1994152,24.2663874 C3.7702997,24.3178765 3.42206564,24.6375712 3.33438596,25.0605236 L2.68561404,28.0058639 C2.59793436,28.4288163 2.2497003,28.748511 1.8205848,28.8 L1.8205848,28.8 C1.34376699,28.8311583 0.878474024,28.6448751 0.55505789,28.2933375 C0.231641755,27.9418 0.0848867837,27.462817 0.155906433,26.9905759 L1.11649123,22.6429319 C1.2041709,22.2199795 1.55240496,21.9002849 1.98152047,21.8487958 L7.77017544,21.0546597 C8.24690411,21.0126329 8.71531255,21.1991362 9.03251462,21.5572775 L9.41473684,21.9694241 C9.71921578,22.3624281 10.2819839,22.4405427 10.6821053,22.1453403 L23.8335673,10.1780105 Z" id="_Path_8"></path>
                                        </g>
                                        <path d="M18.8727505,8.58418461 L18.9094224,8.58381578 C19.2352704,8.58371697 19.4995025,8.84778885 19.4996013,9.17363684 C19.4996013,9.17375611 19.4996013,9.17387539 19.4996013,9.17399466 L19.4939364,25.4959321 C19.4938376,25.8216404 19.2298236,26.0856544 18.9041153,26.0857532 L18.8674435,26.0864799 C18.5415955,26.0865788 18.2773635,25.8225069 18.2772646,25.4966589 C18.2772646,25.4965396 18.2772646,25.4964203 18.2772646,25.4963011 L18.2829295,9.17436361 C18.2830283,8.84865535 18.5470423,8.58464131 18.8727506,8.58454254 Z" id="_Rectangle_6" fill="#E07778" transform="translate(18.888433, 17.335148) rotate(47.600000) translate(-18.888433, -17.335148) "></path>
                                    </g>
                                </g>
                                <path d="M80.0705263,39.274555 L78.8484211,39.274555 L78.8484211,38.0531937 C78.8484211,37.8991323 78.7234535,37.7742408 78.5692982,37.7742408 C78.415143,37.7742408 78.2901754,37.8991323 78.2901754,38.0531937 L78.2901754,39.274555 L77.0680702,39.274555 C76.9139149,39.274555 76.7889474,39.3994464 76.7889474,39.5535079 C76.7889474,39.7075693 76.9139149,39.8324607 77.0680702,39.8324607 L78.2901754,39.8324607 L78.2901754,41.053822 C78.2901754,41.2078834 78.415143,41.3327749 78.5692982,41.3327749 C78.7234535,41.3327749 78.8484211,41.2078834 78.8484211,41.053822 L78.8484211,39.8324607 L80.0705263,39.8324607 C80.2246816,39.8324607 80.3496491,39.7075693 80.3496491,39.5535079 C80.3496491,39.3994464 80.2246816,39.274555 80.0705263,39.274555 Z" id="_Path_9" fill="#A81E37" fill-rule="nonzero"></path>
                                <path d="M11.9846784,19.5819895 L10.7625731,19.5819895 L10.7625731,18.3606283 C10.7625731,18.2065669 10.6376056,18.0816754 10.4834503,18.0816754 C10.329295,18.0816754 10.2043275,18.2065669 10.2043275,18.3606283 L10.2043275,19.5819895 L8.97719298,19.5819895 C8.82303771,19.5819895 8.69807018,19.706881 8.69807018,19.8609424 C8.69807018,20.0150038 8.82303771,20.1398953 8.97719298,20.1398953 L10.1992982,20.1398953 L10.1992982,21.3612565 C10.1992982,21.515318 10.3242658,21.6402094 10.4784211,21.6402094 C10.6325763,21.6402094 10.7575439,21.515318 10.7575439,21.3612565 L10.7575439,20.1398953 L11.9796491,20.1398953 C12.1338044,20.1412832 12.2598977,20.0175169 12.2612865,19.8634555 C12.2626753,19.7093941 12.1388336,19.5833775 11.9846784,19.5819895 L11.9846784,19.5819895 Z" id="_Path_10" fill="#A81E37" fill-rule="nonzero"></path>
                                <path d="M79.4921637,50.201466 L77.3245614,50.201466 L77.3245614,48.0351832 C77.3245614,47.7575951 77.0993947,47.5325654 76.8216374,47.5325654 C76.5438802,47.5325654 76.3187135,47.7575951 76.3187135,48.0351832 L76.3187135,50.201466 L74.1561404,50.201466 C73.8783831,50.201466 73.6532164,50.4264956 73.6532164,50.7040838 C73.6532164,50.9816719 73.8783831,51.2067016 74.1561404,51.2067016 L76.3237427,51.2067016 L76.3237427,53.3729843 C76.3237427,53.6505724 76.5489094,53.8756021 76.8266667,53.8756021 C77.1044239,53.8756021 77.3295906,53.6505724 77.3295906,53.3729843 L77.3295906,51.2067016 L79.497193,51.2067016 C79.7749502,51.2053136 79.9989911,50.9791588 79.9976023,50.7015707 C79.9962135,50.4239825 79.769921,50.200078 79.4921637,50.201466 L79.4921637,50.201466 Z" id="_Path_11" fill="#A81E37" fill-rule="nonzero"></path>
                                <path d="M6.67883041,24.1306806 L4.72245614,24.1306806 L4.72245614,22.1754974 C4.72245614,21.7591152 4.38470604,21.4215707 3.96807018,21.4215707 C3.55143431,21.4215707 3.21368421,21.7591152 3.21368421,22.1754974 L3.21368421,24.1306806 L1.23216374,24.1306806 C0.815527879,24.1306806 0.477777778,24.4682251 0.477777778,24.8846073 C0.477777778,25.3009895 0.815527879,25.638534 1.23216374,25.638534 L3.18853801,25.638534 L3.18853801,27.5937173 C3.18853801,28.0100995 3.52628811,28.347644 3.94292398,28.347644 C4.35955984,28.347644 4.69730994,28.0100995 4.69730994,27.5937173 L4.69730994,25.638534 L6.65368421,25.638534 C7.07032007,25.6454737 7.41369934,25.313555 7.42064327,24.8971728 C7.42758721,24.4807906 7.09546627,24.1376203 6.67883041,24.1306806 Z" id="_Path_12" fill="#A81E37" fill-rule="nonzero"></path>
                                <path d="M42.7988304,59.0877487 L40.9631579,59.0877487 L40.9631579,57.2632461 C40.9631579,56.8746227 40.6479245,56.5595812 40.2590643,56.5595812 C39.8702042,56.5595812 39.5549708,56.8746227 39.5549708,57.2632461 L39.5549708,59.0877487 L37.7293567,59.0877487 C37.3404966,59.0877487 37.0252632,59.4027902 37.0252632,59.7914136 C37.0252632,60.180037 37.3404966,60.4950785 37.7293567,60.4950785 L39.5549708,60.4950785 L39.5549708,62.3195812 C39.5549708,62.7082046 39.8702042,63.0232461 40.2590643,63.0232461 C40.6479245,63.0232461 40.9631579,62.7082046 40.9631579,62.3195812 L40.9631579,60.4900524 L42.7887719,60.4900524 C43.1535807,60.4618984 43.4360148,60.1591829 43.4386377,59.7935202 C43.4412605,59.4278575 43.1631978,59.1211265 42.7988304,59.0877487 L42.7988304,59.0877487 Z" id="_Path_13" fill="#A81E37" fill-rule="nonzero"></path>
                                <path d="M36.2809357,35.8115183 C35.674329,35.5350714 35.0907617,35.2106912 34.5357895,34.841466" id="_Path_14" stroke="#A81E37" stroke-linecap="round"></path>
                                <path d="M45.2681871,36.3543455 L44.6948538,36.5252356 C42.7233838,37.0599035 40.6502887,37.0996136 38.6597661,36.6408377" id="_Path_15" stroke="#A81E37" stroke-linecap="round"></path>
                                <path d="M53.8832749,25.3068063 C53.7534339,27.2956885 53.1480743,29.2244205 52.1180117,30.9310995" id="_Path_16" stroke="#A81E37" stroke-linecap="round"></path>
                                <path d="M49.0099415,14.5960209 C49.4360783,14.9198415 49.8409298,15.270723 50.2219883,15.6464921" id="_Path_17" stroke="#A81E37" stroke-linecap="round"></path>
                                <path d="M31.0555556,17.6268063 C34.435084,12.5224109 41.0258343,10.6301355 46.6009357,13.1635602" id="_Path_18" stroke="#A81E37" stroke-linecap="round"></path>
                            </g>
                        </g>
                    </g>
                </g>
            </g>
        </g>
    </g>
</svg>