<?xml version="1.0" encoding="UTF-8"?>
<svg width="77px" height="92px" viewBox="0 0 77 92" version="1.1" xmlns="http://www.w3.org/2000/svg" xmlns:xlink="http://www.w3.org/1999/xlink">
    <!-- Generator: Sketch 54.1 (76490) - https://sketchapp.com -->
    <title>1-Prodaja-Ivis</title>
    <desc>Created with Sketch.</desc>
    <g id="1-UI" stroke="none" stroke-width="1" fill="none" fill-rule="evenodd">
        <g id="1.1.1-Homepage" transform="translate(-157.000000, -981.000000)">
            <g id="2-Servisi" transform="translate(120.000000, 840.000000)">
                <g id="Prodaja" transform="translate(0.000000, 111.000000)">
                    <g id="1-Prodaja-Ivis" transform="translate(24.000000, 24.000000)">
                        <rect id="Background" x="0" y="0" width="104" height="104"></rect>
                        <g id="1-Prodaja-IVIS" transform="translate(14.000000, 4.000000)">
                            <g id="_Group_2" opacity="0.06" transform="translate(4.026490, 0.000000)" fill="#CD2037" fill-rule="nonzero">
                                <path d="M-1.42232585,22.1845027 L56.130734,22.2241764 C58.6329034,22.2259013 60.6608819,24.2538798 60.6626068,26.7560491 L60.6628137,27.0562178 C60.6645403,29.5608285 58.6355517,31.5926163 56.130941,31.5943429 C56.1288569,31.5943443 56.1267728,31.5943443 56.1246886,31.5943429 L-1.42837126,31.5546691 C-3.93054065,31.5529443 -5.95851914,29.5249658 -5.96024401,27.0227964 L-5.96045094,26.7226278 C-5.96217749,24.2180171 -3.93318896,22.1862292 -1.42857821,22.1845027 C-1.42649409,22.1845013 -1.42440997,22.1845013 -1.42232585,22.1845027 Z" id="_Rectangle_" transform="translate(27.351181, 26.889423) rotate(-44.760000) translate(-27.351181, -26.889423) "></path>
                                <g id="_Group_3" transform="translate(10.569536, 32.167539)">
                                    <path d="M17.8272848,6.70492147 L17.8272848,6.70492147 C16.9512844,5.82396471 16.4617622,4.63147792 16.4664821,3.38997636 C16.471202,2.14847481 16.969777,0.959734169 17.8524503,0.0854450262 L0.347284768,17.4157068 C1.22945698,16.5409134 2.42358903,16.0520657 3.66680347,16.056779 C4.91001791,16.0614924 6.10039865,16.5593805 6.97589404,17.4408377 L6.97589404,17.4408377 C7.85189439,18.3217945 8.34141659,19.5142812 8.33669672,20.7557828 C8.33197685,21.9972844 7.83340183,23.186025 6.95072848,24.0603141 L24.4609272,6.73005236 C23.5785484,7.60638666 22.3833349,8.09621102 21.1388863,8.09149656 C19.8944377,8.08678209 18.70298,7.58791606 17.8272848,6.70492147 L17.8272848,6.70492147 Z" id="_Path_"></path>
                                </g>
                                <g id="_Group_4" transform="translate(20.132450, 39.706806)">
                                    <path d="M26.6553642,7.01151832 L26.6553642,7.01151832 C25.7793639,6.13056156 25.2898417,4.93807477 25.2945616,3.69657322 C25.2992814,2.45507167 25.7978564,1.26633103 26.6805298,0.392041885 L0.110728477,26.7091099 C0.992900685,25.8343165 2.18703274,25.3454688 3.43024718,25.3501822 C4.67346162,25.3548955 5.86384236,25.8527836 6.73933775,26.7342408 L6.73933775,26.7342408 C7.6153381,27.6151976 8.1048603,28.8076844 8.10014043,30.0491859 C8.09542056,31.2906875 7.59684554,32.4794281 6.71417219,33.3537173 L33.2839735,7.04167539 C32.4011355,7.91580607 31.2066276,8.40375229 29.963412,8.39809624 C28.7201963,8.39244019 27.53019,7.89364555 26.6553642,7.01151832 Z" id="_Path_2"></path>
                                </g>
                                <path d="M5.44996,45.798422 L54.5028702,45.8322363 C57.0050396,45.8339611 59.0330181,47.8619396 59.034743,50.364109 L59.0349499,50.6642776 C59.0366765,53.1688883 57.007688,55.2006762 54.5030772,55.2024027 C54.5009931,55.2024041 54.498909,55.2024041 54.4968248,55.2024027 L5.44391459,55.1685885 C2.9417452,55.1668636 0.913766701,53.1388852 0.912041831,50.6367158 L0.91183491,50.3365472 C0.910108358,47.8319364 2.93909689,45.8001486 5.44370763,45.798422 C5.44579175,45.7984206 5.44787588,45.7984206 5.44996,45.798422 Z" id="_Rectangle_2" transform="translate(29.973392, 50.500412) rotate(-44.760000) translate(-29.973392, -50.500412) "></path>
                                <path d="M8.66101417,63.81076 L66.9282878,63.8509261 C69.4304572,63.8526509 71.4584357,65.8806294 71.4601606,68.3827988 L71.4603675,68.6829674 C71.4620941,71.1875782 69.4331055,73.219366 66.9284948,73.2210925 C66.9264107,73.221094 66.9243265,73.221094 66.9222424,73.2210925 L8.65496876,73.1809265 C6.15279937,73.1792016 4.12482087,71.1512232 4.12309601,68.6490538 L4.12288908,68.3488852 C4.12116253,65.8442744 6.15015106,63.8124866 8.65476181,63.81076 C8.65684593,63.8107586 8.65893005,63.8107586 8.66101417,63.81076 Z" id="_Rectangle_3" transform="translate(37.791628, 68.515926) rotate(-44.760000) translate(-37.791628, -68.515926) "></path>
                            </g>
                            <g id="_Group_5" transform="translate(0.000000, 13.570681)">
                                <rect id="_Rectangle_4" fill="#E07778" fill-rule="nonzero" x="55.8323179" y="13.8119372" width="6.45748344" height="40.4808377" rx="2"></rect>
                                <rect id="_Rectangle_5" fill="#E07778" fill-rule="nonzero" x="46.6217219" y="22.5524607" width="6.45748344" height="31.7403141" rx="2"></rect>
                                <rect id="_Rectangle_6" fill="#E07778" fill-rule="nonzero" x="37.4111258" y="32.2881675" width="6.45748344" height="22.0046073" rx="2"></rect>
                                <rect id="_Rectangle_7" fill="#E07778" fill-rule="nonzero" x="28.2005298" y="36.168377" width="6.45748344" height="18.1243979" rx="2"></rect>
                                <rect id="_Rectangle_8" fill="#E07778" fill-rule="nonzero" x="18.9899338" y="29.6443979" width="6.45748344" height="24.6534031" rx="2"></rect>
                                <rect id="_Rectangle_9" fill="#E07778" fill-rule="nonzero" x="9.77933775" y="38.7769634" width="6.45748344" height="15.5158115" rx="2"></rect>
                                <polyline id="_Path_3" stroke="#A81E37" stroke-width="2" stroke-linecap="round" stroke-linejoin="round" points="5.82331126 16.7371728 5.82331126 57.9719372 66.6031788 57.9719372"></polyline>
                                <path d="M9.9605298,35.4596859 L20.1274172,24.9901571 C20.9055174,24.1894177 21.9727072,23.7337764 23.0899903,23.7252737 C24.2072733,23.716771 25.2812929,24.1561173 26.0715232,24.9449215 L30.6768212,29.5438743 C32.3060436,31.1697894 34.9464067,31.1697894 36.5756291,29.5438743 L65.4405298,0.718743455" id="_Path_4" stroke="#A81E37" stroke-width="3" stroke-linecap="round" stroke-linejoin="round"></path>
                                <polyline id="_Path_5" stroke="#A81E37" stroke-width="3" stroke-linecap="round" stroke-linejoin="round" points="56.2550993 0.417172775 65.7223841 0.417172775 65.7223841 9.86638743"></polyline>
                                <rect id="_Rectangle_10" stroke="#A81E37" stroke-linecap="round" stroke-linejoin="round" x="55.8323179" y="13.8119372" width="6.45748344" height="40.4808377" rx="2"></rect>
                                <rect id="_Rectangle_11" stroke="#A81E37" stroke-linecap="round" stroke-linejoin="round" x="46.6217219" y="22.5524607" width="6.45748344" height="31.7403141" rx="2"></rect>
                                <rect id="_Rectangle_12" stroke="#A81E37" stroke-linecap="round" stroke-linejoin="round" x="37.4111258" y="32.2881675" width="6.45748344" height="22.0046073" rx="2"></rect>
                                <rect id="_Rectangle_13" stroke="#A81E37" stroke-linecap="round" stroke-linejoin="round" x="28.2005298" y="36.168377" width="6.45748344" height="18.1243979" rx="2"></rect>
                                <rect id="_Rectangle_14" stroke="#A81E37" stroke-linecap="round" stroke-linejoin="round" x="18.9899338" y="29.6443979" width="6.45748344" height="24.6534031" rx="2"></rect>
                                <rect id="_Rectangle_15" stroke="#A81E37" stroke-linecap="round" stroke-linejoin="round" x="9.77933775" y="38.7769634" width="6.45748344" height="15.5158115" rx="2"></rect>
                                <path d="M3.68927152,57.9719372 L0,57.9719372" id="_Path_6" stroke="#A81E37" stroke-linecap="round" stroke-linejoin="round"></path>
                                <path d="M5.81324503,63.5660733 L5.81324503,60.2940314" id="_Path_7" stroke="#A81E37" stroke-linecap="round" stroke-linejoin="round"></path>
                                <path d="M15.4919205,63.5660733 L15.4919205,60.2940314" id="_Path_8" stroke="#A81E37" stroke-linecap="round" stroke-linejoin="round"></path>
                                <path d="M25.1655629,63.5660733 L25.1655629,60.2940314" id="_Path_9" stroke="#A81E37" stroke-linecap="round" stroke-linejoin="round"></path>
                                <path d="M34.8442384,63.5660733 L34.8442384,60.2940314" id="_Path_10" stroke="#A81E37" stroke-linecap="round" stroke-linejoin="round"></path>
                                <path d="M44.5178808,63.5107853 L44.5178808,60.2387435" id="_Path_11" stroke="#A81E37" stroke-linecap="round" stroke-linejoin="round"></path>
                                <path d="M54.1965563,63.6263874 L54.1965563,60.3493194" id="_Path_12" stroke="#A81E37" stroke-linecap="round" stroke-linejoin="round"></path>
                                <path d="M63.8701987,63.6263874 L63.8701987,60.3493194" id="_Path_13" stroke="#A81E37" stroke-linecap="round" stroke-linejoin="round"></path>
                                <path d="M10.5997351,62.344712 L10.5997351,60.2940314" id="_Path_14" stroke="#A81E37" stroke-linecap="round" stroke-linejoin="round"></path>
                                <path d="M20.2733775,62.344712 L20.2733775,60.2940314" id="_Path_15" stroke="#A81E37" stroke-linecap="round" stroke-linejoin="round"></path>
                                <path d="M29.952053,62.344712 L29.952053,60.2940314" id="_Path_16" stroke="#A81E37" stroke-linecap="round" stroke-linejoin="round"></path>
                                <path d="M39.6256954,62.2894241 L39.6256954,60.2387435" id="_Path_17" stroke="#A81E37" stroke-linecap="round" stroke-linejoin="round"></path>
                                <path d="M0.0100662252,28.9859686 L3.28662252,28.9859686" id="_Path_18" stroke="#A81E37" stroke-linecap="round" stroke-linejoin="round"></path>
                                <path d="M0.0100662252,19.8634555 L3.28662252,19.8634555" id="_Path_19" stroke="#A81E37" stroke-linecap="round" stroke-linejoin="round"></path>
                                <path d="M0.0100662252,38.6462827 L3.28662252,38.6462827" id="_Path_20" stroke="#A81E37" stroke-linecap="round" stroke-linejoin="round"></path>
                                <path d="M0.0100662252,48.3065969 L3.28662252,48.3065969" id="_Path_21" stroke="#A81E37" stroke-linecap="round" stroke-linejoin="round"></path>
                                <path d="M1.23311258,24.1005236 L3.28662252,24.1005236" id="_Path_22" stroke="#A81E37" stroke-linecap="round" stroke-linejoin="round"></path>
                                <path d="M1.23311258,33.7608377 L3.28662252,33.7608377" id="_Path_23" stroke="#A81E37" stroke-linecap="round" stroke-linejoin="round"></path>
                                <path d="M1.23311258,43.426178 L3.28662252,43.426178" id="_Path_24" stroke="#A81E37" stroke-linecap="round" stroke-linejoin="round"></path>
                                <path d="M1.28847682,53.0864921 L3.34198675,53.0864921" id="_Path_25" stroke="#A81E37" stroke-linecap="round" stroke-linejoin="round"></path>
                                <path d="M49.3043709,62.4 L49.3043709,60.3493194" id="_Path_26" stroke="#A81E37" stroke-linecap="round" stroke-linejoin="round"></path>
                                <path d="M58.9780132,62.4 L58.9780132,60.3493194" id="_Path_27" stroke="#A81E37" stroke-linecap="round" stroke-linejoin="round"></path>
                                <path d="M68.802649,17.1895288 L67.5796026,17.1895288 L67.5796026,15.9631414 C67.5796026,15.8090799 67.4545389,15.6841885 67.3002649,15.6841885 C67.1459909,15.6841885 67.0209272,15.8090799 67.0209272,15.9631414 L67.0209272,17.1845026 L65.7978808,17.1845026 C65.6436068,17.1845026 65.518543,17.3093941 65.518543,17.4634555 C65.518543,17.6175169 65.6436068,17.7424084 65.7978808,17.7424084 L67.0209272,17.7424084 L67.0209272,18.9637696 C67.0209272,19.1178311 67.1459909,19.2427225 67.3002649,19.2427225 C67.4545389,19.2427225 67.5796026,19.1178311 67.5796026,18.9637696 L67.5796026,17.7223037 L68.802649,17.7223037 C68.9153599,17.7535154 69.0355518,17.7106166 69.1029173,17.6151319 C69.1702829,17.5196473 69.1702829,17.3921851 69.1029173,17.2967005 C69.0355518,17.2012159 68.9153599,17.158317 68.802649,17.1895288 L68.802649,17.1895288 Z" id="_Path_28" fill="#A81E37" fill-rule="nonzero"></path>
                                <path d="M22.8201325,12.4096335 L21.6021192,12.4096335 L21.6021192,11.1882723 C21.6021192,11.0342108 21.4770554,10.9093194 21.3227815,10.9093194 C21.1685075,10.9093194 21.0434437,11.0342108 21.0434437,11.1882723 L21.0434437,12.4096335 L19.8002649,12.4096335 C19.6459909,12.4096335 19.5209272,12.534525 19.5209272,12.6885864 C19.5209272,12.8426478 19.6459909,12.9675393 19.8002649,12.9675393 L21.0233113,12.9675393 L21.0233113,14.2039791 C21.0233113,14.3580405 21.148375,14.4829319 21.302649,14.4829319 C21.456923,14.4829319 21.5819868,14.3580405 21.5819868,14.2039791 L21.5819868,12.9675393 L22.8201325,12.9675393 C22.9744064,12.9675393 23.0994702,12.8426478 23.0994702,12.6885864 C23.0994702,12.534525 22.9744064,12.4096335 22.8201325,12.4096335 Z" id="_Path_29" fill="#A81E37" fill-rule="nonzero"></path>
                                <path d="M51.5088742,5.97109948 L49.3396026,5.97109948 L49.3396026,3.80481675 C49.3396026,3.52722861 49.1142625,3.30219895 48.8362914,3.30219895 C48.5583203,3.30219895 48.3329801,3.52722861 48.3329801,3.80481675 L48.3329801,5.97109948 L46.1637086,5.97109948 C45.8857375,5.97109948 45.6603974,6.19612913 45.6603974,6.47371728 C45.6603974,6.75130542 45.8857375,6.97633508 46.1637086,6.97633508 L48.3329801,6.97633508 L48.3329801,9.1426178 C48.3329801,9.42020595 48.5583203,9.6452356 48.8362914,9.6452356 C49.1142625,9.6452356 49.3396026,9.42020595 49.3396026,9.1426178 L49.3396026,6.95623037 L51.5088742,6.95623037 C51.7434498,6.90866338 51.9120278,6.70269805 51.9120278,6.46366492 C51.9120278,6.2246318 51.7434498,6.01866647 51.5088742,5.97109948 L51.5088742,5.97109948 Z" id="_Path_30" fill="#A81E37" fill-rule="nonzero"></path>
                                <path d="M17.5152318,16.9532984 L15.557351,16.9532984 L15.557351,14.9981152 C15.557351,14.581733 15.2193408,14.2441885 14.8023841,14.2441885 C14.3854274,14.2441885 14.0474172,14.581733 14.0474172,14.9981152 L14.0474172,16.9532984 L12.0895364,16.9532984 C11.6725797,16.9532984 11.3345695,17.2908429 11.3345695,17.7072251 C11.3345695,18.1236074 11.6725797,18.4611518 12.0895364,18.4611518 L14.0474172,18.4611518 L14.0474172,20.4163351 C14.0474172,20.8327173 14.3854274,21.1702618 14.8023841,21.1702618 C15.2193408,21.1702618 15.557351,20.8327173 15.557351,20.4163351 L15.557351,18.4611518 L17.5152318,18.4611518 C17.9321885,18.4611518 18.2701987,18.1236074 18.2701987,17.7072251 C18.2701987,17.2908429 17.9321885,16.9532984 17.5152318,16.9532984 L17.5152318,16.9532984 Z" id="_Path_31" fill="#A81E37" fill-rule="nonzero"></path>
                                <path d="M74.8121854,21.7432461 L72.9851656,21.7432461 L72.9851656,19.9187435 C72.9851656,19.5301201 72.6696894,19.2150785 72.2805298,19.2150785 C71.8913702,19.2150785 71.575894,19.5301201 71.575894,19.9187435 L71.575894,21.7432461 L69.7488742,21.7432461 C69.3597146,21.7432461 69.0442384,22.0582876 69.0442384,22.446911 C69.0442384,22.8355344 69.3597146,23.1505759 69.7488742,23.1505759 L71.575894,23.1505759 L71.575894,24.9750785 C71.575894,25.3637019 71.8913702,25.6787435 72.2805298,25.6787435 C72.6696894,25.6787435 72.9851656,25.3637019 72.9851656,24.9750785 L72.9851656,23.1505759 L74.8121854,23.1505759 C75.0639275,23.1505759 75.2965468,23.0164581 75.4224179,22.7987435 C75.548289,22.5810288 75.548289,22.3127932 75.4224179,22.0950785 C75.2965468,21.8773638 75.0639275,21.7432461 74.8121854,21.7432461 Z" id="_Path_32" fill="#A81E37" fill-rule="nonzero"></path>
                                <path d="M64.6251656,27.8098429 L64.6251656,26.4829319" id="_Path_33" stroke="#A81E37" stroke-linecap="round" stroke-linejoin="round"></path>
                                <path d="M64.6251656,31.9463874 L64.6251656,29.9158115" id="_Path_34" stroke="#A81E37" stroke-linecap="round" stroke-linejoin="round"></path>
                                <path d="M64.6251656,54.3380105 L64.6251656,34.0071204" id="_Path_35" stroke="#A81E37" stroke-linecap="round" stroke-linejoin="round"></path>
                            </g>
                        </g>
                    </g>
                </g>
            </g>
        </g>
    </g>
</svg>