<?xml version="1.0" encoding="UTF-8"?>
<svg width="65px" height="89px" viewBox="0 0 65 89" version="1.1" xmlns="http://www.w3.org/2000/svg" xmlns:xlink="http://www.w3.org/1999/xlink">
    <!-- Generator: Sketch 54.1 (76490) - https://sketchapp.com -->
    <title>3-Proizvodnja</title>
    <desc>Created with Sketch.</desc>
    <g id="1-UI" stroke="none" stroke-width="1" fill="none" fill-rule="evenodd">
        <g id="1.1.1-Homepage" transform="translate(-786.000000, -982.000000)">
            <g id="2-Servisi" transform="translate(120.000000, 840.000000)">
                <g id="Proizvodnja" transform="translate(622.000000, 111.000000)">
                    <g id="3-Proizvodnja" transform="translate(24.000000, 24.000000)">
                        <rect id="Background" x="0" y="0" width="104" height="104"></rect>
                        <g id="3-Proizvodnja-IVIS" transform="translate(20.000000, 6.000000)">
                            <g id="_Group_2" opacity="0.06" transform="translate(1.910448, 0.000000)" fill="#CD2037" fill-rule="nonzero">
                                <path d="M-1.78232198,21.423748 L53.0415902,21.1915189 C55.4459952,21.1813341 57.4034071,23.122233 57.4135919,25.5266381 C57.413644,25.5389318 57.413644,25.5512256 57.4135919,25.5635193 L57.4126235,25.7921646 C57.4025003,28.1821793 55.467519,30.1171612 53.0775043,30.1272851 L-1.74640786,30.3595142 C-4.15081289,30.369699 -6.10822473,28.4288001 -6.11840957,26.024395 C-6.11846165,26.0121013 -6.11846165,25.9998075 -6.11840958,25.9875138 L-6.11744112,25.7588685 C-6.10731796,23.3688538 -4.17233667,21.4338719 -1.78232198,21.423748 Z" id="_Rectangle_" transform="translate(25.647591, 25.775517) rotate(-44.760000) translate(-25.647591, -25.775517) "></path>
                                <g id="_Group_3" transform="translate(10.029851, 30.827225)">
                                    <path d="M16.6161194,6.42554974 L16.6161194,6.42554974 C15.7848481,5.58129951 15.3203211,4.43849967 15.3248,3.24872735 C15.3292788,2.05895503 15.8023964,0.919745245 16.64,0.0818848168 L0.0286567164,16.6948691 C0.865784782,15.8565254 1.99894387,15.3880463 3.17867918,15.3925633 C4.35841449,15.3970803 5.4880138,15.8742231 6.31880597,16.7189529 L6.31880597,16.7189529 C7.15007732,17.5632031 7.61460428,18.7060029 7.6101254,19.8957753 C7.60564653,21.0855476 7.13252899,22.2247574 6.29492537,23.0626178 L22.9110448,6.45445026 C22.0730883,7.29363586 20.9385459,7.76218679 19.7576383,7.75676514 C18.5767307,7.7513435 17.4464652,7.27239465 16.6161194,6.42554974 L16.6161194,6.42554974 Z" id="_Path_"></path>
                                </g>
                                <g id="_Group_4" transform="translate(18.626866, 38.052356)">
                                    <path d="M25.4710448,6.72418848 L25.4710448,6.72418848 C24.6397734,5.87993825 24.1752465,4.73713841 24.1797253,3.54736609 C24.1842042,2.35759377 24.6573218,1.21838399 25.4949254,0.38052356 L0.281791045,25.5962304 C1.11891911,24.7578867 2.2520782,24.2894076 3.43181351,24.2939246 C4.61154881,24.2984416 5.74114813,24.7755843 6.5719403,25.6203141 L6.5719403,25.6203141 C7.40321165,26.4645644 7.86773861,27.6073642 7.86325973,28.7971365 C7.85878086,29.9869088 7.38566332,31.1261186 6.5480597,31.9639791 L31.7373134,6.74827225 C29.9968276,8.47806755 27.1984071,8.4673121 25.4710448,6.72418848 L25.4710448,6.72418848 Z" id="_Path_2"></path>
                                </g>
                                <path d="M4.76361895,44.0337789 L51.4818408,43.8358848 C53.8862459,43.8256999 55.8436577,45.7665989 55.8538425,48.1710039 C55.8538946,48.1832976 55.8538946,48.1955915 55.8538426,48.2078852 L55.8528741,48.4365305 C55.8427509,50.8265452 53.9077696,52.761527 51.517755,52.7716509 L4.79953307,52.969545 C2.39512804,52.9797299 0.4377162,51.0388309 0.427531358,48.6344259 C0.427479283,48.6221322 0.427479282,48.6098383 0.427531353,48.5975446 L0.428499805,48.3688993 C0.438622971,45.9788847 2.37360426,44.0439028 4.76361895,44.0337789 Z" id="_Rectangle_2" transform="translate(28.140687, 48.402715) rotate(-44.760000) translate(-28.140687, -48.402715) "></path>
                                <path d="M7.78449569,61.3124396 L63.2894777,61.0773255 C65.6938828,61.0671407 67.6512946,63.0080397 67.6614794,65.4124447 C67.6615315,65.4247384 67.6615315,65.4370322 67.6614794,65.4493259 L67.660511,65.6779712 C67.6503878,68.0679859 65.7154065,70.0029678 63.3253919,70.0130917 L7.82040981,70.2482058 C5.41600479,70.2583906 3.45859295,68.3174916 3.44840811,65.9130866 C3.44835603,65.9007929 3.44835603,65.888499 3.4484081,65.8762053 L3.44937655,65.6475601 C3.45949972,63.2575454 5.39448101,61.3225635 7.78449569,61.3124396 Z" id="_Rectangle_3" transform="translate(35.554944, 65.662766) rotate(-44.760000) translate(-35.554944, -65.662766) "></path>
                            </g>
                            <rect id="_Rectangle_4" fill="#E07778" fill-rule="nonzero" x="23.0543284" y="31.6605236" width="4.19343284" height="4.17612565"></rect>
                            <polygon id="_Path_3" fill="#E07778" fill-rule="nonzero" points="16.5779104 20.6446073 22.1277612 27.7878534 22.9301493 26.3428272 25.1892537 25.3553927 21.8985075 20.495288"></polygon>
                            <g id="_Group_5" transform="translate(2.388060, 52.502618)" fill="#E07778" fill-rule="nonzero">
                                <path d="M54.1850746,0.332356021 L5.33970149,0.332356021 C3.98140548,0.329797936 2.67787294,0.872177343 1.71651541,1.83990681 C0.755157881,2.80763627 0.214923005,4.1212449 0.214925373,5.49109948 L0.214925373,5.49109948 C0.214925373,8.34019482 2.50508911,10.6498429 5.33014925,10.6498429 L54.1850746,10.6498429 C57.0101348,10.6498429 59.3002985,8.34019482 59.3002985,5.49109948 L59.3002985,5.49109948 C59.3002985,2.64200414 57.0101348,0.332356021 54.1850746,0.332356021 L54.1850746,0.332356021 Z M8.38208955,9.52753927 C6.77679701,9.52753927 5.32957191,8.55230724 4.71525306,7.05659234 C4.1009342,5.56087745 4.44050116,3.83923514 5.5756144,2.69446452 C6.71072764,1.5496939 8.41784604,1.20723796 9.90094296,1.82678335 C11.3840399,2.44632874 12.3510448,3.90586662 12.3510448,5.52481675 C12.3510448,7.73545936 10.574083,9.52753927 8.38208955,9.52753927 Z M22.7104478,9.52753927 C20.5184543,9.52753927 18.7414925,7.73545936 18.7414925,5.52481675 C18.7414925,3.31417415 20.5184543,1.52209424 22.7104478,1.52209424 C24.9024412,1.52209424 26.679403,3.31417415 26.679403,5.52481675 C26.6794152,6.58975144 26.2586372,7.61079035 25.5101766,8.36200274 C24.7617161,9.11321514 23.7472819,9.53266531 22.6913433,9.52753927 L22.7104478,9.52753927 Z M37.038806,9.52753927 C34.8468125,9.52753927 33.0698507,7.73545936 33.0698507,5.52481675 C33.0698507,3.31417415 34.8468125,1.52209424 37.038806,1.52209424 C39.2307994,1.52209424 41.0077612,3.31417415 41.0077612,5.52481675 C41.007838,6.59480328 40.5831316,7.62027965 39.8284461,8.37233583 C39.0737607,9.12439202 38.051928,9.54041516 36.9910448,9.52753927 L37.038806,9.52753927 Z M51.3671642,9.52753927 C49.1751707,9.52753927 47.398209,7.73545936 47.398209,5.52481675 C47.398209,3.31417415 49.1751707,1.52209424 51.3671642,1.52209424 C53.5591576,1.52209424 55.3361194,3.31417415 55.3361194,5.52481675 C55.3361962,6.59480328 54.9114898,7.62027965 54.1568043,8.37233583 C53.4021189,9.12439202 52.3802862,9.54041516 51.319403,9.52753927 L51.3671642,9.52753927 Z" id="_Compound_Path_"></path>
                            </g>
                            <g id="_Group_6" transform="translate(9.552239, 13.968586)" fill="#E07778" fill-rule="nonzero">
                                <path d="M0.0286567164,0.062617801 L0.0286567164,4.36879581 C0.0286567164,4.96921262 0.265159236,5.54503792 0.68613642,5.96959671 C1.1071136,6.39415551 1.67808119,6.63267016 2.27343284,6.63267016 L16.2053731,6.63267016 C16.8007248,6.63267016 17.3716924,6.39415551 17.7926696,5.96959671 C18.2136467,5.54503792 18.4501493,4.96921262 18.4501493,4.36879581 L18.4501493,0.062617801 L0.0286567164,0.062617801 Z M9.40895522,5.12984293 C8.45407962,5.12984293 7.68,4.34917756 7.68,3.38617801 C7.68,2.42317847 8.45407962,1.64251309 9.40895522,1.64251309 C10.3638308,1.64251309 11.1379104,2.42317847 11.1379104,3.38617801 C11.1391789,3.84862724 10.958237,4.29264373 10.6348904,4.62054804 C10.3115437,4.94845234 9.87227932,5.13338397 9.41373134,5.13465969 L9.40895522,5.12984293 Z" id="_Compound_Path_2"></path>
                            </g>
                            <ellipse id="_Path_4" stroke="#A81E38" stroke-width="0.959999886" stroke-linecap="round" stroke-linejoin="round" cx="18.9659701" cy="17.3547644" rx="1.72895522" ry="1.74366492"></ellipse>
                            <ellipse id="_Path_5" stroke="#A81E38" stroke-width="0.959999886" fill="#E07779" fill-rule="nonzero" stroke-linecap="round" stroke-linejoin="round" cx="25.1319403" cy="28.7704712" rx="1.46149254" ry="1.4739267"></ellipse>
                            <ellipse id="_Path_6" stroke="#A81E38" stroke-width="0.959999886" stroke-linecap="round" stroke-linejoin="round" cx="25.1271642" cy="28.7608377" rx="3.20955224" ry="3.23685864"></ellipse>
                            <path d="M9.58089552,14.0312042 L28.0023881,14.0312042 L28.0023881,18.3373822 C28.0023881,18.937799 27.7658855,19.5136243 27.3449084,19.9381831 C26.9239312,20.3627419 26.3529636,20.6012565 25.7576119,20.6012565 L11.8256716,20.6012565 C11.23032,20.6012565 10.6593524,20.3627419 10.2383752,19.9381831 C9.81739804,19.5136243 9.58089552,18.937799 9.58089552,18.3373822 L9.58089552,14.0312042 Z" id="_Rectangle_5" stroke="#A81E38" stroke-width="0.959999886" stroke-linecap="round" stroke-linejoin="round"></path>
                            <polyline id="_Path_7" stroke="#A81E38" stroke-width="0.959999886" stroke-linecap="round" stroke-linejoin="round" points="2.24955224 11.8106806 4.43223881 14.0119372 59.4531343 14.0119372 61.4495522 11.998534"></polyline>
                            <path d="M25.4423881,25.466178 L21.7313433,20.6060733" id="_Path_8" stroke="#A81E38" stroke-width="0.959999886" stroke-linecap="round" stroke-linejoin="round"></path>
                            <path d="M22.0752239,27.5662827 L16.4107463,20.6349738" id="_Path_9" stroke="#A81E38" stroke-width="0.959999886" stroke-linecap="round" stroke-linejoin="round"></path>
                            <path d="M27.2620896,40.0753927 L29.1725373,38.1486911 L29.1725373,36.4291099 C29.1725373,36.1418062 28.9415964,35.9089005 28.6567164,35.9089005 L21.5785075,35.9089005 C21.2936274,35.9089005 21.0626866,36.1418062 21.0626866,36.4291099 L21.0626866,38.1486911 L22.9731343,40.0753927" id="_Path_10" stroke="#A81E38" stroke-width="0.959999886" stroke-linecap="round" stroke-linejoin="round"></path>
                            <path d="M27.238209,35.7692147 L27.238209,31.222199" id="_Path_11" stroke="#A81E38" stroke-width="0.959999886" stroke-linecap="round" stroke-linejoin="round"></path>
                            <path d="M23.001791,31.3281675 L23.001791,35.8029319" id="_Path_12" stroke="#A81E38" stroke-width="0.959999886" stroke-linecap="round" stroke-linejoin="round"></path>
                            <rect id="_Rectangle_6" stroke="#A81E38" stroke-width="0.959999886" stroke-linecap="round" stroke-linejoin="round" x="2.61253731" y="52.8301571" width="59.0853731" height="10.3174869" rx="5.14079939"></rect>
                            <g id="_Group_7" transform="translate(6.686567, 53.947644)" stroke="#A81E38" stroke-linecap="round" stroke-linejoin="round" stroke-width="0.959999886">
                                <ellipse id="_Path_13" fill="#E07779" fill-rule="nonzero" cx="4.08358209" cy="4.09424084" rx="1.86746269" ry="1.88335079"></ellipse>
                                <ellipse id="_Path_14" cx="4.08358209" cy="4.09424084" rx="3.96895522" ry="4.00272251"></ellipse>
                            </g>
                            <g id="_Group_8" transform="translate(21.014925, 53.947644)" stroke="#A81E38" stroke-linecap="round" stroke-linejoin="round" stroke-width="0.959999886">
                                <ellipse id="_Path_15" fill="#E07779" fill-rule="nonzero" cx="4.06447761" cy="4.09424084" rx="1.86746269" ry="1.88335079"></ellipse>
                                <ellipse id="_Path_16" cx="4.06447761" cy="4.09424084" rx="3.96895522" ry="4.00272251"></ellipse>
                            </g>
                            <g id="_Group_9" transform="translate(35.343284, 53.947644)" stroke="#A81E38" stroke-linecap="round" stroke-linejoin="round" stroke-width="0.959999886">
                                <ellipse id="_Path_17" fill="#E07779" fill-rule="nonzero" cx="4.05014925" cy="4.09424084" rx="1.86746269" ry="1.88335079"></ellipse>
                                <ellipse id="_Path_18" cx="4.05014925" cy="4.09424084" rx="3.96895522" ry="4.00272251"></ellipse>
                            </g>
                            <g id="_Group_10" transform="translate(49.671642, 53.947644)" stroke="#A81E38" stroke-linecap="round" stroke-linejoin="round" stroke-width="0.959999886">
                                <ellipse id="_Path_19" fill="#E07779" fill-rule="nonzero" cx="4.0358209" cy="4.09424084" rx="1.86746269" ry="1.88335079"></ellipse>
                                <ellipse id="_Path_20" cx="4.0358209" cy="4.09424084" rx="3.96895522" ry="4.00272251"></ellipse>
                            </g>
                            <polygon id="_Path_21" stroke="#A81E38" stroke-width="0.959999886" fill="#E07779" fill-rule="nonzero" stroke-linecap="round" stroke-linejoin="round" points="5.89850746 73.6818848 9.75283582 73.6818848 11.7779104 76.6971728 3.87820896 76.6971728"></polygon>
                            <g id="_Group_11" transform="translate(6.686567, 65.507853)" stroke="#A81E38" stroke-linecap="round" stroke-linejoin="round" stroke-width="0.959999886">
                                <path d="M0.32,7.68272251 L0.32,0.101151832" id="_Path_22"></path>
                                <path d="M1.95820896,0.101151832 L1.95820896,7.68272251" id="_Path_23"></path>
                            </g>
                            <polygon id="_Path_24" stroke="#A81E38" stroke-width="0.959999886" fill="#E07779" fill-rule="nonzero" stroke-linecap="round" stroke-linejoin="round" points="54.6770149 73.6818848 58.5313433 73.6818848 60.5564179 76.6971728 52.6519403 76.6971728"></polygon>
                            <g id="_Group_12" transform="translate(55.402985, 65.507853)" stroke="#A81E38" stroke-linecap="round" stroke-linejoin="round" stroke-width="0.959999886">
                                <path d="M0.382089552,7.68272251 L0.382089552,0.101151832" id="_Path_25"></path>
                                <path d="M2.02029851,0.101151832 L2.02029851,7.68272251" id="_Path_26"></path>
                            </g>
                            <g id="_Group_13" transform="translate(6.686567, 42.869110)" stroke="#A81E38" stroke-linecap="round" stroke-linejoin="round" stroke-width="0.959999886">
                                <polyline id="_Path_27" points="0.405970149 7.5382199 0.405970149 0.216753927 8.85970149 0.216753927 8.85970149 7.5382199"></polyline>
                                <path d="M4.63283582,0.303455497 L4.63283582,2.37947644" id="_Path_28"></path>
                            </g>
                            <g id="_Group_14" transform="translate(21.014925, 42.869110)" stroke="#A81E38" stroke-linecap="round" stroke-linejoin="round" stroke-width="0.959999886">
                                <polyline id="_Path_29" points="0.0620895522 7.5382199 0.0620895522 0.216753927 8.5158209 0.216753927 8.5158209 7.5382199"></polyline>
                                <path d="M4.28895522,0.303455497 L4.28895522,2.37947644" id="_Path_30"></path>
                            </g>
                            <g id="_Group_15" transform="translate(34.865672, 42.869110)" stroke="#A81E38" stroke-linecap="round" stroke-linejoin="round" stroke-width="0.959999886">
                                <polyline id="_Path_31" points="0.191044776 7.5382199 0.191044776 0.216753927 8.64477612 0.216753927 8.64477612 7.5382199"></polyline>
                                <path d="M4.41791045,0.303455497 L4.41791045,2.37947644" id="_Path_32"></path>
                            </g>
                            <path d="M4.39880597,16.7623037 L7.40776119,16.7623037" id="_Path_33" stroke="#A81E38" stroke-width="0.959999886" fill="#E07779" fill-rule="nonzero" stroke-linecap="round" stroke-linejoin="round"></path>
                            <path d="M58.4023881,16.6948691 L59.2286567,16.6948691" id="_Path_34" stroke="#A81E38" stroke-width="0.959999886" fill="#E07779" fill-rule="nonzero" stroke-linecap="round" stroke-linejoin="round"></path>
                            <path d="M52.7856716,16.6948691 L56.0764179,16.6948691" id="_Path_35" stroke="#A81E38" stroke-width="0.959999886" fill="#E07779" fill-rule="nonzero" stroke-linecap="round" stroke-linejoin="round"></path>
                            <path d="M30.4525373,16.6948691 L50.2591045,16.6948691" id="_Path_37" stroke="#A81E38" stroke-width="0.959999886" fill="#E07779" fill-rule="nonzero" stroke-linecap="round" stroke-linejoin="round"></path>
                            <path d="M41.0220896,29.6760209 L39.8567164,29.6760209 L39.8567164,28.5055497 C39.8567164,28.3579075 39.7380385,28.2382199 39.5916418,28.2382199 C39.4452451,28.2382199 39.3265672,28.3579075 39.3265672,28.5055497 L39.3265672,29.6760209 L38.1659701,29.6760209 C38.0195735,29.6760209 37.9008955,29.7957086 37.9008955,29.9433508 C37.9008955,30.090993 38.0195735,30.2106806 38.1659701,30.2106806 L39.3265672,30.2106806 L39.3265672,31.3811518 C39.3265672,31.528794 39.4452451,31.6484817 39.5916418,31.6484817 C39.7380385,31.6484817 39.8567164,31.528794 39.8567164,31.3811518 L39.8567164,30.2106806 L41.0173134,30.2106806 C41.1120155,30.2115411 41.1999789,30.1613833 41.2480688,30.0791014 C41.2961587,29.9968195 41.297069,29.8949139 41.2504569,29.8117716 C41.2038447,29.7286292 41.1167916,29.6768814 41.0220896,29.6760209 L41.0220896,29.6760209 Z" id="_Path_38" fill="#A81E37" fill-rule="nonzero"></path>
                            <path d="M11.3623881,24.8255497 L10.1970149,24.8255497 L10.1970149,23.6550785 C10.1970149,23.5074363 10.078337,23.3877487 9.9319403,23.3877487 C9.78554362,23.3877487 9.66686567,23.5074363 9.66686567,23.6550785 L9.66686567,24.8255497 L8.50626866,24.8255497 C8.35987198,24.8255497 8.24119403,24.9452374 8.24119403,25.0928796 C8.24119403,25.2405218 8.35987198,25.3602094 8.50626866,25.3602094 L9.67164179,25.3602094 L9.67164179,26.5306806 C9.67164179,26.6783228 9.79031974,26.7980105 9.93671642,26.7980105 C10.0831131,26.7980105 10.201791,26.6783228 10.201791,26.5306806 L10.201791,25.3602094 L11.3623881,25.3602094 C11.5087847,25.3602094 11.6274627,25.2405218 11.6274627,25.0928796 C11.6274627,24.9452374 11.5087847,24.8255497 11.3623881,24.8255497 L11.3623881,24.8255497 Z" id="_Path_39" fill="#A81E37" fill-rule="nonzero"></path>
                            <path d="M56.7546269,40.3836649 L54.6961194,40.3836649 L54.6961194,38.307644 C54.6961194,38.041622 54.4822853,37.8259686 54.2185075,37.8259686 C53.9547297,37.8259686 53.7408955,38.041622 53.7408955,38.307644 L53.7408955,40.3836649 L51.7014925,40.3836649 C51.4377147,40.3836649 51.2238806,40.5993183 51.2238806,40.8653403 C51.2238806,41.1313623 51.4377147,41.3470157 51.7014925,41.3470157 L53.76,41.3470157 L53.76,43.4230366 C53.76,43.6890586 53.9738341,43.904712 54.2376119,43.904712 C54.5013897,43.904712 54.7152239,43.6890586 54.7152239,43.4230366 L54.7152239,41.3181152 L56.7737313,41.3181152 C56.9852677,41.2601435 57.1305167,41.0643918 57.1259979,40.8433664 C57.1214791,40.622341 56.9683529,40.4327937 56.7546269,40.3836649 Z" id="_Path_40" fill="#A81E37" fill-rule="nonzero"></path>
                            <path d="M5.86985075,27.6770681 L4.00716418,27.6770681 L4.00716418,25.8033508 C4.00716418,25.4043178 3.68641296,25.0808377 3.29074627,25.0808377 C2.89507958,25.0808377 2.57432836,25.4043178 2.57432836,25.8033508 L2.57432836,27.6770681 L0.71641791,27.6770681 C0.320751224,27.6770681 0,28.0005482 0,28.3995812 C0,28.7986141 0.320751224,29.1220942 0.71641791,29.1220942 L2.57432836,29.1220942 L2.57432836,30.9958115 C2.57432836,31.3948445 2.89507958,31.7183246 3.29074627,31.7183246 C3.68641296,31.7183246 4.00716418,31.3948445 4.00716418,30.9958115 L4.00716418,29.1220942 L5.86507463,29.1220942 C6.1210261,29.1229547 6.35799019,28.9860395 6.4867048,28.7629234 C6.61541942,28.5398073 6.61632974,28.2643869 6.48909286,28.0404103 C6.36185599,27.8164338 6.12580222,27.6779285 5.86985075,27.6770681 Z" id="_Path_41" fill="#A81E37" fill-rule="nonzero"></path>
                            <path d="M36.0358209,32.532356 L34.3020896,32.532356 L34.3020896,30.7838743 C34.3020896,30.4114436 34.0027217,30.1095288 33.6334328,30.1095288 C33.2641439,30.1095288 32.9647761,30.4114436 32.9647761,30.7838743 L32.9647761,32.532356 L31.2310448,32.532356 C30.8617559,32.532356 30.5623881,32.8342708 30.5623881,33.2067016 C30.5623881,33.5791323 30.8617559,33.8810471 31.2310448,33.8810471 L32.9647761,33.8810471 L32.9647761,35.6295288 C32.9647761,36.0019596 33.2641439,36.3038743 33.6334328,36.3038743 C34.0027217,36.3038743 34.3020896,36.0019596 34.3020896,35.6295288 L34.3020896,33.8810471 L36.0358209,33.8810471 C36.274709,33.8810472 36.4954507,33.7525177 36.6148947,33.5438744 C36.7343388,33.3352311 36.7343388,33.078172 36.6148947,32.8695287 C36.4954507,32.6608855 36.274709,32.532356 36.0358209,32.532356 L36.0358209,32.532356 Z" id="_Path_42" fill="#A81E37" fill-rule="nonzero"></path>
                            <path d="M45.841194,65.0020942 L44.0979104,65.0020942" id="_Path_43" stroke="#A81E38" stroke-width="0.959999886" stroke-linecap="round" stroke-linejoin="round"></path>
                            <path d="M41.4232836,65.006911 L7.57970149,65.006911 C3.73909686,65.006911 0.625671642,61.8669972 0.625671642,57.9937173 L0.625671642,57.9937173 C0.625671642,54.1204373 3.73909686,50.9805236 7.57970149,50.9805236 L56.7259701,50.9805236 C60.5665748,50.9805236 63.68,54.1204373 63.68,57.9937173 L63.68,57.9937173 C63.68,61.8669972 60.5665748,65.006911 56.7259701,65.006911 L48.5826866,65.006911" id="_Path_45" stroke="#A81E38" stroke-width="0.959999886" stroke-linecap="round" stroke-linejoin="round"></path>
                        </g>
                    </g>
                </g>
            </g>
        </g>
    </g>
</svg>