<?xml version="1.0" encoding="UTF-8"?>
<svg width="63px" height="92px" viewBox="0 0 63 92" version="1.1" xmlns="http://www.w3.org/2000/svg" xmlns:xlink="http://www.w3.org/1999/xlink">
    <!-- Generator: Sketch 54.1 (76490) - https://sketchapp.com -->
    <title>4-Racunovodstvo</title>
    <desc>Created with Sketch.</desc>
    <g id="1-UI" stroke="none" stroke-width="1" fill="none" fill-rule="evenodd">
        <g id="1.1.1-Homepage" transform="translate(-1099.000000, -981.000000)">
            <g id="2-Servisi" transform="translate(120.000000, 840.000000)">
                <g id="Racunovodstvo" transform="translate(933.000000, 111.000000)">
                    <g id="4-Racunovodstvo" transform="translate(24.000000, 24.000000)">
                        <rect id="Background" x="0" y="0" width="104" height="104"></rect>
                        <g id="4-Racunovodstvo-IVIS" transform="translate(20.000000, 4.000000)">
                            <ellipse id="_Path_6" fill="#A81E38" fill-rule="nonzero" cx="22.845" cy="18.1243979" rx="1.085" ry="1.09068063"></ellipse>
                            <rect id="_Rectangle_" fill="#E07778" fill-rule="nonzero" x="17.095" y="21.3763351" width="11.495" height="1.33193717" rx="0.665"></rect>
                            <g id="_Group_2" opacity="0.06" fill="#CD2037" fill-rule="nonzero">
                                <path d="M-1.76740784,22.3019872 L55.5644239,22.1522977 C58.0690267,22.1457584 60.1047097,24.1708389 60.111249,26.6754417 C60.1112696,26.6833352 60.1112696,26.6912288 60.111249,26.6991223 L60.1105454,26.9686186 C60.1040305,29.4639786 58.0827614,31.4852479 55.5874014,31.4917631 L-1.74443038,31.6414526 C-4.24903318,31.647992 -6.28471611,29.6229114 -6.29125545,27.1183086 C-6.29127606,27.1104151 -6.29127606,27.1025216 -6.29125546,27.0946281 L-6.29055185,26.8251317 C-6.28403692,24.3297717 -4.26276783,22.3085024 -1.76740784,22.3019872 Z" id="_Rectangle_2" transform="translate(26.909997, 26.896875) rotate(-44.760000) translate(-26.909997, -26.896875) "></path>
                                <g id="_Group_3" transform="translate(10.500000, 32.167539)">
                                    <path d="M17.455,6.70492147 L17.455,6.70492147 C16.5847628,5.82396471 16.0984611,4.63147792 16.10315,3.38997636 C16.1078388,2.14847481 16.6031337,0.959734169 17.48,0.0854450262 L0.075,17.420733 C0.951368444,16.5459396 2.13764437,16.0570918 3.37267976,16.0618052 C4.60771516,16.0665186 5.79026445,16.5644067 6.66,17.4458639 L6.66,17.4458639 C7.53023719,18.3268206 8.01653885,19.5193074 8.01185003,20.760809 C8.00716121,22.0023105 7.51186629,23.1910512 6.635,24.0653403 L24.03,6.73507853 C22.2047883,8.54871554 19.2636719,8.53522574 17.455,6.70492147 L17.455,6.70492147 Z" id="_Path_7"></path>
                                </g>
                                <g id="_Group_4" transform="translate(19.500000, 39.706806)">
                                    <path d="M26.72,7.0165445 L26.72,7.0165445 C25.8497628,6.13558774 25.3634611,4.94310095 25.36815,3.7015994 C25.3728388,2.46009785 25.8681337,1.27135721 26.745,0.397068063 L0.35,26.7091099 C1.22636844,25.8343165 2.41264437,25.3454688 3.64767976,25.3501822 C4.88271516,25.3548955 6.06526445,25.8527836 6.935,26.7342408 L6.935,26.7342408 C7.80523719,27.6151976 8.29153885,28.8076844 8.28685003,30.0491859 C8.28216121,31.2906875 7.78686629,32.4794281 6.91,33.3537173 L33.305,7.04167539 C32.4286316,7.9164688 31.2423556,8.40531654 30.0073202,8.40060317 C28.7722848,8.3958898 27.5897356,7.89800172 26.72,7.0165445 L26.72,7.0165445 Z" id="_Path_8"></path>
                                </g>
                                <path d="M5.07851935,45.901917 L53.938416,45.7743471 C56.4430188,45.7678078 58.4787017,47.7928883 58.4852411,50.2974911 C58.4852617,50.3053846 58.4852617,50.3132782 58.4852411,50.3211717 L58.4845375,50.590668 C58.4780225,53.086028 56.4567535,55.1072973 53.9613935,55.1138126 L5.10149681,55.2413824 C2.59689401,55.2479217 0.561211082,53.2228412 0.554671735,50.7182384 C0.554651126,50.7103449 0.554651125,50.7024513 0.554671734,50.6945578 L0.55537534,50.4250615 C0.561890269,47.9297015 2.58315936,45.9084322 5.07851935,45.901917 Z" id="_Rectangle_3" transform="translate(29.519956, 50.507865) rotate(-44.760000) translate(-29.519956, -50.507865) "></path>
                                <path d="M8.24843037,63.92942 L66.2921052,63.7778719 C68.796708,63.7713326 70.8323909,65.7964131 70.8389303,68.3010159 C70.8389509,68.3089094 70.8389509,68.316803 70.8389303,68.3246965 L70.8382267,68.5941928 C70.8317117,71.0895528 68.8104427,73.1108221 66.3150827,73.1173374 L8.27140784,73.2688854 C5.76680503,73.2754248 3.73112211,71.2503442 3.72458276,68.7457414 C3.72456215,68.7378479 3.72456215,68.7299544 3.72458276,68.7220609 L3.72528636,68.4525645 C3.73180129,65.9572045 5.75307039,63.9359352 8.24843037,63.92942 Z" id="_Rectangle_4" transform="translate(37.281757, 68.523379) rotate(-44.760000) translate(-37.281757, -68.523379) "></path>
                            </g>
                            <polygon id="_Path_9" fill="#E07778" fill-rule="nonzero" points="14.905 49.8898429 16.355 55.9564398 22.98 54.5189529 23.115 57.3336126 21.625 60.6910995 18.85 62.3497382 15.51 62.6312042 12.57 61.2188482 10.155 57.740733 10.275 54.1369634 12.005 51.4278534"></polygon>
                            <polygon id="_Path_10" fill="#E07778" fill-rule="nonzero" points="16.64 48.4573822 17.715 53.9560209 23.545 52.5486911 22.405 50.3874346 20.22 48.7489005"></polygon>
                            <polygon id="_Path_11" fill="#E07778" fill-rule="nonzero" points="13.62 19.4412565 13.95 21.8437696 8.465 21.8437696 7.56 22.673089 7.56 66.8632461 8.51 67.6925654 27.145 67.8584293 27.025 70.1805236 7.23 70.1805236 5.745 69.3512042 4.88 67.3206283 5.085 21.6376963 5.83 20.2705759 7.69 19.4362304"></polygon>
                            <polygon id="_Path_12" fill="#E07778" fill-rule="nonzero" points="31.685 19.4312042 31.5 21.7432461 37.17 21.8387435 38 22.7736126 37.855 36.0376963 40.735 36.0879581 40.54 21.3009424 38.88 19.5819895"></polygon>
                            <path d="M27.175,70.0649215 L7.675,70.0649215 C6.19763829,70.0649215 5,68.8610128 5,67.3759162 L5,22.1403141 C5,20.6552176 6.19763829,19.4513089 7.675,19.4513089 L18.35,19.4513089" id="_Path_13" stroke="#A81E38" stroke-linecap="round" stroke-linejoin="round"></path>
                            <path d="M27.075,19.4362304 L37.855,19.4362304 C39.3323617,19.4362304 40.53,20.640139 40.53,22.1252356 L40.53,35.9572775" id="_Path_14" stroke="#A81E38" stroke-linecap="round" stroke-linejoin="round"></path>
                            <path d="M27.12,67.6624084 L8.735,67.6624084 C8.10263396,67.6624084 7.59,67.1470905 7.59,66.5114136 L7.59,23.0098429 C7.59,22.3741661 8.10263396,21.8588482 8.735,21.8588482 L13.82,21.8588482" id="_Path_15" stroke="#A81E38" stroke-linecap="round" stroke-linejoin="round"></path>
                            <path d="M31.74,21.8387435 L36.805,21.8387435 C37.437366,21.8387435 37.95,22.3540614 37.95,22.9897382 L37.95,35.8416754" id="_Path_16" stroke="#A81E38" stroke-linecap="round" stroke-linejoin="round"></path>
                            <g id="_Group_5" transform="translate(10.000000, 48.251309)" stroke="#A81E38" stroke-linecap="round" stroke-linejoin="round">
                                <path d="M4.955,1.44251309 C1.46638699,2.35707469 -0.632663613,5.93199656 0.25675859,9.44415248 C1.14618079,12.9563084 4.69017204,15.0871771 8.18916691,14.2136115 C11.6881618,13.3400458 13.8285799,9.78999667 12.98,6.26764398 L6.48,7.8408377 L4.955,1.44251309 Z" id="_Path_17"></path>
                                <path d="M6.525,0.170890052 L6.425,0.20104712 L7.775,5.83036649 L13.48,4.44314136 C12.7322824,1.33331725 9.61903077,-0.579061397 6.525,0.170890052 L6.525,0.170890052 Z" id="_Path_18"></path>
                            </g>
                            <path d="M27.15,19.4312042 L31.765,19.4312042 L31.765,21.5019895 C31.765,22.9815343 30.5718389,24.1809424 29.1,24.1809424 L16.575,24.1809424 C15.1031611,24.1809424 13.91,22.9815343 13.91,21.5019895 L13.91,19.4161257 L18.525,19.4161257 L18.525,17.4910995 C18.525,16.0115547 19.7181611,14.8121466 21.19,14.8121466 L24.465,14.8121466 C25.9368389,14.8121466 27.13,16.0115547 27.13,17.4910995 L27.13,19.4161257 L27.15,19.4312042 Z" id="_Path_19" stroke="#A81E38" stroke-linecap="round" stroke-linejoin="round"></path>
                            <path d="M10.62,27.1815707 L25.6,27.1815707" id="_Path_20" stroke="#A81E38" stroke-linecap="round" stroke-linejoin="round"></path>
                            <path d="M32.37,27.1815707 L32.955,27.1815707" id="_Path_21" stroke="#A81E38" stroke-linecap="round" stroke-linejoin="round"></path>
                            <path d="M27.72,27.1815707 L30.02,27.1815707" id="_Path_22" stroke="#A81E38" stroke-linecap="round" stroke-linejoin="round"></path>
                            <path d="M32.37,29.6242932 L32.955,29.6242932" id="_Path_23" stroke="#A81E38" stroke-linecap="round" stroke-linejoin="round"></path>
                            <path d="M27.72,29.6242932 L30.02,29.6242932" id="_Path_24" stroke="#A81E38" stroke-linecap="round" stroke-linejoin="round"></path>
                            <path d="M32.37,32.0619895 L32.955,32.0619895" id="_Path_25" stroke="#A81E38" stroke-linecap="round" stroke-linejoin="round"></path>
                            <path d="M27.72,32.0619895 L30.02,32.0619895" id="_Path_26" stroke="#A81E38" stroke-linecap="round" stroke-linejoin="round"></path>
                            <path d="M10.62,29.6242932 L25.6,29.6242932" id="_Path_27" stroke="#A81E38" stroke-linecap="round" stroke-linejoin="round"></path>
                            <path d="M10.62,32.0619895 L25.6,32.0619895" id="_Path_28" stroke="#A81E38" stroke-linecap="round" stroke-linejoin="round"></path>
                            <path d="M10.62,38.3045026 L18.24,38.3045026" id="_Path_29" stroke="#A81E38" stroke-linecap="round" stroke-linejoin="round"></path>
                            <path d="M10.62,40.8678534 L18.24,40.8678534" id="_Path_30" stroke="#A81E38" stroke-linecap="round" stroke-linejoin="round"></path>
                            <path d="M10.62,43.426178 L18.24,43.426178" id="_Path_31" stroke="#A81E38" stroke-linecap="round" stroke-linejoin="round"></path>
                            <rect id="_Rectangle_5" stroke="#A81E38" stroke-linecap="round" stroke-linejoin="round" x="29.9" y="38.7920419" width="22.24" height="6.93612565" rx="1.195"></rect>
                            <g id="_Group_6" transform="translate(29.500000, 49.759162)" stroke="#A81E38" stroke-linecap="round" stroke-linejoin="round">
                                <rect id="_Rectangle_6" x="0.4" y="0.276439791" width="4.955" height="4.10638743" rx="0.685"></rect>
                                <rect id="_Rectangle_7" x="17.68" y="0.276439791" width="4.955" height="4.10638743" rx="0.685"></rect>
                                <rect id="_Rectangle_8" x="9.04" y="0.276439791" width="4.955" height="4.10638743" rx="0.685"></rect>
                            </g>
                            <g id="_Group_7" transform="translate(29.500000, 57.801047)" stroke="#A81E38" stroke-linecap="round" stroke-linejoin="round">
                                <rect id="_Rectangle_9" x="0.4" y="0.155811518" width="4.955" height="4.10638743" rx="0.685"></rect>
                                <rect id="_Rectangle_10" x="17.68" y="0.155811518" width="4.955" height="4.10638743" rx="0.685"></rect>
                                <rect id="_Rectangle_11" x="9.04" y="0.155811518" width="4.955" height="4.10638743" rx="0.685"></rect>
                            </g>
                            <g id="_Group_8" transform="translate(29.500000, 65.842932)" stroke="#A81E38" stroke-linecap="round" stroke-linejoin="round">
                                <rect id="_Rectangle_12" x="0.4" y="0.0351832461" width="4.955" height="4.10638743" rx="0.685"></rect>
                                <rect id="_Rectangle_13" x="17.68" y="0.0351832461" width="4.955" height="4.10638743" rx="0.685"></rect>
                                <rect id="_Rectangle_14" x="9.04" y="0.0351832461" width="4.955" height="4.10638743" rx="0.685"></rect>
                            </g>
                            <path d="M52.29,35.9019895 L29.75,35.9019895 C28.2864454,35.9019895 27.1,37.0946467 27.1,38.5658639 L27.1,73.3671204 C27.1,74.8383376 28.2864454,76.0309948 29.75,76.0309948 L52.29,76.0309948 C53.7535546,76.0309948 54.94,74.8383376 54.94,73.3671204 L54.94,38.5608377 C54.9372423,37.0915837 53.7516042,35.9019869 52.29,35.9019895 L52.29,35.9019895 Z M34.86,69.2959162 C34.86,69.676212 34.5533151,69.9845026 34.175,69.9845026 L30.575,69.9845026 C30.1966849,69.9845026 29.89,69.676212 29.89,69.2959162 L29.89,66.5667016 C29.89,66.1864058 30.1966849,65.8781152 30.575,65.8781152 L34.16,65.8781152 C34.5383151,65.8781152 34.845,66.1864058 34.845,66.5667016 L34.845,69.2959162 L34.86,69.2959162 Z M34.86,61.3746597 C34.86,61.7549554 34.5533151,62.0632461 34.175,62.0632461 L30.575,62.0632461 C30.1966849,62.0632461 29.89,61.7549554 29.89,61.3746597 L29.89,58.645445 C29.89,58.2651493 30.1966849,57.9568586 30.575,57.9568586 L34.16,57.9568586 C34.5383151,57.9568586 34.845,58.2651493 34.845,58.645445 L34.845,61.3746597 L34.86,61.3746597 Z M34.86,53.4534031 C34.86,53.8336989 34.5533151,54.1419895 34.175,54.1419895 L30.575,54.1419895 C30.1966849,54.1419895 29.89,53.8336989 29.89,53.4534031 L29.89,50.7241885 C29.89,50.3438927 30.1966849,50.0356021 30.575,50.0356021 L34.16,50.0356021 C34.5383151,50.0356021 34.845,50.3438927 34.845,50.7241885 L34.845,53.4534031 L34.86,53.4534031 Z M43.5,69.2908901 C43.5,69.6711858 43.1933151,69.9794764 42.815,69.9794764 L39.23,69.9794764 C38.8516849,69.9794764 38.545,69.6711858 38.545,69.2908901 L38.545,66.5616754 C38.545,66.1813796 38.8516849,65.873089 39.23,65.873089 L42.815,65.873089 C43.1933151,65.873089 43.5,66.1813796 43.5,66.5616754 L43.5,69.2908901 L43.5,69.2908901 Z M43.5,61.3696335 C43.5,61.7499293 43.1933151,62.0582199 42.815,62.0582199 L39.23,62.0582199 C38.8516849,62.0582199 38.545,61.7499293 38.545,61.3696335 L38.545,58.6404188 C38.545,58.2601231 38.8516849,57.9518325 39.23,57.9518325 L42.815,57.9518325 C43.1933151,57.9518325 43.5,58.2601231 43.5,58.6404188 L43.5,61.3696335 L43.5,61.3696335 Z M43.5,53.448377 C43.5,53.8286727 43.1933151,54.1369634 42.815,54.1369634 L39.23,54.1369634 C38.8516849,54.1369634 38.545,53.8286727 38.545,53.448377 L38.545,50.7191623 C38.545,50.3388665 38.8516849,50.0305759 39.23,50.0305759 L42.815,50.0305759 C43.1933151,50.0305759 43.5,50.3388665 43.5,50.7191623 L43.5,53.448377 L43.5,53.448377 Z M52.14,69.2858639 C52.14,69.6661596 51.8333151,69.9744503 51.455,69.9744503 L47.87,69.9744503 C47.4916849,69.9744503 47.185,69.6661596 47.185,69.2858639 L47.185,66.5566492 C47.185,66.1763535 47.4916849,65.8680628 47.87,65.8680628 L51.455,65.8680628 C51.6366733,65.8680628 51.8109057,65.9406101 51.9393681,66.0697451 C52.0678306,66.1988801 52.14,66.3740248 52.14,66.5566492 L52.14,69.2858639 L52.14,69.2858639 Z M52.14,61.3646073 C52.14,61.7449031 51.8333151,62.0531937 51.455,62.0531937 L47.87,62.0531937 C47.4916849,62.0531937 47.185,61.7449031 47.185,61.3646073 L47.185,58.6353927 C47.185,58.2550969 47.4916849,57.9468063 47.87,57.9468063 L51.455,57.9468063 C51.6366733,57.9468063 51.8109057,58.0193536 51.9393681,58.1484886 C52.0678306,58.2776236 52.14,58.4527682 52.14,58.6353927 L52.14,61.3646073 L52.14,61.3646073 Z M52.14,53.4433508 C52.14,53.8236465 51.8333151,54.1319372 51.455,54.1319372 L47.87,54.1319372 C47.4916849,54.1319372 47.185,53.8236465 47.185,53.4433508 L47.185,50.7141361 C47.185,50.3338404 47.4916849,50.0255497 47.87,50.0255497 L51.455,50.0255497 C51.6366733,50.0255497 51.8109057,50.098097 51.9393681,50.227232 C52.0678306,50.356367 52.14,50.5315117 52.14,50.7141361 L52.14,53.4433508 L52.14,53.4433508 Z M52.14,44.5168586 C52.14,45.1802943 51.6049803,45.7181152 50.945,45.7181152 L31.075,45.7181152 C30.4150197,45.7181152 29.88,45.1802943 29.88,44.5168586 L29.88,39.9932984 C29.88,39.3298628 30.4150197,38.7920419 31.075,38.7920419 L50.92,38.7920419 C51.5799803,38.7920419 52.115,39.3298628 52.115,39.9932984 L52.115,44.5168586 L52.14,44.5168586 Z" id="_Compound_Path_" stroke="#A81E38" fill="#E07779" fill-rule="nonzero" stroke-linecap="round" stroke-linejoin="round"></path>
                            <path d="M39.815,43.7629319 L31.895,43.7629319 C31.8443068,43.765893 31.8002596,43.7282569 31.795,43.6774869 L31.795,40.7220942 C31.8002596,40.6713243 31.8443068,40.6336881 31.895,40.6366492 L33.755,40.6366492" id="_Path_32" stroke="#A81E38" stroke-linecap="round" stroke-linejoin="round"></path>
                            <path d="M41.975,43.7629319 L41.17,43.7629319" id="_Path_33" stroke="#A81E38" stroke-linecap="round" stroke-linejoin="round"></path>
                            <path d="M43.645,43.7629319 L43.41,43.7629319" id="_Path_36" stroke="#A81E38" stroke-linecap="round" stroke-linejoin="round"></path>
                            <path d="M36.04,40.6366492 L35.395,40.6366492" id="_Path_37" stroke="#A81E38" stroke-linecap="round" stroke-linejoin="round"></path>
                            <path d="M30.455,72.5780105 L44.43,72.5780105" id="_Path_38" stroke="#A81E38" stroke-linecap="round" stroke-linejoin="round"></path>
                            <path d="M51.205,72.5780105 L51.79,72.5780105" id="_Path_39" stroke="#A81E38" stroke-linecap="round" stroke-linejoin="round"></path>
                            <path d="M46.555,72.5780105 L48.855,72.5780105" id="_Path_40" stroke="#A81E38" stroke-linecap="round" stroke-linejoin="round"></path>
                            <path d="M55.165,27.3725654 L53.95,27.3725654 L53.95,26.1512042 C53.95,25.9971428 53.825759,25.8722513 53.6725,25.8722513 C53.519241,25.8722513 53.395,25.9971428 53.395,26.1512042 L53.395,27.3725654 L52.18,27.3725654 C52.026741,27.3725654 51.9025,27.4974569 51.9025,27.6515183 C51.9025,27.8055797 52.026741,27.9304712 52.18,27.9304712 L53.395,27.9304712 L53.395,29.1518325 C53.395,29.3058939 53.519241,29.4307853 53.6725,29.4307853 C53.825759,29.4307853 53.95,29.3058939 53.95,29.1518325 L53.95,27.9304712 L55.165,27.9304712 C55.2641412,27.9304712 55.3557514,27.8773031 55.405322,27.7909948 C55.4548927,27.7046864 55.4548927,27.5983502 55.405322,27.5120419 C55.3557514,27.4257336 55.2641412,27.3725654 55.165,27.3725654 Z" id="_Path_41" fill="#A81E37" fill-rule="nonzero"></path>
                            <path d="M59.5,47.2108901 L58.285,47.2108901 L58.285,45.9895288 C58.285,45.8354674 58.160759,45.7105759 58.0075,45.7105759 C57.854241,45.7105759 57.73,45.8354674 57.73,45.9895288 L57.73,47.2108901 L56.515,47.2108901 C56.361741,47.2108901 56.2375,47.3357815 56.2375,47.4898429 C56.2375,47.6439044 56.361741,47.7687958 56.515,47.7687958 L57.73,47.7687958 L57.73,48.9901571 C57.73,49.1442185 57.854241,49.2691099 58.0075,49.2691099 C58.160759,49.2691099 58.285,49.1442185 58.285,48.9901571 L58.285,47.7687958 L59.5,47.7687958 C59.653259,47.7687958 59.7775,47.6439044 59.7775,47.4898429 C59.7775,47.3357815 59.653259,47.2108901 59.5,47.2108901 Z" id="_Path_42" fill="#A81E37" fill-rule="nonzero"></path>
                            <path d="M23.82,75.0056545 L21.665,75.0056545 L21.665,72.8393717 C21.665,72.5617836 21.4411424,72.3367539 21.165,72.3367539 C20.8888576,72.3367539 20.665,72.5617836 20.665,72.8393717 L20.665,75.0056545 L18.51,75.0056545 C18.2338576,75.0056545 18.01,75.2306841 18.01,75.5082723 C18.01,75.7858604 18.2338576,76.0108901 18.51,76.0108901 L20.665,76.0108901 L20.665,78.1771728 C20.665,78.4547609 20.8888576,78.6797906 21.165,78.6797906 C21.4411424,78.6797906 21.665,78.4547609 21.665,78.1771728 L21.665,76.0108901 L23.82,76.0108901 C24.0961424,76.0108901 24.32,75.7858604 24.32,75.5082723 C24.32,75.2306841 24.0961424,75.0056545 23.82,75.0056545 Z" id="_Path_43" fill="#A81E37" fill-rule="nonzero"></path>
                            <path d="M63.845,52.2169634 L61.9,52.2169634 L61.9,50.2617801 C61.9,49.8453979 61.5642136,49.5078534 61.15,49.5078534 C60.7357864,49.5078534 60.4,49.8453979 60.4,50.2617801 L60.4,52.2169634 L58.455,52.2169634 C58.0407864,52.2169634 57.705,52.5545078 57.705,52.9708901 C57.705,53.3872723 58.0407864,53.7248168 58.455,53.7248168 L60.4,53.7248168 L60.4,55.68 C60.4,56.0963822 60.7357864,56.4339267 61.15,56.4339267 C61.5642136,56.4339267 61.9,56.0963822 61.9,55.68 L61.9,53.7248168 L63.845,53.7248168 C64.2592136,53.7248168 64.595,53.3872723 64.595,52.9708901 C64.595,52.5545078 64.2592136,52.2169634 63.845,52.2169634 L63.845,52.2169634 Z" id="_Path_44" fill="#A81E37" fill-rule="nonzero"></path>
                            <path d="M49.935,30.3480628 L48.125,30.3480628 L48.125,28.5386387 C48.125,28.1500153 47.8115993,27.8349738 47.425,27.8349738 C47.0384007,27.8349738 46.725,28.1500153 46.725,28.5386387 L46.725,30.3631414 L44.91,30.3631414 C44.5234007,30.3631414 44.21,30.6781829 44.21,31.0668063 C44.21,31.4554297 44.5234007,31.7704712 44.91,31.7704712 L46.725,31.7704712 L46.725,33.5648168 C46.725,33.9534402 47.0384007,34.2684817 47.425,34.2684817 C47.8115993,34.2684817 48.125,33.9534402 48.125,33.5648168 L48.125,31.7553927 L49.94,31.7553927 C50.3265993,31.7540047 50.6388806,31.437838 50.6374999,31.0492147 C50.6361192,30.6605913 50.3215993,30.3466749 49.935,30.3480628 L49.935,30.3480628 Z" id="_Path_45" fill="#A81E37" fill-rule="nonzero"></path>
                        </g>
                    </g>
                </g>
            </g>
        </g>
    </g>
</svg>