<svg xmlns="http://www.w3.org/2000/svg" width="59" height="70"><g fill="none" fill-rule="evenodd"><path d="M-14-9h88v88h-88z"/><g fill="#DA251C" fill-rule="nonzero"><path d="M18.675 52.05a.588.588 0 0 1-.544.32.57.57 0 0 1-.532-.32l-1.422-2.654v5.382c0 .332-.408.504-.804.504-.408 0-.804-.172-.804-.504v-7.681c0-.59.396-.798.804-.798.581 0 .841.122 1.25.847l1.52 2.753 1.522-2.753c.408-.725.68-.847 1.261-.847.408 0 .804.208.804.798v7.681c0 .332-.408.504-.804.504-.408 0-.804-.172-.804-.504v-5.284l-1.447 2.556ZM26.206 50.157h1.88c.321 0 .506.308.506.64 0 .282-.16.614-.506.614h-1.88v2.47h3.5c.321 0 .507.332.507.713 0 .332-.161.688-.508.688h-4.402c-.358 0-.705-.172-.705-.504v-7.976c0-.332.346-.504.705-.504h4.402c.347 0 .508.357.508.688 0 .382-.186.713-.508.713h-3.5v2.458ZM36.804 54.778l-2.66-4.94v4.94c0 .332-.407.504-.803.504-.408 0-.804-.172-.804-.504v-7.976c0-.344.396-.503.804-.503.581 0 .816.122 1.2.847l2.387 4.584v-4.94c0-.344.395-.492.804-.492.395 0 .803.147.803.492v7.988c0 .332-.408.504-.803.504-.384 0-.718-.122-.928-.504ZM45.695 46.79c0-.344.396-.491.804-.491.396 0 .804.147.804.49v5.753c0 2.052-1.311 2.814-2.968 2.814-1.67 0-2.969-.762-2.969-2.814V46.79c0-.344.396-.491.804-.491.396 0 .804.147.804.49v5.753c0 .958.507 1.413 1.36 1.413.854 0 1.36-.455 1.36-1.413V46.79h.001ZM48.875 57.716h-5.88c-.576 0-1.044.464-1.044 1.037a1.04 1.04 0 0 0 1.045 1.038h5.879a1.04 1.04 0 0 0 1.044-1.038 1.04 1.04 0 0 0-1.044-1.037ZM38.137 57.716H14.344c-.576 0-1.044.464-1.044 1.037a1.04 1.04 0 0 0 1.044 1.038h23.793a1.04 1.04 0 0 0 1.044-1.038 1.04 1.04 0 0 0-1.044-1.037ZM48.875 41.869h-34.53c-.577 0-1.045.465-1.045 1.038s.468 1.037 1.044 1.037h34.53a1.04 1.04 0 0 0 1.045-1.037 1.04 1.04 0 0 0-1.044-1.038ZM48.294 29.002H47.28c-.391-7.15-5.65-13.035-12.534-14.428l.201-1.914a2.213 2.213 0 0 0-.562-1.717 2.243 2.243 0 0 0-1.66-.734h-2.23c-.633 0-1.238.268-1.661.734a2.214 2.214 0 0 0-.562 1.717l.202 1.914c-6.884 1.393-12.143 7.277-12.535 14.427h-1.013c-.897 0-1.626.725-1.626 1.616v2.142c0 .89.73 1.615 1.626 1.615h33.367c.896 0 1.626-.725 1.626-1.615v-2.142c0-.89-.729-1.615-1.625-1.615Zm-17.908-16.67a.141.141 0 0 1 .108-.048h2.231c.043 0 .08.016.109.048.029.032.041.07.036.112l-.195 1.854a15.987 15.987 0 0 0-1.065-.037c-.358 0-.713.014-1.065.037l-.196-1.854a.142.142 0 0 1 .037-.112ZM47.83 32.299H15.39v-1.222h4.4c.578 0 1.046-.464 1.046-1.037s-.468-1.038-1.045-1.038h-1.758c.446-7.058 6.365-12.665 13.577-12.665 7.213 0 13.132 5.607 13.578 12.665H24.65a1.04 1.04 0 0 0-1.044 1.038 1.04 1.04 0 0 0 1.044 1.037H47.83V32.3Z"/><path d="M56.335 0H6.885a2.654 2.654 0 0 0-2.66 2.643v1.874h-.974C1.46 4.517 0 5.967 0 7.75 0 9.53 1.459 10.98 3.251 10.98h.975v4.438H3.25C1.46 15.418 0 16.868 0 18.649c0 1.782 1.459 3.231 3.251 3.231h.975v4.438H3.25C1.46 26.318 0 27.768 0 29.55c0 1.782 1.459 3.231 3.251 3.231h.975v4.438H3.25C1.46 37.219 0 38.669 0 40.45c0 1.782 1.459 3.232 3.251 3.232h.975v4.438H3.25C1.46 48.12 0 49.57 0 51.35c0 1.783 1.459 3.232 3.251 3.232h.975v4.438H3.25C1.46 59.02 0 60.47 0 62.251c0 1.782 1.459 3.232 3.251 3.232h.975v1.874A2.654 2.654 0 0 0 6.885 70h49.45a2.655 2.655 0 0 0 2.66-2.643V2.643A2.655 2.655 0 0 0 56.334 0ZM4.225 8.905h-.974a1.16 1.16 0 0 1-1.163-1.156 1.16 1.16 0 0 1 1.163-1.156h.974v2.312Zm0 10.9h-.974a1.16 1.16 0 0 1-1.163-1.156 1.16 1.16 0 0 1 1.163-1.155h.974v2.311Zm0 10.9h-.974a1.16 1.16 0 0 1-1.163-1.155 1.16 1.16 0 0 1 1.163-1.156h.974v2.312Zm0 10.901h-.974a1.16 1.16 0 0 1-1.163-1.156 1.16 1.16 0 0 1 1.163-1.156h.974v2.312Zm0 10.9h-.974a1.16 1.16 0 0 1-1.163-1.155 1.16 1.16 0 0 1 1.163-1.156h.974v2.311Zm0 10.901h-.974a1.16 1.16 0 0 1-1.163-1.156 1.16 1.16 0 0 1 1.163-1.155h.974v2.311Zm52.68 3.95a.57.57 0 0 1-.57.568H6.885a.57.57 0 0 1-.571-.568V2.643a.57.57 0 0 1 .57-.568h49.45a.57.57 0 0 1 .571.568v64.714Z"/></g></g></svg>