<svg xmlns="http://www.w3.org/2000/svg" width="70" height="59"><g fill="none" fill-rule="evenodd"><path d="M-9-15h88v88H-9z"/><path fill="#DA251C" fill-rule="nonzero" d="M62.233.069H14.275c-.566 0-1.025.46-1.025 1.029 0 .568.459 1.03 1.025 1.03h47.958c3.152 0 5.716 2.574 5.716 5.738v38.342c0 3.164-2.564 5.739-5.716 5.739H7.767c-3.152 0-5.716-2.575-5.716-5.739V7.866c0-3.164 2.564-5.739 5.716-5.739h1.65c.567 0 1.025-.46 1.025-1.029 0-.568-.458-1.03-1.025-1.03h-1.65C3.484.069 0 3.567 0 7.867v38.342c0 4.194 3.316 7.623 7.453 7.79l.595 2.34a3.416 3.416 0 0 0 3.31 2.581h5.38a3.416 3.416 0 0 0 3.31-2.581l.592-2.332h28.72l.592 2.332a3.416 3.416 0 0 0 3.31 2.581h5.38a3.416 3.416 0 0 0 3.31-2.581l.594-2.34C66.684 53.83 70 50.401 70 46.207V7.866c0-4.3-3.484-7.797-7.767-7.797Zm-44.172 55.76a1.365 1.365 0 0 1-1.323 1.032h-5.38a1.364 1.364 0 0 1-1.323-1.032l-.463-1.823h8.952l-.463 1.823Zm41.904 0a1.364 1.364 0 0 1-1.323 1.032h-5.38a1.364 1.364 0 0 1-1.322-1.032l-.464-1.823h8.952l-.463 1.823Zm-46.72-42.005v-1.63c0-.57-.46-1.03-1.026-1.03-.567 0-1.026.46-1.026 1.03v1.63c0 .568.46 1.029 1.026 1.029.566 0 1.025-.461 1.025-1.03Zm39.019 23.772-2.182 2.19a1.032 1.032 0 0 0 .725 1.758c.262 0 .524-.1.725-.302l2.182-2.19c.401-.402.401-1.054 0-1.456a1.023 1.023 0 0 0-1.45 0Zm-37.057-4.892v.72a3.489 3.489 0 0 0 3.478 3.492h6.22a10.88 10.88 0 0 0 2.39 3.74 1.117 1.117 0 0 0 .153.153 10.745 10.745 0 0 0 7.555 3.102h.01a10.744 10.744 0 0 0 7.531-3.09c.035-.027.07-.056.103-.089.033-.033.062-.069.09-.105a10.83 10.83 0 0 0 3.068-7.467 1.008 1.008 0 0 0-.001-.203 10.828 10.828 0 0 0-3.072-7.46 1.085 1.085 0 0 0-.192-.194 10.745 10.745 0 0 0-15.095.02.941.941 0 0 0-.154.155 10.879 10.879 0 0 0-2.386 3.735h-6.22a3.489 3.489 0 0 0-3.478 3.491Zm11.104 1.392h3.763c.13.632.38 1.22.722 1.74l-2.659 2.67a8.764 8.764 0 0 1-1.826-4.41Zm7.672 7.694a8.693 8.693 0 0 1-4.395-1.828l2.66-2.67c.52.342 1.106.591 1.735.722v3.776Zm2.05-.001v-3.777a5 5 0 0 0 1.732-.725l2.659 2.67a8.69 8.69 0 0 1-4.39 1.832Zm5.84-3.29-2.66-2.67a5.04 5.04 0 0 0 .72-1.738h3.761a8.766 8.766 0 0 1-1.82 4.408Zm1.82-6.467h-3.762a5.05 5.05 0 0 0-.72-1.738l2.66-2.67a8.768 8.768 0 0 1 1.823 4.408Zm-7.665-7.693a8.691 8.691 0 0 1 4.392 1.83l-2.66 2.67a4.992 4.992 0 0 0-1.732-.723v-3.777Zm1.958 8.725a2.993 2.993 0 0 1-2.983 2.995c-.82 0-1.564-.334-2.104-.873l-.002-.002-.004-.004a2.99 2.99 0 0 1-.873-2.08l.002-.033c0-.012-.002-.023-.003-.035.009-.81.34-1.545.87-2.08l.005-.004.003-.005a2.97 2.97 0 0 1 2.106-.874 2.992 2.992 0 0 1 2.983 2.995Zm-4.009-8.725v3.777c-.628.13-1.214.38-1.733.724l-2.66-2.67a8.688 8.688 0 0 1 4.393-1.831Zm-5.843 3.287 2.66 2.67a5.031 5.031 0 0 0-.721 1.741H26.31a8.766 8.766 0 0 1 1.823-4.411Zm-3.785 7.23h-5.664a1.432 1.432 0 0 1-1.427-1.432v-.72c0-.79.64-1.432 1.427-1.432h5.664c-.097.583-.15 1.181-.15 1.792s.053 1.209.15 1.793Zm30.62-3.316a1.022 1.022 0 0 0-1.45 0l-3.556 3.57c-.4.402-.4 1.054 0 1.456a1.022 1.022 0 0 0 1.45 0l3.556-3.57c.401-.403.401-1.054 0-1.456Zm5.685-25.516H9.346A3.425 3.425 0 0 0 5.932 9.45v35.172a3.425 3.425 0 0 0 3.414 3.427h42.826c.566 0 1.025-.46 1.025-1.029s-.46-1.03-1.025-1.03H9.346a1.367 1.367 0 0 1-1.363-1.368V9.45c0-.755.611-1.369 1.363-1.369h51.308c.752 0 1.363.614 1.363 1.37v4.931h-1.463c-1.11 0-2.014.908-2.014 2.023v2.27a2.02 2.02 0 0 0 2.014 2.023h1.463v12.676h-1.463c-1.11 0-2.014.908-2.014 2.023v2.27a2.02 2.02 0 0 0 2.014 2.022h1.463v4.933c0 .754-.611 1.368-1.363 1.368h-3.576c-.567 0-1.025.461-1.025 1.03 0 .568.458 1.029 1.025 1.029h3.576a3.424 3.424 0 0 0 3.414-3.427V39.69h.105a2.02 2.02 0 0 0 2.015-2.023v-2.27a2.021 2.021 0 0 0-2.015-2.022h-.105V20.699h.105a2.02 2.02 0 0 0 2.015-2.023v-2.27a2.021 2.021 0 0 0-2.015-2.023h-.105V9.451a3.425 3.425 0 0 0-3.414-3.427Zm3.483 29.41v2.197H60.59v-2.197h3.547Zm0-18.992v2.198H60.59v-2.198h3.547Z"/></g></svg>